<svg viewBox="0 0 640 480" xmlns="http://www.w3.org/2000/svg"><defs><clipPath id="clipPath16"><path d="M-46.84 708.676h841.89v-595.28H-46.84v595.28z" id="path18"/></clipPath></defs><g><title>background</title><path fill="none" id="canvas_background" d="M-1-1h642v482H-1z"/></g><g><title>Layer 1</title><g id="g10"><g id="g12"><g id="g14" clip-path="url(#clipPath16)" transform="matrix(.7729 0 0 -.7729 30.818 557.2)"><g id="g20"><path fill="#373535" d="M172.63 398.305c.007 10.64 8.566 19.146 19.242 19.157 10.662-.007 19.237-8.554 19.24-19.2 0-10.648-8.59-19.24-19.24-19.24-10.636.02-19.22 8.63-19.24 19.283m19.24 126.525c-29.643-.004-53.67-24.02-53.673-53.664 0-1.334.54-2.637 1.483-3.58.943-.943 2.245-1.483 3.58-1.483h24.305c1.332 0 2.636.54 3.58 1.483.942.943 1.483 2.247 1.483 3.58.014 5.7 2.083 10.4 5.45 13.776 3.384 3.36 8.098 5.427 13.8 5.44 5.703-.013 10.41-2.077 13.79-5.44 3.364-3.374 5.43-8.075 5.443-13.776V448.54c-5.975 2.3-12.467 3.566-19.24 3.564-29.645-.002-53.672-24.028-53.674-53.672 0-29.646 24.027-53.67 53.672-53.674 29.5.004 53.426 23.79 53.666 53.23.006.088.008.175.008.264v72.914c-.005 29.645-24.03 53.66-53.674 53.664" id="path22"/></g><g id="g24"><path fill="#373535" d="M556.45 490.38c5.704-.01 10.41-2.073 13.787-5.432 3.36-3.373 5.425-8.07 5.436-13.77 0-2.798 2.262-5.062 5.06-5.064l24.305-.022c1.352 0 2.625.526 3.583 1.482.958.956 1.485 2.23 1.485 3.58v.004c-.004 29.645-24.03 53.672-53.672 53.675-29.644-.003-53.67-24.03-53.673-53.675 0-.114.003-.228.01-.34.194-29.333 23.9-53.074 53.22-53.318.153-.015.31-.02.464-.02 5.698-.015 10.406-2.082 13.785-5.45 3.363-3.378 5.43-8.086 5.442-13.784-.012-5.692-2.085-10.39-5.456-13.767-3.388-3.367-8.11-5.432-13.812-5.445-5.704.013-10.41 2.075-13.786 5.434-3.36 3.37-5.425 8.068-5.438 13.768 0 2.797-2.263 5.063-5.058 5.064l-24.305.022c-1.354 0-2.627-.525-3.584-1.48-.956-.96-1.483-2.23-1.483-3.583v-.004c.003-29.646 24.026-53.67 53.67-53.672 29.646.003 53.67 24.026 53.675 53.672 0 .123-.004.244-.013.365-.2 29.467-24.106 53.28-53.624 53.28v-5.063l-.02.003v5.064c-5.7.013-10.408 2.083-13.79 5.45-3.366 3.384-5.436 8.097-5.446 13.798 0 .093-.002.187-.01.282.077 5.577 2.135 10.183 5.45 13.508 3.382 3.36 8.096 5.427 13.8 5.44" id="path26"/></g><g id="g28"><path fill="#373535" d="M294.168 471.062c.01 5.702 2.08 10.44 5.446 13.84 3.38 3.388 8.08 5.466 13.77 5.48 5.686-.013 10.42-2.098 13.828-5.49 3.394-3.407 5.478-8.143 5.49-13.83v-72.737c-.012-5.7-2.08-10.44-5.447-13.84-3.384-3.385-8.082-5.464-13.77-5.477-5.688.01-10.424 2.096-13.832 5.488-3.39 3.406-5.476 8.14-5.485 13.83v72.736zm19.318 53.724c-29.63-.002-53.817-23.95-53.83-53.62l.076-72.92v-.005l-.01-97.207c0-1.333.54-2.638 1.483-3.58.943-.943 2.247-1.483 3.582-1.483h24.302c1.333 0 2.64.54 3.58 1.483.944.942 1.483 2.247 1.483 3.58v46.984c6.002-2.333 12.526-3.622 19.333-3.62 29.68.017 53.71 24.29 53.723 53.93v72.838c-.006 29.655-24.092 53.62-53.724 53.62" id="path30"/></g><g id="g32"><path fill="#373535" d="M415.69 471.062c.013 5.702 2.08 10.442 5.448 13.84 3.38 3.386 8.08 5.466 13.77 5.477 5.687-.01 10.422-2.094 13.83-5.488 3.39-3.408 5.475-8.142 5.487-13.83v-72.737c-.01-5.7-2.08-10.44-5.447-13.84-3.38-3.385-8.08-5.465-13.768-5.476-5.69.01-10.425 2.094-13.83 5.486-3.394 3.406-5.477 8.143-5.49 13.83v72.736zm19.32 53.724c-29.63-.002-53.818-23.95-53.83-53.62l.078-72.92v-.005l-.012-97.206c0-1.333.54-2.64 1.483-3.58.942-.944 2.246-1.483 3.58-1.483h24.306c1.332 0 2.636.54 3.578 1.483.944.942 1.483 2.247 1.483 3.58v46.984c6-2.334 12.527-3.622 19.333-3.622 29.68.02 53.71 24.293 53.723 53.932v72.838c-.005 29.655-24.09 53.62-53.723 53.62" id="path34"/></g></g></g></g></g></svg>