<svg id="Layer_1" xmlns="http://www.w3.org/2000/svg" viewBox="0 0 600 120"><style>.st0{fill:#010101;}</style><g><g><path class="st0" d="M100.9 13.9h34.9s28.7-2.4 28.7 21.8-24.8 22.4-29.5 22.4h-34.3V47.3h35.6s15.6.7 15.6-11.6c0-11.9-10.6-11.1-16-11.1h-35V13.9zM159.8 66c5.3 3.2 10.1 8.9 10.1 18.2 0 24.2-24.8 22.8-29.5 22.8h-39.6V96.4h40.7s15.8.2 15.9-12.1c.1-8.5-5.3-14.9-10.5-18.2h12.9z"/></g><path class="st0" d="M200.9 66h14.9v21.2c0 6.9 4.2 9.2 8.3 9.2h40.7l.1 10.9h-49.1c-5.1 0-14.8-3.3-14.8-17.1-.1-15.4-.1-24.2-.1-24.2zM264.9 47.3h-42.1c-4.1 0-7-.4-7-5.1 0-.7 0-11.5.1-12.3 0-5 2.6-5.3 6.7-5.3h42.3V13.9h-48S201 12.8 201 29.8v11.9C201 57 212.4 58 217.5 58h47.4V47.3zM371.5 13.9c-2.2 2.5-23.1 27.4-25.7 30-4.4 4.3-12.3 3.4-18.7 3.4-6.5 0-7.6-4.9-7.6-8.2V14h-14.8c0 3.2.1 29.2.1 33.4 0 3.3 1.5 10.7 14.7 10.7h25.4c3.3 0 8.2-2 13.9-8.7 1.7-2 25.8-31.1 29.8-35.4h-17.1zM356.9 72.7c-3.1-3.4-5.9-6.7-15.7-6.7h-21.7c-10.8 0-14.7 7.9-14.7 12v29.1h14.8V82c0-3.3 1-5.2 7.5-5.2h6.1c6.1 0 9.5.2 12.7 3.4 2.6 2.6 24.3 24.3 26.7 26.9h17c-4.2-4.5-30.9-32.5-32.7-34.4zM481.2 13.9c-2.2 2.5-23.1 27.4-25.7 30-4.4 4.3-12.3 3.4-18.7 3.4-6.5 0-7.6-4.9-7.6-8.2V14h-14.8c0 3.2.1 29.2.1 33.4 0 3.3 1.5 10.7 14.7 10.7h25.4c3.3 0 8.2-2 13.9-8.7 1.7-2 25.8-31.1 29.8-35.4h-17.1zM466.6 72.7c-3.1-3.4-5.9-6.7-15.7-6.7h-21.7c-10.8 0-14.7 7.9-14.7 12v29.1h14.8V82c0-3.3 1-5.2 7.5-5.2h6.1c6.1 0 9.5.2 12.7 3.4 2.6 2.6 24.3 24.3 26.7 26.9h17c-4.2-4.5-31-32.5-32.7-34.4z"/></g></svg>