<svg width="640" height="480" xmlns="http://www.w3.org/2000/svg"><defs><clipPath id="clipPath18"><path id="path20" d="M0 841.89h1190.55V0H0v841.89z"/></clipPath></defs><g><title>background</title><path id="canvas_background" fill="none" d="M-1-1h642v482H-1z"/></g><g><title>Layer 1</title><g stroke="null" id="svg_1"><g id="g22"><path id="path24" d="M92.148 187.29h39.893s32.897-2.78 32.897 24.908c0 27.684-28.36 25.603-33.773 25.603l-39.232-.053v-12.25h40.714s17.88.826 17.88-13.3c0-13.64-12.085-12.682-18.318-12.682H92.14l.008-12.224z" stroke-width="1.14461"/></g><g id="g26"><path id="path28" d="M159.57 246.934c6.06 3.633 11.518 10.172 11.518 20.873 0 27.683-28.375 26.123-33.788 26.123l-45.368.037v-12.264l46.55-.007s18.08.236 18.195-13.89c.08-9.704-6.093-17.09-11.987-20.872h14.88z" stroke-width="1.14461"/></g><g id="g30"><path id="path32" d="M206.6 246.934h17.052v24.218c0 7.946 4.77 10.55 9.495 10.55h46.614l.07 12.44h-56.25c-5.85 0-16.98-3.787-16.98-19.584v-27.624z" stroke-width="1.14461"/></g><g id="g34"><path id="path36" d="M279.883 225.573c-4.275 0-43.51-.022-48.234-.022-4.726 0-8.07-.456-8.07-5.875 0-.848 0-13.17.082-14.117 0-5.686 2.928-6.043 7.653-6.043h48.455l.006-12.225h-54.973s-18.204-1.215-18.204 18.252v13.585c0 17.48 13.044 18.62 18.893 18.62h54.283l.107-12.174z" stroke-width="1.14461"/></g><g id="g38"><path id="path40" d="M401.882 187.318c-2.566 2.83-26.393 31.316-29.42 34.3-5.035 4.965-14.057 3.907-21.365 3.907-7.42 0-8.69-5.62-8.69-9.437 0-3.823-.03-25.314-.03-28.77h-16.97c0 3.638.06 33.478.06 38.207 0 3.76 1.765 12.267 16.878 12.267 2.843 0 28.817-.043 29.114-.045 3.745-.027 9.38-2.28 15.854-9.934 1.914-2.264 29.582-35.55 34.076-40.495h-19.508z" stroke-width="1.14461"/></g><g id="g42"><path id="path44" d="M385.178 254.595c-3.563-3.85-6.808-7.66-18.012-7.66h-24.82c-12.418 0-16.836 9.008-16.836 13.74v33.307l16.908-.055c0-3.456.03-24.858.03-28.68 0-3.82 1.12-5.98 8.544-5.98 7.31 0 6.17.04 6.992.035 6.99-.046 10.91.25 14.52 3.847 3.012 2.998 27.77 27.788 30.615 30.782h19.455c-4.772-5.108-35.382-37.162-37.397-39.337" stroke-width="1.14461"/></g><g id="g46"><path id="path48" d="M527.376 187.354c-2.567 2.83-26.395 31.317-29.42 34.3-5.035 4.965-14.058 3.907-21.365 3.907-7.422 0-8.69-5.617-8.69-9.436 0-3.823-.03-25.315-.03-28.77H450.9c0 3.638.062 33.478.062 38.207 0 3.76 1.764 12.268 16.876 12.268 2.843 0 28.818-.042 29.114-.044 3.746-.028 9.38-2.282 15.854-9.935 1.915-2.265 29.583-35.55 34.077-40.496h-19.507z" stroke-width="1.14461"/></g><g id="g50"><path id="path52" d="M510.67 254.63c-3.562-3.85-6.807-7.658-18.01-7.658h-24.822c-12.418 0-16.835 9.007-16.835 13.737v33.308l16.908-.056c0-3.454.03-24.857.03-28.68 0-3.817 1.123-5.977 8.545-5.977 7.31 0 6.168.04 6.992.033 6.99-.046 10.908.248 14.52 3.848 3.012 2.998 27.77 27.79 30.615 30.783h19.456c-4.772-5.11-35.382-37.164-37.397-39.34" stroke-width="1.14461"/></g></g></g></svg>