<svg xmlns="http://www.w3.org/2000/svg" viewBox="0 0 389.33334 121.33333"><g fill="#07466d"><path d="M22.255 66.15h13.657s-4.647 8-9.505 8.23c-10 .568-14.522 1.292-16.814 9.443-1.65 5.718 1 7.505 10.522 7.937 7.926.39 6.697 8.24 6.697 8.24h-14.22c-11 0-14.306-6.652-11.8-16.098 2.792-10.37 10.443-17.75 21.463-17.75zm144.87-.073h-16.74v.074c-1.65 4.58.568 7.653 7.938 7.653h.073c10.37 0 11.448 4.646 10.23 9.23-1.22 4.29-3.433 8.728-11.37 8.728h-3c1.217-4.58.86-3.08 1.65-6.08.787-3 2.72-6.65-2.65-6.73-5.37-.08-5.652 4-6.152 6-.432 1.5-8.3 31.26-8.3 31.26-.788 2.863.79 3.79 3.508 3.79 2.724 0 4.724-.86 5.51-3.79l4.36-16.38s4.443-.07 6.443-.07c9.438-.207 16-7.87 18.39-16.53 2.34-8.98-1.203-17.14-9.89-17.14zM47.725 83.15c1.5-5.87 5.15-10.302 10.368-10.302 5.22 0 6.51 4.4 4.943 10.303-1.51 5.403-5.083 10.2-10.38 10.2-5.3 0-6.442-4.797-4.932-10.198zm-9 0c-2.36 8.938-.14 16.88 12.087 16.88 12.23 0 18.803-7.967 21.16-16.88 2.58-9.52-1.217-17-12.087-17s-18.6 7.448-21.182 17zm180.207 4.58c-2.577 9.593-11.656 12.227-19 12.3-6.145.068-15.448-4.082-13.156-12.38l5.87-21.748s9.437 1.358 7.73 7.795l-3.293 12.094c-1 3.654 1.433 5.58 5.292 5.58 3.912-.005 7.322-2.655 8.297-6.437l3.14-11.54c1.224-4.512 11-7.512 11-7.512zm20.52-14.48h-10.796s3.36-7.152 7.656-7.578h5.152l2.65-10s8.798 1.067 7.23 7.077l-7.73 28.76c-.36 1.36.21 2 1.793 2h5.077s-4.577 6.077-10.37 6.51c-6.578.427-7.23-2.29-5.87-7.578zm79.053-7.1c6.938 0 14.156-.073 14.156-.073s-2.356 7.37-12.227 7.443c-4.937 0-7.145-.208-8.51 1.792-4.786 7.297 19.39-1.5 15.67 13-2.576 9.937-9.868 11.656-16.67 11.656h-13.6s2.585-7.645 12-7.796c5.443-.074 9.37.067 10.23-2.792.432-1.432-1.72-2.22-3.72-2.5-5.51-.72-15.597.36-12.228-11 2.308-7.568 8.75-9.65 14.9-9.73zm-233 7.798s5.87-7.73 14.667-7.87c5.51-.068 8.66 1.573 10.3 3.724.705.677 1.242 1.51 1.57 2.427 3.43-3.5 8.302-6 13.16-6 6.303 0 12.73 3.15 10.59 11.226L129.714 100s-7.65-2.5-6.65-6.37l3.65-13.88c.86-3.22-.5-5.793-4-5.793s-7.23 2.792-8.37 6.945l-4 14.52c-.64 2.426-2.15 4.578-5.65 4.578-3.5 0-3.93-2.152-3.287-4.58l4.077-15.67c1.14-4.293-2.65-5.793-6.3-5.793h-13.69zm4.307 18.9c1.5-5.72 1-3.72 1.792-6.87.792-2.926 2.72-6.576-2.72-6.65-5.44-.068-5.868 3.65-6.3 5.724-.428 2.068-4.08 15-4.08 15s9.64-1.344 11.308-7.204zm188.052-26.9c-11.66 1.364-17.457 12-18.53 16.454-1.72 6.87-1.14 16.17 9.087 17.598h17.893l9.095-34.052zm-6.443 25.68c-2.924-1.065-4.607-3.477-3.274-8.477 1.568-5.717 4.58-7 8.08-8.16 3.5-1.16 7-.64 7.578-.71l-4.787 18.14s-4.724.278-7.584-.79zm87.815-80.696c4.61-1.12 16.588-.183 22.197-.62-5.42-6.355-13.416-9.927-21.77-9.735C347.136.572 336.016 8.61 332.1 20.51c-3.918 11.9.25 24.974 10.33 32.41-5.76-9.472 1.824-38.357 16.804-41.988z"/><path d="M383.724 13.76c-2.37 5.864-8.047 9.713-14.37 9.75-14.562.22-21 2.792-23.818 10.922-1.572 4.51-.54 8.328 2.12 9.37 4.016 1.557 13.156-10.214 20.156-3.65 7 6.556-8 16.925-20 15.92 8.98 4.043 19.39 3.256 27.657-2.088 8.264-5.35 13.26-14.52 13.253-24.364-.052-6.28-1.912-10.4-5-15.86z"/></g></svg>