<svg width="640" height="480" xmlns="http://www.w3.org/2000/svg"><g><title>background</title><path fill="none" id="canvas_background" d="M-1-1h642v482H-1z"/></g><g><title>Layer 1</title><g id="g10"><g id="g12"><path fill="#3dc0ea" d="M254.455 255.546h-6.005v12.448h-2.228v-12.448h-6.005v-1.668h14.238v1.668" id="path14"/><path fill="#3dc0ea" d="M284.48 267.994h-11.054v-14.116h11.055v1.668h-8.824v3.866h8.825v1.668h-8.824v5.247h8.825v1.667" id="path16"/><path fill="#3dc0ea" d="M317.698 266.975c-.412.15-.786.293-1.12.425-.334.133-.77.272-1.312.417-.456.12-.955.222-1.49.307-.538.085-1.128.128-1.774.128-1.215 0-2.322-.144-3.315-.43-.996-.29-1.86-.74-2.595-1.353-.722-.6-1.285-1.364-1.69-2.29-.404-.927-.608-2.003-.608-3.23 0-1.164.196-2.203.586-3.12.39-.916.953-1.69 1.69-2.323.71-.613 1.573-1.08 2.582-1.403 1.01-.323 2.13-.483 3.36-.483.902 0 1.8.092 2.697.276.896.183 1.893.506 2.988.966v2.23h-.167c-.923-.644-1.84-1.114-2.747-1.408-.908-.295-1.88-.44-2.915-.44-.848 0-1.613.114-2.292.344-.68.23-1.285.59-1.82 1.074-.515.474-.92 1.072-1.208 1.794-.29.723-.433 1.557-.433 2.504 0 .99.16 1.842.478 2.555.318.714.73 1.294 1.234 1.743.524.467 1.137.812 1.84 1.035.7.225 1.442.337 2.222.337 1.072 0 2.08-.155 3.017-.463.937-.308 1.815-.77 2.634-1.387h.158v2.195" id="path18"/><path fill="#3dc0ea" d="M350.422 267.994h-2.228v-6.914h-8.37v6.914h-2.23v-14.116h2.23v5.534h8.37v-5.534h2.228v14.116" id="path20"/><path fill="#3dc0ea" d="M384.467 267.994H381.7l-7.938-12.628v12.628h-2.092v-14.116h3.464l7.24 11.528v-11.528h2.093v14.116" id="path22"/><path fill="#3dc0ea" d="M417.975 260.94c0-1.83-.49-3.242-1.463-4.236-.978-.994-2.314-1.49-4.004-1.49-1.706 0-3.045.496-4.02 1.49-.972.994-1.46 2.406-1.46 4.237 0 1.85.498 3.266 1.488 4.247.993.982 2.323 1.473 3.992 1.473 1.667 0 2.997-.49 3.986-1.473.988-.98 1.48-2.396 1.48-4.246zm.202-5.437c.683.632 1.207 1.405 1.572 2.32.364.917.546 1.956.546 3.118s-.186 2.203-.557 3.122c-.375.92-.893 1.685-1.563 2.297-.693.637-1.508 1.117-2.45 1.44-.944.32-2.022.483-3.23.483-1.18 0-2.252-.165-3.22-.493-.963-.328-1.784-.805-2.46-1.43-.677-.626-1.197-1.393-1.562-2.302-.365-.91-.547-1.95-.547-3.117 0-1.148.18-2.18.54-3.092.362-.913.888-1.694 1.58-2.345.66-.62 1.482-1.093 2.462-1.42.98-.33 2.048-.493 3.206-.493 1.202 0 2.283.165 3.24.497.958.332 1.77.804 2.44 1.416" id="path24"/><path fill="#3dc0ea" d="M451.175 267.994H440.56v-14.116h2.23v12.45h8.385v1.666" id="path26"/><path fill="#3dc0ea" d="M482.222 260.94c0-1.83-.49-3.242-1.466-4.236-.978-.994-2.31-1.49-4.002-1.49-1.706 0-3.047.496-4.02 1.49-.973.994-1.46 2.406-1.46 4.237 0 1.85.496 3.266 1.488 4.247.994.982 2.323 1.473 3.992 1.473 1.667 0 2.995-.49 3.985-1.473.987-.98 1.482-2.396 1.482-4.246zm.2-5.437c.685.632 1.21 1.405 1.573 2.32.363.917.546 1.956.546 3.118s-.184 2.203-.556 3.122c-.373.92-.893 1.685-1.563 2.297-.69.637-1.507 1.117-2.448 1.44-.945.32-2.02.483-3.23.483-1.18 0-2.25-.165-3.22-.493-.964-.328-1.783-.805-2.46-1.43-.677-.626-1.196-1.393-1.562-2.302-.363-.91-.546-1.95-.546-3.117 0-1.148.18-2.18.54-3.092.363-.913.887-1.694 1.58-2.345.66-.62 1.48-1.093 2.46-1.42.983-.33 2.052-.493 3.21-.493 1.2 0 2.28.165 3.24.497.957.332 1.77.804 2.437 1.416" id="path28"/><path fill="#3dc0ea" d="M518.802 266.964c-.916.354-1.92.66-3.003.925-1.087.26-2.137.393-3.15.393-1.307 0-2.504-.152-3.595-.457-1.087-.303-2.016-.76-2.78-1.366-.775-.613-1.373-1.38-1.792-2.3-.422-.922-.633-2-.633-3.233 0-2.257.784-4.04 2.348-5.347 1.566-1.307 3.715-1.96 6.45-1.96.952 0 1.927.097 2.922.29.994.193 2.067.52 3.216.982v2.23h-.204c-.232-.15-.57-.347-1.013-.592-.445-.244-.878-.448-1.307-.61-.52-.195-1.106-.357-1.762-.485-.657-.128-1.402-.192-2.237-.192-1.875 0-3.36.506-4.454 1.52-1.094 1.014-1.64 2.386-1.64 4.117 0 1.825.572 3.245 1.713 4.26 1.14 1.013 2.694 1.52 4.662 1.52.72 0 1.44-.06 2.156-.18.717-.12 1.348-.274 1.887-.463v-3.45h-4.49v-1.668h6.705v6.064" id="path30"/><path fill="#3dc0ea" d="M545.346 267.994h-6.626v-1.44h2.2V255.32h-2.2v-1.442h6.626v1.44h-2.197v11.236h2.196v1.44" id="path32"/><path fill="#3dc0ea" d="M576.925 267.994h-11.053v-14.116h11.053v1.668H568.1v3.866h8.825v1.668H568.1v5.247h8.825v1.667" id="path34"/><path fill="#3dc0ea" d="M609.385 263.966c0 .55-.152 1.093-.456 1.63-.304.538-.73.993-1.278 1.366-.604.405-1.303.722-2.102.95-.8.226-1.762.34-2.89.34-1.21 0-2.296-.095-3.263-.283-.964-.19-1.946-.47-2.946-.844v-2.346h.158c.85.59 1.83 1.048 2.943 1.368 1.11.32 2.155.482 3.13.482 1.385 0 2.46-.218 3.23-.654.77-.436 1.156-1.018 1.156-1.745 0-.624-.183-1.086-.546-1.383-.365-.297-.92-.53-1.663-.692-.563-.126-1.172-.23-1.828-.313-.66-.082-1.354-.187-2.092-.314-1.486-.265-2.587-.718-3.305-1.36-.716-.64-1.075-1.478-1.075-2.508 0-1.183.594-2.15 1.778-2.906 1.186-.756 2.692-1.133 4.514-1.133 1.178 0 2.257.095 3.24.285.985.188 1.855.422 2.614.7v2.215h-.158c-.638-.454-1.477-.83-2.515-1.13-1.04-.298-2.103-.447-3.192-.447-1.19 0-2.15.208-2.874.625-.724.418-1.087.954-1.087 1.612 0 .588.18 1.05.542 1.384.358.335.992.59 1.9.768.482.09 1.165.196 2.052.323.885.126 1.638.256 2.252.388 1.247.28 2.185.7 2.816 1.26.63.564.945 1.35.945 2.363" id="path36"/><path fill="#145798" d="M274.632 224.483v17.31H250.6c-2.03 0-3.737-.188-5.12-.566-1.38-.375-2.49-.93-3.332-1.665-.838-.734-1.444-1.667-1.808-2.796-.37-1.128-.554-2.445-.554-3.95v-13.222c0-1.505.185-2.822.554-3.95.364-1.13.97-2.062 1.808-2.795.84-.735 1.95-1.292 3.333-1.667 1.383-.377 3.09-.565 5.12-.565h24.032v7.096h-20.008c-1.12 0-2.04.108-2.756.322-.718.216-1.287.538-1.706.967-.42.432-.718.95-.895 1.56-.174.608-.262 1.308-.262 2.094v7.096c0 .79.088 1.486.262 2.095.177.61.474 1.13.895 1.56.42.428.99.75 1.708.966.718.216 1.636.322 2.758.322h10.874v-10.213h9.13" id="path38"/><path fill="#145798" d="M281.333 241.792h9.128v-31.174h-9.127v31.174z" id="path40"/><path fill="#145798" d="M322.83 222.536c0-.75-.086-1.42-.263-2.01-.174-.588-.48-1.1-.918-1.527-.44-.43-1.014-.75-1.734-.964-.716-.214-1.632-.322-2.752-.322h-5.193c-1.12 0-2.037.108-2.755.322-.716.215-1.295.535-1.732.963-.436.427-.743.938-.918 1.527-.174.59-.262 1.258-.262 2.01h16.526zm-16.527 7.096v12.16h-9.19v-22.198c0-1.505.185-2.822.554-3.95.367-1.13.97-2.062 1.81-2.795.84-.735 1.95-1.292 3.33-1.667 1.383-.377 3.09-.565 5.117-.565H321.2c2.03 0 3.727.18 5.092.538 1.362.36 2.465.905 3.305 1.64.838.733 1.442 1.657 1.81 2.767.368 1.11.552 2.4.552 3.87v22.36h-9.13v-12.16h-16.527" id="path42"/><path fill="#145798" d="M347.848 241.792h-9.127v-31.174h9.128l16.468 17.414v-17.414h9.22v31.174h-9.22l-16.468-17.736v17.736" id="path44"/><path fill="#145798" d="M392.848 217.714H380.26v-7.096h34.83v7.096h-13.115v24.078h-9.127v-24.078" id="path46"/><path fill="#145798" d="M484.108 237.17v4.622h-24.08c-2.028 0-3.73-.187-5.108-.565-1.38-.375-2.488-.93-3.328-1.665-.84-.734-1.44-1.667-1.805-2.796-.367-1.128-.55-2.445-.55-3.95v-22.198h9.22v19.134c0 1.612.382 2.84 1.152 3.682.768.84 2.255 1.262 4.455 1.262h20.043v2.474" id="path48"/><path fill="#145798" d="M499.97 229.632c0 .826.088 1.554.262 2.182.175.63.482 1.157.918 1.59.435.432 1.01.754 1.73.97.72.214 1.636.322 2.753.322h20.043v7.096h-24.08c-2.03 0-3.735-.187-5.115-.565-1.383-.375-2.495-.93-3.336-1.665-.842-.734-1.444-1.667-1.812-2.796-.367-1.128-.55-2.445-.55-3.95v-13.222c0-1.505.183-2.822.55-3.95.368-1.13.97-2.062 1.812-2.795.84-.735 1.953-1.292 3.337-1.667 1.38-.377 3.085-.565 5.117-.565h24.08v7.096h-20.044c-1.117 0-2.034.108-2.752.322-.72.215-1.295.535-1.73.963-.436.427-.743.938-.918 1.527-.174.59-.262 1.258-.262 2.01h25.706v7.095H499.97" id="path50"/><path fill="#145798" d="M558.043 222.536c0-.75-.087-1.42-.264-2.01-.176-.588-.48-1.1-.92-1.527-.436-.43-1.012-.75-1.732-.964-.716-.214-1.632-.322-2.752-.322h-5.192c-1.124 0-2.04.108-2.756.322-.716.215-1.296.535-1.733.963-.437.427-.743.938-.918 1.527-.173.59-.26 1.258-.26 2.01h16.526zm-16.526 7.096v12.16h-9.19v-22.198c0-1.505.183-2.822.55-3.95.368-1.13.972-2.062 1.812-2.795.838-.735 1.948-1.292 3.332-1.667 1.38-.377 3.085-.565 5.114-.565h13.277c2.028 0 3.726.18 5.092.538 1.36.36 2.463.905 3.305 1.64.837.733 1.44 1.657 1.807 2.767.37 1.11.553 2.4.553 3.87v22.36h-9.127v-12.16h-16.526" id="path52"/><path fill="#145798" d="M583.062 223.93h10.802c2.45 0 4.008-.39 4.672-1.178.7-.823 1.05-1.465 1.05-1.93 0-.464-.35-1.107-1.05-1.93-.664-.784-2.223-1.178-4.672-1.178h-10.802v6.217zm0 7.097v10.765h-9.128v-31.174h24.18c4.094 0 6.892.77 8.396 2.31 1.5 1.54 2.256 3.76 2.256 6.66v2.47c0 2.9-.755 5.12-2.256 6.66-1.504 1.54-4.302 2.31-8.395 2.31h-15.053" id="path54"/><path fill="#145798" fill-rule="evenodd" d="M207.98 244.97c3.345 2.485 2.453 8.485.648 9.834l-18.83 10.283c-3.59 1.92-8.182 1.71-13.265-2.757.01.006-13.613-16.085-13.592-16.088-2.796-3.46-.63-8.582 1.232-9.663l14.59-8.03c4.518-2.512 8.737-1.54 11.7 1.043l17.517 15.376" id="path56"/><path fill="#145798" fill-rule="evenodd" d="M172.455 216.09c2.532 1.665 3.582 6.745 1.353 8.136l-15.484 9.162c-2.777 1.36-6.293 2.122-10.75-2.268.01.004-8.73-10.258-8.716-10.26-2.103-2.338-.447-6.292 1.547-7.385l11.064-6.102c3.49-1.774 8.51-1.61 10.75.12l10.235 8.597" id="path58"/><path fill="#3dc0ea" fill-rule="evenodd" d="M174.818 178.63c3.866 2.12 2.892 5.617 1.496 6.562l-12.713 7.38c-2.774 1.36-5.61 2.878-9.447-.126.005.004-7.724-6.433-7.708-6.435-2.103-2.335-1.15-5.15.287-5.912l10.386-6.24c3.494-1.776 8.38-1.657 10.618.074l7.082 4.7" id="path60"/><path fill="#145798" fill-rule="evenodd" d="M140.595 236.265c1.49 1.896 1.144 6.944-.822 8.254l-14.666 8.33c-3.044 1.432-6.89-.104-8.983-3.096.007.005-6.973-11.332-6.96-11.333-1.34-2.19-.514-5.932 1.477-6.984l12.246-6.795c3.138-1.366 7.682-1.218 9.012.38l8.697 11.245" id="path62"/><path fill="#3dc0ea" fill-rule="evenodd" d="M148.593 195.825c1.934 1.916 1.452 5.462-.487 6.768l-12.504 7.218c-2.212 1.403-6.205 1.524-8.593-.936.008.004-6.212-7.432-6.195-7.438-1.235-1.896-.64-5.125 1.138-6.096l10.548-5.935c2.943-1.548 6.364-1.915 8.602-.05l7.49 6.47" id="path64"/><path fill="#145798" fill-rule="evenodd" d="M108.063 194.617c1.136 1.547.597 4.272-1.688 5.84l-11.04 5.846c-2.453 1.13-4.878.38-5.47-.577.004.004-4.178-6.976-4.17-6.978-.758-1.508.8-3.666 2.24-4.476l8.28-4.856c2.557-1.207 6.156-1.845 7.565-.166l4.283 5.367" id="path66"/><path fill="#145798" fill-rule="evenodd" d="M111.036 255.002c1.47 2.422-.368 7.184-2.733 8.494l-12.78 7.078c-3.106 1.534-7.54.446-8.682-1.407.008.003-5.71-13.49-5.693-13.494-1.196-2.382.673-6.423 2.59-7.68l10.744-6.35c3.144-1.367 7.296-1.554 8.97.54l7.586 12.82" id="path68"/><path fill="#145798" fill-rule="evenodd" d="M81.98 271.052c1.576 3.368.954 8.14-2.026 9.894L65.51 288.83c-1.953.814-5.508.082-6.153-1.86.003.005-3.86-13.952-3.85-13.954-1.035-3.46 1.06-7.534 3.123-8.978l10.706-6.368c1.978-.912 6.205-1.69 7.478 1.06l5.166 12.322" id="path70"/><path fill="#145798" fill-rule="evenodd" d="M54.5 290.43c.59 2.447-1.36 7.236-3.958 8.425l-12.662 7.278c-3.13 1.785-5.805-.925-6.182-3.592.007.005-.95-14.284-.942-14.284-.14-3.326 1.794-6.602 3.186-7.388l11.906-6.943c2.742-.976 4.666.356 5.922 3.403l2.73 13.102" id="path72"/><path fill="#3dc0ea" fill-rule="evenodd" d="M122.36 211.653c1.47 1.685 1.615 5.303-1.247 7.01l-12.466 7.18c-1.943 1.14-5.71 1.03-7.14-1.223.003 0-5.225-8.203-5.216-8.204-1.254-2.054-.205-4.69 1.812-5.89l11.55-7.048c1.932-1.084 5.445-.443 6.837 1.005l5.87 7.17" id="path74"/><path fill="#3dc0ea" fill-rule="evenodd" d="M96.38 227.257c1.155 1.838-.18 5.4-1.625 6.26L82.067 241c-1.886 1.095-4.988.586-5.905-1.008.003 0-4.237-9.684-4.23-9.685-.765-2.298.726-4.785 1.852-5.63l11.68-7.067c1.85-.982 4.545-.895 5.694.505l5.222 9.142" id="path76"/></g></g></g></svg>