<svg id="Layer_1" xmlns="http://www.w3.org/2000/svg" viewBox="0 0 184 108"><g><g><path d="M71.82 62.823h.16l.246.402h.158l-.265-.41c.137-.016.24-.09.24-.254 0-.184-.108-.263-.327-.263h-.354v.928h.14v-.402zm0-.12v-.287h.19c.1 0 .204.022.204.137 0 .142-.106.152-.226.152h-.17z"/><path d="M72.895 62.762c0 .5-.408.91-.91.91s-.91-.41-.91-.91c0-.502.408-.91.91-.91.503 0 .91.408.91.91zm-.91-.75c-.414 0-.75.336-.75.75s.336.747.75.747c.413 0 .748-.335.748-.747 0-.415-.335-.75-.748-.75z"/><path fill="#FFF" d="M66.938 63.524c-1.273 0-2.432.22-3.286.577-.094.048-.16.146-.16.258 0 .04.01.082.025.118.1.293-.065.61-.892.792-1.226.27-2 1.535-2.443 1.955-.52.494-1.99.797-1.768.503.173-.23.834-.948 1.236-1.724.36-.694.68-.89 1.12-1.553.13-.195.632-.877.778-1.416.164-.526.11-1.187.17-1.46.09-.392.462-1.243.49-1.723.015-.27-1.136.39-1.682.39s-1.078-.33-1.566-.352c-.604-.028-.992.466-1.54.38-.31-.05-.574-.325-1.12-.345-.775-.028-1.724.432-3.506.374-1.753-.057-3.372-2.216-3.593-2.56-.258-.4-.574-.4-.92-.085-.344.316-.77.067-.89-.145-.23-.402-.845-1.577-1.797-1.824-1.317-.34-1.983.73-1.897 1.58.088.864.646 1.107.905 1.566.26.46.392.755.88.958.344.145.472.357.37.64-.09.247-.45.303-.685.315-.502.024-.853-.112-1.11-.276-.298-.19-.54-.455-.8-.903-.302-.495-.777-.71-1.33-.71-.262 0-.51.07-.728.182-.866.45-1.897.718-3.007.718h-1.252C39.34 66.875 46.07 72 54 72c6.335 0 11.904-3.27 15.113-8.216-.695-.16-1.43-.26-2.175-.26z"/><path d="M57.927 62.12c-.016 0-.03.007-.042.018-.233.27-.334.36-.502.495-.406.327-.87-.042-1.167-.217-.66-.388-1.193-.143-1.322.157-.13.303.014.666.374.618.504-.064.526.014.89.245.68.43 1.175.196 1.428-.007.21-.168.328-.31.438-.516.195-.385.036-.69-.057-.78-.012-.006-.026-.012-.04-.012z"/><path d="M54 36c-9.94 0-18 8.06-18 18 0 2.012.33 3.948.94 5.754h1.25c1.11 0 2.142-.267 3.008-.718.22-.112.466-.182.73-.182.552 0 1.026.215 1.327.71.26.45.503.713.8.902.257.164.61.3 1.11.277.237-.01.596-.068.686-.315.104-.283-.025-.497-.37-.64-.487-.203-.62-.5-.878-.96-.26-.46-.818-.703-.905-1.567-.087-.85.58-1.92 1.897-1.58.952.247 1.567 1.423 1.797 1.826.122.212.547.46.892.145.344-.316.66-.316.92.087.22.343 1.84 2.5 3.593 2.558 1.782.057 2.73-.403 3.507-.374.545.022.808.296 1.12.346.547.086.935-.408 1.54-.38.487.025 1.02.35 1.565.35.546 0 1.697-.658 1.68-.386-.027.48-.397 1.332-.487 1.724-.063.272-.008.933-.17 1.46-.147.54-.65 1.22-.778 1.416-.44.66-.76.86-1.12 1.552-.403.776-1.064 1.494-1.237 1.724-.22.294 1.248-.01 1.768-.503.443-.42 1.217-1.685 2.443-1.955.827-.182.993-.5.892-.792-.015-.034-.026-.076-.026-.117 0-.113.067-.21.16-.26.855-.354 2.014-.575 3.287-.575.743 0 1.48.1 2.173.26C70.94 60.967 72 57.608 72 54c0-9.94-8.058-18-18-18z"/><path fill="#C00" d="M64.158 49.21c-.178.6-.43 1.364-1.556 1.94-.164.085-.227-.053-.15-.182.424-.723.5-.904.624-1.19.173-.417.264-1.01-.08-2.25-.677-2.435-2.09-5.69-3.116-6.748-.99-1.02-2.785-1.306-4.408-.89-.598.153-1.767.76-3.934.273-3.752-.845-4.308 1.034-4.523 1.852-.216.82-.733 3.145-.733 3.145-.172.948-.398 2.595 5.428 3.705 2.714.517 2.852 1.218 2.972 1.723.216.904.56 1.422.948 1.68.388.26 0 .473-.43.517-1.156.12-5.428-1.105-7.955-2.54-2.068-1.265-2.102-2.402-1.63-3.368-3.122-.338-5.467.293-5.89 1.77-.73 2.538 5.578 6.873 12.76 9.048 7.54 2.282 15.293.69 16.155-4.05.39-2.152-1.424-3.744-4.482-4.434zM52.6 44.57c-2.08.15-2.295.376-2.684.79-.55.586-1.273-.758-1.273-.758-.434-.09-.96-.79-.677-1.445.28-.646.796-.453.958-.25.197.244.617.645 1.163.63.546-.013 1.175-.128 2.053-.128.89 0 1.488.33 1.522.617.03.243-.072.472-1.062.544zm4.497-2.07c-.373-.008-.724-.062-1.026-.15-.035-.008-.06-.04-.06-.075 0-.036.026-.067.062-.076.72-.168 1.206-.44 1.17-.697-.044-.34-.986-.527-2.102-.415-.122.013-.24.028-.357.046h-.01c-.03 0-.057-.024-.057-.054 0-.022.013-.04.033-.05.402-.213 1.003-.382 1.692-.452.207-.02.408-.032.603-.033h.103c1.154.026 2.077.485 2.064 1.024-.014.54-.96.957-2.115.93z"/></g><g><path d="M81.176 55.136c0-1.65-.034-2.865-.1-3.963h2.7l.115 2.342h.09c.606-1.736 2.044-2.62 3.375-2.62.305 0 .482.01.73.066V53.9c-.29-.057-.563-.09-.938-.09-1.486 0-2.517.946-2.795 2.36-.053.275-.08.605-.08.94v6.396h-3.12l.024-8.368zM91.85 58.178c.083 2.235 1.813 3.212 3.81 3.212 1.434 0 2.46-.225 3.403-.57l.46 2.144c-1.054.448-2.52.782-4.308.782-4.005 0-6.35-2.473-6.35-6.25 0-3.405 2.065-6.625 6.03-6.625 4.01 0 5.316 3.3 5.316 6 0 .578-.05 1.044-.11 1.33l-8.25-.022zm5.424-2.172c.014-1.143-.483-3.005-2.57-3.005-1.92 0-2.72 1.742-2.86 3.006h5.43zM137.132 60.573c0 .976.04 1.986.18 2.932h-1.124l-.18-1.77h-.057c-.597.952-1.972 2.05-3.934 2.05-2.483 0-3.64-1.746-3.64-3.392 0-2.85 2.516-4.565 7.536-4.512v-.33c0-1.22-.237-3.655-3.157-3.636-1.08 0-2.205.29-3.098.92l-.39-.888c1.128-.764 2.506-1.066 3.622-1.066 3.56 0 4.242 2.674 4.242 4.88v4.813zm-1.22-3.665c-2.688-.077-6.236.33-6.236 3.293 0 1.775 1.17 2.572 2.456 2.572 2.057 0 3.226-1.273 3.652-2.475.09-.263.128-.528.128-.74v-2.65zM141.993 48.442v2.72h3.518v.99h-3.517v8.022c0 1.57.487 2.553 1.813 2.553.636 0 1.086-.084 1.402-.193l.148.945c-.4.166-.958.296-1.703.296-.9 0-1.648-.284-2.13-.875-.56-.647-.75-1.683-.75-2.942v-7.805h-2.083v-.99h2.083v-2.27l1.22-.45zM147.053 62.848h.162l.245.402h.158l-.265-.41c.138-.017.242-.09.242-.254 0-.185-.11-.264-.328-.264h-.354v.928h.14v-.402zm0-.12v-.288h.19c.098 0 .204.022.204.136 0 .143-.106.152-.226.152h-.167z"/><path d="M148.13 62.786c0 .5-.408.91-.91.91-.5 0-.91-.41-.91-.91 0-.502.41-.91.91-.91.502 0 .91.408.91.91zm-.91-.75c-.415 0-.75.336-.75.75 0 .413.335.746.75.746.413 0 .748-.333.748-.746 0-.414-.336-.75-.748-.75zM110.53 52.5h-.052c-.552-.91-1.768-1.606-3.456-1.606-2.966 0-5.548 2.454-5.53 6.586 0 3.79 2.333 6.302 5.278 6.302 1.78 0 3.267-.848 4.004-2.23h.055l.14 1.953h2.777c-.057-.838-.103-2.196-.103-3.46V46.44l-3.117-.895V52.5zm0 5.658c0 .327-.024.63-.095.91-.314 1.35-1.417 2.22-2.693 2.22-1.963 0-3.087-1.656-3.087-3.922 0-2.288 1.114-4.06 3.122-4.06 1.402 0 2.406.99 2.682 2.19.052.253.07.564.07.814v1.848zM121.89 50.88c-.938 0-1.78.27-2.486.707-.734.43-1.33 1.093-1.686 1.78h-.05v-5.77l-1.22-.352v16.26h1.22v-7.548c0-.5.04-.85.167-1.216.527-1.534 1.974-2.794 3.723-2.794 2.527 0 3.4 2.026 3.4 4.25v7.31h1.22V56.06c0-4.597-3.118-5.18-4.287-5.18z"/></g></g></svg>