<svg width="640" height="480" xmlns="http://www.w3.org/2000/svg"><style>.st0{fill:#FFFFFF;} .st1{fill:#CC0000;}</style><g><title>background</title><path id="canvas_background" fill="none" d="M-1-1h642v482H-1z"/></g><g><title>Layer 1</title><g stroke="null" id="svg_1"><g id="svg_2"><path d="M228.035 279.965h.908l.91 1.817h.907l-1.363-1.817c.455 0 .91-.454.91-1.362 0-.91-.455-1.363-1.364-1.363h-1.816v4.087h.454v-1.362h.455zm0-.454v-1.362h.908c.454 0 .91 0 .91.455 0 .454-.456.908-.91.908h-.908z" id="svg_3"/><path d="M233.03 279.965c0 2.27-1.816 4.087-4.087 4.087-2.27 0-4.087-1.816-4.087-4.087 0-2.27 1.817-4.087 4.087-4.087 2.27 0 4.088 1.816 4.088 4.087zm-4.087-3.633c-1.816 0-3.18 1.362-3.18 3.633 0 1.817 1.364 3.18 3.18 3.18 1.817 0 3.18-1.363 3.18-3.18 0-2.27-1.363-3.633-3.18-3.633z" id="svg_4"/><path class="st0" d="M205.782 283.144c-5.904 0-10.9.908-14.987 2.725-.454 0-.908.453-.908 1.36v.456c.454 1.362-.455 2.724-4.088 3.633-5.45 1.36-9.084 6.81-10.9 9.082-2.27 2.27-9.083 3.633-8.175 2.27.908-.908 3.633-4.087 5.45-7.72 1.816-3.18 3.18-4.087 4.995-7.266.455-.91 2.725-4.088 3.634-6.36.908-2.27.454-5.448.908-6.81.454-1.817 2.27-5.45 2.27-7.72 0-1.364-4.995 1.815-7.72 1.815s-4.996-1.36-7.266-1.815c-2.725 0-4.542 2.27-6.812 1.816-1.363 0-2.725-1.36-4.996-1.36-3.633 0-7.72 1.815-15.895 1.815-8.175-.454-15.44-9.99-16.35-11.807-1.362-1.817-2.725-1.817-4.087-.455-1.362 1.363-3.633.455-4.087-.454-.91-1.817-3.634-7.267-8.176-8.175-5.904-1.363-9.083 3.18-8.63 7.266.455 4.088 2.726 4.997 4.09 7.267 1.36 2.27 1.815 3.634 4.086 4.542 1.362.453 2.27 1.815 1.816 2.724-.454.908-1.816 1.362-3.18 1.362-2.27 0-4.086-.454-4.994-1.362-1.363-.91-2.27-2.27-3.633-4.088-1.364-2.27-3.635-3.18-5.905-3.18-1.363 0-2.27.456-3.18.91-4.087 2.27-8.628 3.18-13.624 3.18h-5.903c10.9 31.79 41.782 54.95 77.66 54.95 28.61 0 54.043-14.986 68.576-37.24-3.18-.908-6.358-1.362-9.99-1.362z" id="svg_5"/><path d="M164.908 276.786l-2.27 2.27c-1.817 1.363-4.088 0-5.45-.908-3.18-1.816-5.45-.454-5.904.91-.454 1.36 0 3.178 1.817 2.724 2.27-.455 2.27 0 4.088.908 3.18 1.817 5.45.908 6.358 0 .908-.908 1.362-1.363 1.817-2.27.908-1.817.454-3.18-.455-3.634.455 0 0 0 0 0z" id="svg_6"/><path d="M147.197 158.253c-44.96 0-81.747 36.786-81.747 81.747 0 9.083 1.362 17.712 4.087 26.34h5.904c4.997 0 9.538-1.362 13.626-3.178.908-.455 2.27-.91 3.18-.91 2.724 0 4.54.91 5.903 3.18 1.36 1.817 2.27 3.18 3.632 4.088 1.362.908 2.725 1.362 4.995 1.362.91 0 2.725-.454 3.18-1.362.454-1.363 0-2.27-1.817-2.725-2.27-.91-2.725-2.27-4.087-4.542-1.363-2.27-3.634-3.18-4.088-7.266-.454-4.087 2.725-8.63 8.63-7.266 4.54.91 7.265 6.36 8.174 8.175.453.908 2.27 2.27 4.086.454 1.362-1.363 3.18-1.363 4.087.453.91 1.363 8.175 11.354 16.35 11.808 8.174.455 12.262-1.815 15.895-1.815 2.27 0 3.633 1.362 4.996 1.362 2.27.454 4.087-1.816 6.812-1.816 2.27 0 4.54 1.363 7.266 1.363s7.72-3.18 7.72-1.817c0 2.27-1.816 5.904-2.27 7.72-.454 1.363 0 4.088-.908 6.813-.455 2.27-2.725 5.45-3.634 6.357-1.816 3.18-3.633 4.088-4.995 7.267-1.817 3.633-4.996 6.812-5.45 7.72-.908 1.363 5.45 0 8.175-2.27 1.816-1.817 5.45-7.72 10.9-9.084 3.632-.908 4.54-2.27 4.087-3.633v-.454c0-.454.454-.908.908-1.362 4.087-1.816 9.083-2.724 14.987-2.724 3.18 0 6.812.454 9.99 1.362 8.176-11.808 13.17-27.25 13.17-43.598 0-44.96-36.785-81.747-81.745-81.747z" id="svg_7"/><path class="st1" d="M193.52 218.2c-.91 2.726-1.817 6.36-7.267 8.63-.908.454-.908-.454-.908-.91 1.817-3.178 2.27-4.086 2.725-5.448.908-1.817 1.362-4.542-.454-9.992-3.18-10.9-9.537-25.886-14.08-30.428-4.54-4.54-12.715-5.903-19.98-4.087-2.726.908-8.176 3.633-17.713 1.363-17.258-3.634-19.528 4.54-20.437 8.628-.908 3.634-3.18 14.08-3.18 14.08-.907 4.086-1.815 11.807 24.525 16.802 12.263 2.27 13.172 5.45 13.626 7.72.908 4.088 2.725 6.36 4.087 7.72 1.817 1.364 0 2.272-1.817 2.272-5.45.454-24.524-4.995-36.33-11.353-9.54-5.904-9.54-10.9-7.268-15.442-14.078-1.362-24.978 1.363-26.795 8.175-3.18 11.354 25.433 31.336 58.13 40.873 34.063 10.446 69.486 3.18 73.573-18.165 1.363-9.992-6.812-17.258-20.436-20.437zm-52.68-20.89c-9.54.908-10.447 1.817-12.263 3.633-2.27 2.725-5.904-3.633-5.904-3.633-1.817-.454-4.542-3.633-3.18-6.358 1.363-2.725 3.634-2.27 4.542-1.362.908.908 2.725 2.724 5.45 2.724 2.27 0 5.45-.454 9.537-.454 4.087 0 6.812 1.363 6.812 2.725 0 1.363-.454 2.27-4.995 2.725zm20.435-9.537c-1.816 0-3.18-.454-4.54-.908 0 0-.455 0-.455-.454s0-.454.454-.454c3.18-.908 5.45-1.816 5.45-3.18 0-1.36-4.542-2.27-9.538-1.815h-1.816s-.454 0-.454-.453c1.816-.91 4.54-1.817 7.72-2.27h3.18c5.45 0 9.537 2.27 9.537 4.54 0 3.18-4.087 4.996-9.537 4.996z" id="svg_8"/></g><g id="svg_9"><path d="M270.725 244.996c0-7.72 0-13.17-.454-18.166h12.263l.454 10.445h.454c2.726-7.72 9.084-11.808 15.442-11.808 1.363 0 2.27 0 3.18.454v13.172c-1.363-.454-2.726-.454-4.088-.454-6.812 0-11.354 4.087-12.716 10.9-.454 1.362-.454 2.724-.454 4.086v29.066h-14.08v-37.694z" id="svg_10"/><path d="M319.32 259.074c.453 9.99 8.173 14.533 17.256 14.533 6.358 0 11.354-.908 15.44-2.725l2.272 9.537c-4.995 1.816-11.354 3.632-19.528 3.632-18.166 0-28.612-11.353-28.612-28.61 0-15.442 9.538-29.975 27.25-29.975 18.165 0 24.07 14.987 24.07 27.25 0 2.724-.455 4.54-.455 5.903l-37.694.454zm24.523-9.99c0-4.997-2.27-13.625-11.808-13.625-8.63 0-12.262 7.72-13.17 13.623h24.978z" id="svg_11"/><path d="M524.594 269.974c0 4.54 0 9.083.908 13.17h-4.996l-.908-8.175c-2.725 4.54-9.083 9.082-17.712 9.082-11.353 0-16.35-7.72-16.35-15.44 0-12.717 11.355-20.89 34.062-20.437v-1.363c0-5.45-.908-16.803-14.533-16.35-4.995 0-9.99 1.363-14.078 4.088l-1.817-4.087c4.996-3.633 11.354-4.996 16.35-4.996 16.35 0 19.074 12.262 19.074 22.254v22.254zm-5.45-16.804c-12.262-.454-28.157 1.363-28.157 14.987 0 8.175 5.45 11.808 11.353 11.808 9.538 0 14.533-5.904 16.804-11.354.454-1.36.454-2.27.454-3.178l-.454-12.262z" id="svg_12"/><path d="M546.847 214.568v12.262h15.895v4.54h-15.895v36.333c0 7.266 2.27 11.808 8.175 11.808 2.725 0 4.995-.453 6.358-.907l.454 4.087c-1.817.908-4.542 1.362-7.72 1.362-4.088 0-7.267-1.362-9.538-4.087-2.725-2.725-3.633-7.72-3.633-13.17V231.37h-9.537v-4.54h9.537v-10.446l5.904-1.816z" id="svg_13"/><path d="M570.01 279.965h.907l.908 1.817h.908l-1.362-1.817c.455 0 .91-.454.91-1.362 0-.91-.455-1.363-1.363-1.363H569.1v4.087h.454l.455-1.362zm0-.454v-1.362h.907c.454 0 .908 0 .908.455 0 .454-.454.908-.908.908h-.908z" id="svg_14"/><path d="M574.55 279.965c0 2.27-1.817 4.087-4.087 4.087-2.27 0-4.088-1.816-4.088-4.087 0-2.27 1.817-4.087 4.088-4.087 2.27 0 4.087 1.816 4.087 4.087zm-4.087-3.633c-1.817 0-3.18 1.362-3.18 3.18 0 1.815 1.363 3.178 3.18 3.178 1.816 0 3.18-1.363 3.18-3.18.453-1.362-1.364-3.178-3.18-3.178z" id="svg_15"/><path d="M403.79 233.188c-2.725-4.088-8.174-7.267-15.895-7.267-13.624 0-24.978 11.355-24.978 29.975 0 17.258 10.445 28.612 24.07 28.612 8.174 0 14.987-3.634 18.166-9.992h.454l.454 9.083h12.717c-.454-3.633-.454-9.99-.454-15.895v-62.218l-14.08-4.088-.453 31.79zm0 25.886c0 1.363 0 2.725-.454 4.088-1.362 5.903-6.358 9.99-12.262 9.99-9.083 0-14.078-7.72-14.078-17.71 0-10.446 4.995-18.62 14.078-18.62 6.358 0 10.9 4.54 12.262 9.99.454 1.363.454 2.725.454 3.633v8.63z" id="svg_16"/><path d="M455.563 225.92c-4.087 0-8.174 1.364-11.354 3.18-3.18 1.817-5.904 4.996-7.72 8.175v-26.34l-5.45-1.817v74.026h5.45v-34.06c0-2.272 0-3.634.907-5.45 2.27-6.813 9.083-12.717 16.804-12.717 11.354 0 15.442 9.083 15.442 19.074v33.154h5.45v-33.607c0-20.89-14.08-23.616-19.53-23.616z" id="svg_17"/></g></g></g></svg>