<svg viewBox="0 0 640 480" xmlns="http://www.w3.org/2000/svg"><g><title>Layer 1</title><g id="g10"><g id="g12"><path fill="#4f4c4c" d="M163.038 308.758l8.513-43.17c2.32-11.76-1.074-15.63-12.833-15.63h-10.614l-11.597 58.8h-13.913l11.597-58.8h-25.815l-11.597 58.8H82.865l13.777-69.846h61.815c3.01 0 5.997.146 9.004.146 18.417.428 21.4 9.32 18.005 26.53l-8.516 43.17h-13.912" id="path14"/><path fill="#4f4c4c" d="M218.17 308.758c-6.885 0-13.57-.286-18.858-4.017-8.564-6.02-9.4-18.496-7.25-29.4 4.723-23.95 19.947-36.428 43.757-36.428h20.077l-2.18 11.046h-18.07c-13.77 0-21.79 2.87-27.26 17.495h41.877l-2.148 10.902h-41.88c-1.468 7.458-.79 15.632 6.592 18.212 2.557.86 8.38 1.15 11.39 1.15h20.08l-2.178 11.04h-23.95" id="path16"/><path fill="#4f4c4c" d="M305.074 307.755c-4.355 1.003-8.658 1.003-12.96 1.003h-38.44l2.182-11.04h33.56c3.298 0 6.855.142 10.123-.435 4.76-.86 6.01-4.302 6.832-8.46.48-2.437.615-5.31-1.083-6.88-3.307-2.87-26.876.284-35.03-2.73-7.35-2.724-9.267-11.903-7.74-19.65 1.103-5.59 3.955-11.327 8.763-15.34 6.013-5.023 14.673-5.31 21.27-5.31h35.137l-2.18 11.045h-31.55c-8.32 0-14.978-1.148-17.128 9.752-1.838 9.324 4.926 8.46 12.243 8.46 5.74 0 11.332 0 17.037.145 4.994.143 10.038 0 13.004 3.87 2.995 3.73 2.783 10.613 1.792 15.635-1.67 8.462-6.2 17.637-15.834 19.935" id="path18"/><path fill="#4f4c4c" d="M377.302 297.717H354.21c-7.46 0-13.545-1.15-11.79-10.04 1.812-9.18 7.8-10.47 15.832-10.47h23.09l-4.04 20.51zm11.73 11.04l8.712-44.173c1.3-6.596 2.744-13.91-.655-19.217-4.204-6.31-13.354-6.455-20.956-6.455H340.42l-2.175 11.046h32.84c12.622 0 15.323 1.576 12.776 14.483l-.34 1.725h-24.81c-7.458 0-16.234.14-22.64 6.452-4.266 4.156-6.918 9.61-7.99 15.06-1.784 9.033.876 16.636 9.202 19.502 5.082 1.863 10.732 1.578 16.47 1.578h35.28" id="path20"/><path fill="#4f4c4c" d="M448.61 308.758l7.916-40.158c2.52-12.765.526-18.642-12.955-18.642h-16.207l-11.597 58.8h-13.914l13.777-69.846h32.273c20.505 0 26.72 7.745 22.676 28.255l-8.203 41.59H448.61" id="path22"/><path fill="none" stroke="#4f4c4c" stroke-width="1.64466" stroke-miterlimit="1" d="M557.135 213.817c0 23.67-19.187 42.86-42.858 42.86-23.67 0-42.864-19.19-42.864-42.86 0-23.673 19.193-42.86 42.864-42.86 23.67 0 42.858 19.187 42.858 42.86z" id="path24"/><path fill="#c82128" d="M550.114 213.126c0 15.805-41.9 24.99-58.43 29.002-12.98 3.158 17.524-12.5 17.524-28.303 0-15.805-30.536-31.956-17.524-28.927 12.886 3 58.43 12.428 58.43 28.228" id="path26"/></g></g></g></svg>