<svg viewBox="0 0 640 480" xmlns="http://www.w3.org/2000/svg"><g><title>background</title><path fill="none" id="canvas_background" d="M-1-1h642v482H-1z"/></g><g><title>Layer 1</title><g stroke="null" id="svg_1"><path fill="#777" id="path5056" d="M587.873 234.554v-9.422h-11.7v-14.648l-.394.12-10.99 3.363-.217.066v11.1h-17.346v-6.183c0-2.88.644-5.083 1.913-6.552 1.26-1.452 3.062-2.19 5.36-2.19 1.652 0 3.363.39 5.084 1.158l.432.192v-9.923l-.203-.074c-1.606-.576-3.79-.867-6.498-.867-3.413 0-6.514.742-9.218 2.214-2.706 1.474-4.835 3.578-6.325 6.253-1.487 2.673-2.24 5.76-2.24 9.174v6.798h-8.148v9.422h8.147v39.692h11.697v-39.692h17.346v25.224c0 10.388 4.9 15.653 14.563 15.653 1.59 0 3.26-.185 4.966-.55 1.737-.374 2.92-.748 3.617-1.147l.153-.09v-9.51l-.476.315c-.635.424-1.425.77-2.352 1.025-.93.262-1.708.394-2.31.394-2.264 0-3.94-.61-4.98-1.814-1.05-1.215-1.583-3.34-1.583-6.31v-23.19h11.7zm-86.607 31.314c-4.245 0-7.592-1.408-9.95-4.18-2.374-2.788-3.576-6.76-3.576-11.81 0-5.206 1.202-9.283 3.577-12.12 2.36-2.816 5.675-4.246 9.854-4.246 4.056 0 7.284 1.366 9.596 4.06 2.325 2.71 3.504 6.754 3.504 12.023 0 5.334-1.11 9.43-3.296 12.17-2.172 2.72-5.438 4.103-9.708 4.103m.52-41.92c-8.098 0-14.53 2.373-19.117 7.054-4.584 4.68-6.91 11.16-6.91 19.255 0 7.69 2.27 13.875 6.744 18.38 4.475 4.51 10.564 6.793 18.098 6.793 7.85 0 14.155-2.406 18.74-7.15 4.584-4.742 6.907-11.158 6.907-19.065 0-7.81-2.18-14.042-6.48-18.518-4.303-4.48-10.354-6.75-17.983-6.75m-44.883 0c-5.51 0-10.066 1.41-13.547 4.19-3.502 2.793-5.28 6.46-5.28 10.895 0 2.306.385 4.354 1.14 6.09.76 1.744 1.934 3.278 3.495 4.566 1.55 1.278 3.94 2.616 7.11 3.977 2.662 1.096 4.65 2.024 5.91 2.755 1.234.715 2.11 1.436 2.604 2.137.48.686.725 1.624.725 2.784 0 3.3-2.47 4.906-7.555 4.906-1.886 0-4.037-.394-6.394-1.17-2.357-.776-4.56-1.89-6.546-3.32l-.486-.348v11.26l.18.082c1.654.764 3.74 1.408 6.2 1.915 2.454.508 4.683.766 6.62.766 5.98 0 10.793-1.415 14.305-4.21 3.536-2.814 5.328-6.566 5.328-11.156 0-3.31-.964-6.15-2.865-8.44-1.888-2.27-5.165-4.355-9.736-6.198-3.642-1.46-5.975-2.675-6.937-3.606-.928-.9-1.4-2.172-1.4-3.783 0-1.428.582-2.573 1.776-3.5 1.202-.93 2.876-1.405 4.976-1.405 1.95 0 3.943.308 5.925.91 1.983.604 3.723 1.412 5.176 2.4l.478.327v-10.682l-.184-.08c-1.34-.574-3.107-1.065-5.253-1.464-2.138-.396-4.077-.596-5.763-.596m-49.316 41.92c-4.244 0-7.592-1.408-9.95-4.18-2.373-2.788-3.574-6.76-3.574-11.81 0-5.206 1.202-9.283 3.577-12.12 2.36-2.816 5.673-4.246 9.854-4.246 4.054 0 7.282 1.366 9.595 4.06 2.323 2.71 3.503 6.754 3.503 12.023 0 5.334-1.11 9.43-3.297 12.17-2.172 2.72-5.436 4.103-9.708 4.103m.522-41.92c-8.1 0-14.534 2.373-19.118 7.054-4.583 4.68-6.91 11.16-6.91 19.255 0 7.693 2.27 13.875 6.746 18.38 4.474 4.51 10.563 6.793 18.097 6.793 7.85 0 14.156-2.406 18.74-7.15 4.583-4.742 6.907-11.158 6.907-19.065 0-7.81-2.18-14.042-6.48-18.518-4.304-4.48-10.354-6.75-17.982-6.75m-43.78 9.69v-8.505h-11.554v49.113h11.554v-25.123c0-4.273.968-7.782 2.88-10.433 1.886-2.62 4.4-3.947 7.47-3.947 1.042 0 2.21.17 3.475.51 1.252.338 2.16.704 2.694 1.09l.484.352v-11.647l-.187-.08c-1.076-.458-2.598-.69-4.524-.69-2.903 0-5.5.934-7.726 2.77-1.953 1.615-3.366 3.83-4.445 6.59h-.122zm-32.243-9.69c-5.3 0-10.027 1.138-14.05 3.378-4.028 2.246-7.144 5.452-9.265 9.528-2.11 4.067-3.182 8.818-3.182 14.115 0 4.64 1.04 8.9 3.093 12.652 2.055 3.76 4.963 6.7 8.645 8.74 3.676 2.038 7.925 3.07 12.63 3.07 5.49 0 10.178-1.097 13.936-3.26l.152-.09v-10.583l-.485.355c-1.702 1.24-3.604 2.23-5.65 2.943-2.043.712-3.905 1.072-5.537 1.072-4.533 0-8.172-1.418-10.814-4.214-2.65-2.8-3.99-6.733-3.99-11.68 0-4.98 1.4-9.012 4.158-11.99 2.75-2.966 6.396-4.47 10.835-4.47 3.798 0 7.498 1.286 11 3.825l.483.352v-11.152l-.156-.09c-1.318-.736-3.114-1.345-5.345-1.807-2.22-.46-4.393-.692-6.458-.692m-34.454 1.184H286.08v49.113h11.553v-49.113zm-5.66-20.923c-1.9 0-3.558.646-4.92 1.93-1.37 1.286-2.063 2.905-2.063 4.816 0 1.882.686 3.47 2.04 4.724 1.347 1.248 3.01 1.88 4.944 1.88 1.934 0 3.604-.632 4.967-1.88 1.372-1.253 2.067-2.842 2.067-4.724 0-1.844-.676-3.447-2.01-4.765-1.332-1.314-3.022-1.98-5.023-1.98m-28.825 17.298v52.737h11.79v-68.532H258.62l-20.742 50.903-20.13-50.903h-16.98v68.532h11.078v-52.742h.38l21.256 52.742h8.362l20.923-52.737h.38z"/><path fill="#F35325" id="path5058" d="M106.476 237.16h-54.35v-54.348h54.35v54.348z"/><path fill="#81BC06" id="path5060" d="M166.483 237.16h-54.348v-54.348h54.348v54.348z"/><path fill="#05A6F0" id="path5062" d="M106.474 297.188H52.127V242.84h54.347v54.348z"/><path fill="#FFBA08" id="path5064" d="M166.483 297.188h-54.348V242.84h54.348v54.348z"/></g></g></svg>