<svg id="svg2" xmlns="http://www.w3.org/2000/svg" viewBox="0 0 107 59.2"><style>.st0{fill:#203B52;} .st1{fill:#079880;} .st2{fill:#A22A9A;} .st3{fill:#00A996;} .st4{fill:#EFF4F2;} .st5{fill:#1477B2;} .st6{fill:#0C8DD1;} .st7{fill:#18405E;}</style><g id="g10"><g id="g12"><path id="path14" class="st0" d="M11.975 35.087c.138.25.3.55.475.913.175.362.35.738.537 1.125.188.4.363.8.538 1.2.175.412.35.787.5 1.125.15-.35.312-.725.487-1.125.175-.412.35-.813.538-1.2.187-.4.362-.775.537-1.125.175-.362.338-.662.475-.912h1.113c.063.5.113 1.024.175 1.587.05.563.1 1.125.15 1.712.037.588.087 1.175.125 1.763.037.588.063 1.163.1 1.725h-1.212c-.025-.787-.063-1.6-.1-2.438-.038-.837-.088-1.65-.163-2.424-.075.15-.163.325-.25.537-.1.213-.2.438-.313.675-.112.25-.224.5-.337.762-.113.263-.225.513-.338.763-.112.25-.212.475-.3.688-.087.212-.175.387-.237.537h-.925c-.063-.15-.138-.337-.238-.55-.087-.212-.187-.45-.3-.687-.112-.25-.212-.5-.337-.763-.113-.262-.225-.512-.338-.75-.112-.237-.212-.462-.312-.675-.1-.212-.188-.387-.25-.537-.075.787-.125 1.587-.163 2.425-.037.837-.062 1.65-.1 2.437H10.3c.025-.562.062-1.137.1-1.737.037-.6.075-1.2.125-1.788.037-.587.087-1.162.15-1.712.05-.55.112-1.063.175-1.538l1.125-.012"/><path id="path16" class="st0" d="M20.613 38.475c0 .375.05.712.137 1.012.087.3.225.563.4.775.175.213.388.375.637.5.25.113.525.175.838.175.312 0 .587-.062.837-.175.25-.112.463-.287.638-.5.175-.212.3-.475.4-.775.087-.3.137-.637.137-1.012s-.05-.713-.137-1.013c-.088-.3-.225-.562-.4-.775-.175-.212-.388-.375-.638-.5-.25-.112-.525-.175-.837-.175-.313 0-.6.063-.838.175-.25.113-.462.288-.637.5-.175.213-.3.475-.4.775-.087.313-.137.65-.137 1.013zm5.3 0c0 .575-.088 1.087-.263 1.537-.175.45-.412.813-.7 1.113-.3.3-.65.525-1.037.675-.4.15-.825.225-1.275.225-.45 0-.875-.075-1.275-.225-.4-.15-.75-.375-1.05-.675-.3-.3-.538-.663-.713-1.113-.175-.45-.262-.962-.262-1.537s.087-1.088.262-1.538c.175-.437.413-.812.725-1.112.3-.3.65-.525 1.05-.675.4-.15.825-.225 1.263-.225.45 0 .862.075 1.262.225.4.15.75.375 1.038.675.3.3.537.675.712 1.112.175.45.263.963.263 1.538"/><path id="path18" class="st0" d="M29.225 38.825v2.062c.138.013.287.025.438.025.162.013.3.013.425.013.25 0 .487-.013.712-.05.212-.037.412-.087.563-.175.162-.087.287-.188.387-.325.1-.138.138-.313.138-.525 0-.388-.138-.65-.426-.8-.275-.15-.675-.225-1.162-.225h-1.075zm0-.975h.875c.475 0 .838-.063 1.113-.2.262-.138.4-.375.4-.725 0-.325-.138-.563-.413-.7-.275-.138-.637-.2-1.087-.2-.188 0-.363 0-.5.012-.15.013-.275.013-.375.025-.013.013-.013 1.788-.013 1.788zm.837 4.112c-.362 0-.725-.012-1.087-.037-.362-.025-.688-.075-.963-.138V35.2c.138-.025.3-.05.463-.075.163-.025.325-.038.5-.05.175-.013.338-.025.5-.025.163-.013.325-.013.475-.013.413 0 .788.025 1.15.088.35.062.662.162.912.312.263.15.463.338.6.563.138.237.213.525.213.875 0 .325-.075.6-.225.825-.15.225-.362.412-.637.55.412.137.712.337.912.612.2.263.3.613.3 1.013 0 .7-.25 1.225-.762 1.575-.525.337-1.3.512-2.35.512"/><path id="path20" class="st0" d="M35.663 41.875H36.9v-6.787h-1.238v6.787z"/><path id="path22" class="st0" d="M44.063 40.813v1.062h-4.288v-6.787h1.238v5.724h3.05"/><path id="path24" class="st0" d="M46.175 41.875v-6.787h4.362v1.05h-3.125v1.674h2.775v1.025h-2.775v1.988h3.363v1.05h-4.6"/><path id="path26" class="st0" d="M58.013 35.087c.137.25.3.55.475.913.175.362.35.738.537 1.125.188.4.363.8.538 1.2.175.412.35.787.5 1.125.15-.35.312-.725.487-1.125.175-.412.35-.813.538-1.2.187-.4.362-.775.537-1.125.175-.362.338-.662.475-.912h1.113c.062.5.112 1.024.175 1.587.05.563.1 1.125.15 1.712.037.588.087 1.175.125 1.763.037.588.062 1.163.1 1.725H62.55c-.025-.787-.062-1.6-.1-2.438-.037-.837-.087-1.65-.163-2.424-.074.15-.162.325-.25.537-.1.213-.2.438-.312.675-.113.25-.225.5-.338.762-.112.263-.224.513-.337.763-.112.25-.212.475-.3.688-.087.212-.175.387-.237.537h-.925c-.063-.15-.138-.337-.238-.55-.087-.212-.187-.45-.3-.687-.112-.25-.225-.5-.337-.763-.113-.262-.225-.512-.338-.75-.112-.237-.212-.462-.312-.675-.1-.212-.188-.387-.25-.537-.075.787-.125 1.587-.163 2.425-.037.837-.062 1.65-.1 2.437h-1.212c.025-.562.062-1.137.1-1.737.037-.6.075-1.2.125-1.788.037-.587.087-1.162.15-1.712.05-.55.112-1.063.175-1.538l1.125-.012"/><path id="path28" class="st0" d="M65.912 41.875v-6.787h4.363v1.05H67.15v1.674h2.775v1.025H67.15v1.988h3.362v1.05h-4.6"/><path id="path30" class="st0" d="M72.65 41.875v-6.787h4.362v1.05H73.89v1.674h2.774v1.025H73.89v1.988h3.362v1.05h-4.6"/><path id="path32" class="st0" d="M84.338 35.087v1.063H82.25v5.725H81V36.15h-2.087v-1.063h5.425"/><path id="path34" class="st0" d="M88.875 42.025c-.463 0-.863-.063-1.2-.2-.338-.138-.613-.325-.825-.563-.212-.237-.375-.525-.487-.85-.1-.325-.163-.687-.163-1.075V35.1h1.238v4.125c0 .312.037.575.1.787.062.225.162.4.3.538.124.138.274.237.45.3.174.062.362.1.587.1.212 0 .412-.038.588-.1.175-.063.325-.163.45-.3.125-.138.225-.313.3-.537.062-.213.1-.488.1-.788V35.1h1.237v4.237c0 .388-.05.75-.163 1.075s-.274.613-.487.85c-.225.238-.5.425-.838.563-.325.137-.724.2-1.187.2"/><path id="path36" class="st0" d="M95.8 36.087c-.313 0-.575.013-.775.025v2.313h.6c.6 0 1.05-.087 1.375-.25.325-.163.475-.487.475-.95 0-.225-.038-.413-.125-.563-.088-.15-.2-.262-.35-.35-.15-.087-.325-.15-.538-.175-.212-.025-.425-.05-.662-.05zm-.087-1.062c.987 0 1.737.175 2.262.537.525.363.788.926.788 1.688 0 .4-.076.738-.213 1.025-.138.287-.35.512-.613.7-.262.175-.6.313-.974.4-.388.087-.825.125-1.325.125h-.613v2.388h-1.238V35.2c.288-.063.6-.113.95-.138.363-.024.675-.037.976-.037"/><path id="path38" class="st1" d="M53.737 22.45l-5.412 5.412c1.912 1.15 4.15 1.813 6.55 1.813 1.8 0 3.5-.375 5.05-1.038l-6.188-6.187"/><path id="path40" class="st2" d="M61.4 15.462c-.438 0-.85.175-1.15.475l-.85.85 6.5 6.513c.512-.875.912-1.825 1.2-2.813l-4.55-4.55c-.313-.3-.725-.475-1.15-.475"/><path id="path42" class="st3" d="M50.538 19.775c-.338 0-.638.125-.875.362l-4.738 4.738c.6.75 1.288 1.438 2.038 2.038l5.612-5.613-1.163-1.163c-.224-.237-.537-.362-.874-.362"/><path id="path44" class="st4" d="M47.862 13.05c1.038-1.038 2.425-1.613 3.888-1.613 1.475 0 2.85.575 3.888 1.613l2.587 2.587.85-.85c.613-.612 1.438-.95 2.3-.95.875 0 1.688.338 2.3.95l3.788 3.788c.062-.525.1-1.075.1-1.613 0-7.025-5.7-12.725-12.726-12.725-7.025 0-12.725 5.7-12.725 12.725 0 .575.038 1.138.113 1.688l5.637-5.6"/><path id="path46" class="st5" d="M54.313 21.875l6.387 6.388c1.438-.738 2.712-1.738 3.763-2.95l-6.8-6.8-3.35 3.362"/><path id="path48" class="st6" d="M51.75 13.887c-.813 0-1.587.313-2.163.9l-6.637 6.638c.375 1 .875 1.937 1.475 2.812l4.662-4.662c.388-.388.9-.6 1.45-.6.55 0 1.063.212 1.45.6l1.163 1.162 3.35-3.35-2.587-2.587c-.575-.6-1.338-.913-2.163-.913"/><path id="path50" class="st7" d="M48.013 50.512c0 .313.037.588.112.838.075.25.188.462.338.637.137.175.324.313.524.4.213.1.438.138.7.138.263 0 .488-.05.688-.138.2-.1.375-.225.525-.4.138-.175.25-.387.338-.637.074-.25.112-.525.112-.838 0-.312-.038-.587-.113-.837-.075-.25-.187-.463-.337-.637-.138-.176-.313-.313-.525-.4-.2-.1-.438-.138-.688-.138-.262 0-.487.05-.7.137-.212.1-.387.225-.525.4-.137.175-.25.388-.337.638-.075.25-.112.525-.112.838zm-.738 0c0-.437.063-.812.188-1.15.124-.325.3-.612.524-.825.225-.225.475-.387.775-.5.3-.112.613-.162.938-.162.325 0 .637.05.925.162.287.113.537.275.762.5.225.225.388.5.525.825.125.325.188.713.188 1.15 0 .438-.063.813-.188 1.15-.125.338-.3.613-.525.825-.225.225-.475.388-.762.5-.288.113-.6.163-.925.163-.338 0-.638-.05-.938-.163-.3-.112-.55-.275-.775-.5-.225-.225-.4-.5-.525-.825-.125-.337-.187-.725-.187-1.15"/><path id="path52" class="st7" d="M54 52.55c.275 0 .487-.037.613-.113.137-.074.2-.187.2-.35 0-.162-.063-.3-.2-.4-.126-.1-.35-.212-.65-.324-.15-.063-.288-.113-.426-.176-.137-.062-.25-.137-.35-.212-.1-.087-.174-.188-.237-.3-.063-.112-.087-.262-.087-.425 0-.337.125-.6.375-.8.25-.2.587-.3 1.012-.3.113 0 .213 0 .325.013.113.012.213.025.3.05.088.012.175.037.25.05.075.025.125.037.163.05l-.125.587c-.075-.037-.188-.075-.338-.125-.15-.037-.337-.062-.562-.062-.188 0-.35.037-.5.112-.138.075-.213.188-.213.35 0 .088.013.15.05.225.038.063.075.125.15.175.063.05.15.1.25.138.1.05.213.087.35.137.175.063.338.138.488.2.137.063.262.138.362.225.1.088.175.188.225.313.05.125.075.275.075.45 0 .35-.125.612-.387.8-.263.175-.625.275-1.113.275-.337 0-.6-.025-.787-.088-.188-.05-.325-.1-.388-.125l.125-.587c.075.025.2.075.375.137.162.075.387.1.675.1"/><path id="path54" class="st7" d="M57.5 53.112c-.412-.012-.713-.1-.887-.275-.176-.175-.263-.437-.263-.8v-4.55l.675-.112v4.563c0 .112.012.2.025.275.025.075.05.137.1.175.037.05.1.075.175.1.075.025.162.037.275.05l-.1.575"/><path id="path56" class="st7" d="M61 51.137c0-.425-.1-.762-.287-1.025-.188-.25-.45-.375-.788-.375s-.588.125-.787.375c-.188.25-.288.588-.288 1.025 0 .425.1.763.287 1.013.188.25.45.375.788.375s.588-.125.787-.375c.2-.238.288-.575.288-1.013zm.712 0c0 .3-.05.575-.137.813-.088.237-.213.45-.375.625-.163.175-.35.312-.563.4-.225.1-.462.137-.712.137-.263 0-.5-.05-.713-.137-.225-.1-.412-.225-.562-.4-.163-.175-.287-.388-.375-.625-.087-.238-.138-.513-.138-.813 0-.3.05-.562.138-.812.087-.25.212-.45.375-.638.163-.175.35-.312.563-.4.224-.1.462-.137.712-.137.263 0 .5.05.713.137.224.1.412.225.562.4.162.175.287.388.375.638.087.25.137.525.137.812"/><path id="path58" class="st0" d="M10.338 45.175H98.65v-.512H10.337v.512z"/></g></g></svg>