<svg xmlns="http://www.w3.org/2000/svg" viewBox="0 0 107.0375 59.174999" height="59.175" width="107.037" id="svg2"><g id="g10"><g id="g12"><path id="path14" d="M2.02 37.324c.174.3.368.668.58 1.102.214.434.43.89.653 1.37.22.477.44.963.657 1.456l.6 1.37.59-1.37c.214-.493.432-.98.653-1.457.22-.478.438-.934.652-1.37.213-.433.407-.8.58-1.1H8.33c.073.6.14 1.237.206 1.912.064.676.122 1.368.174 2.074.053.71.1 1.42.145 2.134.044.715.083 1.413.115 2.092H7.5c-.03-.956-.07-1.94-.114-2.95-.044-1.012-.11-1.992-.2-2.94l-.308.652c-.118.254-.244.527-.378.824-.135.296-.27.602-.41.918l-.402.92-.362.828-.284.658H3.928c-.08-.182-.174-.403-.284-.664-.11-.26-.23-.54-.362-.835l-.403-.918c-.14-.317-.275-.622-.41-.914-.134-.292-.26-.567-.38-.823-.117-.257-.22-.472-.307-.646-.088.947-.155 1.927-.2 2.938-.043 1.01-.082 1.995-.114 2.95H0c.032-.678.07-1.382.115-2.11.044-.725.092-1.446.144-2.16.052-.716.11-1.41.175-2.08.064-.672.132-1.292.205-1.86h1.38" fill="#203b52"/><path id="path16" d="M12.473 41.424c0 .45.055.86.165 1.227.11.368.27.68.48.937.21.256.465.456.764.598.3.142.64.213 1.02.213.37 0 .706-.07 1.007-.213.3-.142.554-.342.763-.598.21-.257.37-.57.48-.936.11-.367.166-.776.166-1.226 0-.45-.056-.86-.167-1.226-.11-.368-.27-.68-.48-.937-.21-.255-.464-.455-.764-.597-.302-.142-.637-.213-1.008-.213-.38 0-.72.07-1.02.213-.3.142-.554.343-.764.604-.21.26-.37.573-.48.936-.11.364-.165.77-.165 1.22zm6.41 0c0 .703-.105 1.323-.314 1.86-.21.537-.495.986-.854 1.346-.36.36-.78.63-1.262.81-.482.183-.996.274-1.54.274-.546 0-1.06-.09-1.547-.273-.486-.18-.91-.45-1.268-.81-.36-.36-.647-.81-.86-1.346-.213-.537-.32-1.157-.32-1.86 0-.703.107-1.32.32-1.855.213-.534.504-.982.87-1.345.37-.364.793-.636 1.275-.818.482-.182.99-.273 1.53-.273.536 0 1.045.09 1.527.273.482.182.903.454 1.262.818.36.363.646.81.86 1.344.212.533.32 1.15.32 1.854" fill="#203b52"/><path id="path18" d="M22.89 41.84v2.5c.165.015.342.027.532.035.19.007.363.01.52.01.31 0 .596-.018.86-.058.265-.04.494-.108.688-.207.193-.1.347-.23.462-.397.114-.166.172-.38.172-.64 0-.466-.17-.79-.51-.972-.34-.18-.81-.27-1.41-.27H22.89zm0-1.174h1.053c.57 0 1.015-.08 1.34-.243.323-.162.485-.453.485-.87 0-.396-.168-.677-.503-.842-.336-.165-.773-.248-1.31-.248-.23 0-.432.003-.61.01-.177.01-.33.02-.456.037v2.156zm1.006 4.965c-.435 0-.873-.013-1.315-.04-.442-.03-.828-.085-1.16-.173v-7.974c.173-.032.36-.062.557-.09.197-.027.4-.05.604-.064.206-.017.41-.03.61-.037.203-.008.394-.012.576-.012.497 0 .96.038 1.386.114.427.075.796.2 1.108.373.312.174.555.403.73.687.173.284.26.636.26 1.055 0 .386-.093.718-.28.994-.185.277-.443.498-.775.664.497.166.865.41 1.102.734.237.325.355.735.355 1.233 0 .845-.308 1.48-.924 1.902-.616.422-1.56.634-2.832.634" fill="#203b52"/><path id="path20" d="M30.673 45.536h1.493v-8.212h-1.493v8.212z" fill="#203b52"/><path id="path22" d="M40.836 44.244v1.292h-5.19v-8.212h1.493v6.92h3.696" fill="#203b52"/><path id="path24" d="M43.398 45.536v-8.212h5.273v1.268h-3.78v2.026h3.366v1.244H44.89v2.406h4.066v1.268h-5.558" fill="#203b52"/><path id="path26" d="M57.726 37.324c.174.3.367.668.58 1.102.214.434.43.89.653 1.37.22.477.44.963.656 1.456.218.494.417.95.6 1.37l.59-1.37c.215-.493.432-.98.653-1.457.22-.478.437-.934.65-1.37.214-.433.408-.8.58-1.1h1.347c.072.6.14 1.237.205 1.912.064.676.122 1.368.174 2.074.052.71.1 1.42.145 2.134.045.715.083 1.413.116 2.092h-1.47c-.032-.956-.07-1.94-.114-2.95-.045-1.012-.11-1.992-.2-2.94l-.308.652-.38.824c-.133.296-.27.602-.408.918l-.403.92c-.13.295-.25.572-.36.828l-.285.658h-1.114c-.08-.182-.174-.403-.284-.664-.11-.26-.23-.54-.362-.835l-.403-.918c-.138-.317-.275-.622-.41-.914-.133-.292-.26-.567-.378-.823-.118-.257-.22-.472-.308-.646-.09.947-.156 1.927-.2 2.938-.044 1.01-.083 1.995-.115 2.95h-1.47c.033-.678.07-1.38.115-2.108.045-.727.093-1.448.145-2.163.053-.715.11-1.408.175-2.08.065-.67.133-1.29.205-1.86h1.38" fill="#203b52"/><path id="path28" d="M67.285 45.536v-8.212h5.273v1.268h-3.78v2.026h3.365v1.244h-3.365v2.406h4.065v1.268h-5.558" fill="#203b52"/><path id="path30" d="M75.436 45.536v-8.212h5.273v1.268h-3.78v2.026h3.364v1.244H76.93v2.406h4.063v1.268h-5.557" fill="#203b52"/><path id="path32" d="M89.572 37.324v1.292h-2.524v6.92h-1.505v-6.92h-2.525v-1.292h6.554" fill="#203b52"/><path id="path34" d="M95.058 45.714c-.56 0-1.043-.082-1.446-.243-.402-.16-.736-.388-1-.68-.266-.293-.462-.637-.588-1.032-.126-.395-.19-.83-.19-1.303v-5.13h1.506v4.988c0 .37.04.69.124.954.083.264.202.48.356.645.154.166.335.29.545.368.21.08.444.118.705.118.26 0 .497-.04.71-.118.214-.08.398-.202.55-.368.156-.165.274-.38.357-.645.083-.265.124-.583.124-.954v-4.99h1.506v5.132c0 .474-.065.91-.195 1.304s-.327.737-.592 1.03c-.264.292-.602.52-1.013.68-.41.163-.896.244-1.457.244" fill="#203b52"/><path id="path36" d="M103.445 38.533c-.38 0-.69.012-.936.035v2.797h.722c.72 0 1.272-.1 1.66-.302.386-.202.58-.583.58-1.144 0-.27-.052-.495-.155-.676-.102-.182-.245-.324-.426-.427-.18-.102-.396-.176-.645-.22-.25-.043-.516-.064-.8-.064zm-.106-1.292c1.19 0 2.106.22 2.74.653.638.434.956 1.113.956 2.038 0 .483-.085.895-.255 1.24-.17.343-.416.624-.74.84-.324.218-.72.378-1.185.48-.466.103-1 .155-1.6.155h-.746v2.89h-1.494v-8.092c.348-.08.732-.133 1.155-.16.424-.028.813-.042 1.17-.042" fill="#203b52"/><path id="path38" d="M52.544 22.03l-6.55 6.55c2.316 1.393 5.027 2.196 7.926 2.196 2.17 0 4.235-.45 6.107-1.262l-7.483-7.484" fill="#079880"/><path id="path40" d="M61.813 13.576c-.525 0-1.02.205-1.393.577l-1.034 1.035 7.872 7.873c.613-1.06 1.102-2.203 1.45-3.406l-5.5-5.5c-.374-.373-.868-.578-1.394-.578" fill="#a22a9a"/><path id="path42" d="M48.684 18.792c-.4 0-.777.155-1.06.44l-5.74 5.738c.727.912 1.555 1.74 2.468 2.466l6.798-6.8-1.406-1.405c-.284-.283-.66-.438-1.06-.438" fill="#00a996"/><path id="path44" d="M45.442 10.66c1.258-1.26 2.93-1.95 4.708-1.95s3.45.69 4.707 1.95l3.136 3.135 1.034-1.035c.745-.744 1.734-1.153 2.786-1.153 1.053 0 2.042.41 2.786 1.153l4.583 4.584c.08-.642.127-1.294.127-1.958 0-8.5-6.89-15.39-15.39-15.39s-15.39 6.89-15.39 15.39c0 .694.05 1.376.14 2.045l6.772-6.77" fill="#eff4f2"/><path id="path46" d="M53.24 21.334l7.73 7.73c1.735-.894 3.276-2.11 4.547-3.566l-8.22-8.22-4.057 4.056" fill="#1477b2"/><path id="path48" d="M50.15 11.664c-.99 0-1.92.385-2.618 1.084l-8.03 8.03c.455 1.21 1.058 2.35 1.787 3.395l5.637-5.64c.47-.468 1.093-.726 1.757-.726.664 0 1.287.258 1.756.727l1.407 1.407 4.057-4.056-3.136-3.136c-.7-.7-1.63-1.084-2.618-1.084" fill="#0c8dd1"/><path id="path50" d="M45.624 55.977c0 .37.048.708.142 1.01.094.305.228.563.402.774.174.214.386.377.636.492.25.115.53.172.844.172.312 0 .592-.057.84-.172.246-.115.457-.278.63-.49.174-.212.308-.47.403-.774.095-.303.142-.64.142-1.01 0-.372-.047-.71-.14-1.012-.096-.304-.23-.562-.403-.773-.175-.213-.386-.376-.633-.49-.247-.116-.527-.173-.84-.173-.312 0-.593.057-.843.172-.25.115-.462.278-.636.49-.174.212-.308.47-.402.774-.094.303-.142.64-.142 1.01zm-.9 0c0-.524.077-.987.234-1.387.156-.4.368-.735.636-1.003.268-.267.58-.47.936-.605.357-.136.735-.203 1.135-.203.395 0 .768.066 1.118.202.35.136.658.338.923.605.265.268.476.603.632 1.003.156.4.234.863.234 1.387s-.078.987-.234 1.387c-.156.4-.367.735-.632 1.003-.265.268-.573.47-.923.605-.35.135-.723.203-1.117.203-.4 0-.78-.068-1.136-.203-.356-.135-.668-.337-.936-.605-.268-.268-.48-.602-.637-1.003-.156-.4-.233-.863-.233-1.387" fill="#18405e"/><path id="path52" d="M52.86 58.45c.336 0 .584-.044.747-.132.162-.088.243-.23.243-.424 0-.2-.08-.36-.24-.477-.158-.118-.42-.25-.785-.397-.177-.07-.347-.143-.508-.217-.162-.073-.302-.16-.42-.26s-.212-.222-.283-.363c-.07-.14-.106-.315-.106-.52 0-.407.15-.73.45-.968.3-.24.71-.358 1.23-.358.128 0 .258.007.388.022s.25.032.362.053c.112.02.21.042.296.065.085.024.15.044.2.062l-.152.707c-.088-.047-.226-.096-.415-.146-.188-.05-.415-.075-.68-.075-.23 0-.43.046-.6.137-.172.09-.257.234-.257.428 0 .1.02.19.057.265.04.077.098.146.177.208.08.063.178.12.296.173.118.053.26.11.424.168.218.084.412.165.583.244.17.08.317.172.438.278.12.107.213.234.278.385.065.15.097.334.097.552 0 .423-.157.744-.473.962-.315.218-.764.327-1.347.327-.406 0-.724-.036-.954-.103-.23-.068-.386-.12-.468-.155l.15-.707c.094.036.244.09.45.16.207.07.48.106.822.106" fill="#18405e"/><path id="path54" d="M57.11 59.13c-.507-.01-.866-.12-1.078-.326-.212-.206-.318-.527-.318-.963V52.33l.82-.14v5.52c0 .136.013.248.037.336.024.09.062.16.116.212.052.053.123.093.212.12.088.026.197.048.327.066l-.116.69" fill="#18405e"/><path id="path56" d="M61.34 56.746c0-.518-.115-.93-.348-1.233-.233-.303-.55-.455-.95-.455-.4 0-.717.152-.95.455-.232.304-.348.715-.348 1.233 0 .518.116.93.35 1.232.23.303.548.455.95.455.4 0 .715-.152.948-.455.233-.303.35-.714.35-1.232zm.858 0c0 .365-.053.695-.16.99-.105.293-.254.547-.445.76-.192.21-.42.374-.685.49-.265.114-.554.17-.866.17-.312 0-.6-.056-.865-.17-.265-.116-.493-.28-.685-.49-.192-.213-.34-.467-.446-.76-.106-.295-.16-.625-.16-.99 0-.36.054-.688.16-.986.106-.297.254-.55.446-.764.192-.212.42-.375.685-.49.265-.115.553-.172.865-.172.312 0 .6.057.866.172.265.115.493.278.685.49.19.213.34.467.446.764.105.298.158.626.158.986" fill="#18405e"/><path id="path58" d="M.035 49.525h106.852v-.62H.035v.62z" fill="#203b52"/></g></g></svg>