<svg viewBox="0 0 640 480" xmlns="http://www.w3.org/2000/svg"><style>.st0{fill:#203B52;} .st1{fill:#079880;} .st2{fill:#A22A9A;} .st3{fill:#00A996;} .st4{fill:#EFF4F2;} .st5{fill:#1477B2;} .st6{fill:#0C8DD1;} .st7{fill:#18405E;}</style><g><title>Layer 1</title><g id="g10"><g id="g12"><path d="M126.73 269.038c.623 1.135 1.36 2.497 2.156 4.144.795 1.646 1.59 3.35 2.44 5.11.853 1.816 1.647 3.632 2.442 5.45.795 1.872 1.59 3.575 2.27 5.108.682-1.59 1.42-3.293 2.215-5.11.795-1.873 1.59-3.69 2.44-5.45.853-1.816 1.647-3.52 2.442-5.108.795-1.647 1.533-3.01 2.157-4.144h5.053c.284 2.27.51 4.655.795 7.21.227 2.554.454 5.108.68 7.777.17 2.668.398 5.336.57 8.004.17 2.667.282 5.28.453 7.833h-5.507c-.113-3.576-.284-7.266-.454-11.07-.17-3.803-.397-7.493-.738-11.013-.34.68-.738 1.476-1.135 2.44-.456.966-.91 1.988-1.42 3.067-.512 1.135-1.023 2.27-1.533 3.463-.51 1.192-1.022 2.327-1.533 3.462-.51 1.136-.965 2.158-1.363 3.123-.396.965-.794 1.76-1.077 2.44h-4.2c-.285-.68-.626-1.532-1.08-2.497-.397-.965-.85-2.044-1.362-3.122-.51-1.136-.964-2.27-1.532-3.463-.51-1.192-1.022-2.328-1.533-3.406-.51-1.08-.965-2.1-1.42-3.066-.453-.964-.85-1.76-1.135-2.44-.34 3.576-.567 7.21-.738 11.013-.17 3.804-.283 7.494-.454 11.07h-5.506c.113-2.554.284-5.166.454-7.89.17-2.726.34-5.45.568-8.12.17-2.667.397-5.278.68-7.776.228-2.498.512-4.825.796-6.983l5.11-.056" class="st0" id="path14"/><path d="M165.956 284.422c0 1.703.227 3.236.625 4.598.398 1.363 1.023 2.555 1.817 3.52.795.965 1.76 1.703 2.896 2.27 1.135.512 2.384.796 3.803.796 1.42 0 2.668-.284 3.804-.795 1.135-.51 2.1-1.305 2.895-2.27.795-.965 1.363-2.157 1.817-3.52.397-1.362.624-2.895.624-4.598 0-1.703-.227-3.236-.624-4.598-.398-1.363-1.022-2.555-1.817-3.52-.795-.965-1.76-1.703-2.895-2.27-1.136-.512-2.385-.796-3.804-.796-1.42 0-2.725.284-3.803.795-1.136.51-2.1 1.306-2.896 2.27-.794.966-1.362 2.158-1.816 3.52-.397 1.42-.624 2.953-.624 4.6zm24.07 0c0 2.61-.397 4.94-1.192 6.983-.794 2.043-1.873 3.69-3.18 5.052-1.36 1.363-2.95 2.384-4.71 3.066-1.817.68-3.747 1.022-5.79 1.022-2.045 0-3.975-.34-5.79-1.022-1.818-.682-3.408-1.703-4.77-3.066-1.363-1.362-2.44-3.01-3.236-5.052-.795-2.044-1.192-4.372-1.192-6.983 0-2.61.397-4.94 1.192-6.983.795-1.988 1.873-3.69 3.293-5.053 1.363-1.363 2.953-2.384 4.77-3.066 1.816-.68 3.746-1.02 5.733-1.02 2.044 0 3.917.34 5.734 1.02 1.816.683 3.406 1.704 4.712 3.067 1.36 1.362 2.44 3.065 3.234 5.052.795 2.043 1.193 4.37 1.193 6.982" class="st0" id="path16"/><path d="M205.07 286.012v9.367c.625.055 1.306.112 1.987.112.738.057 1.363.057 1.93.057 1.136 0 2.215-.058 3.236-.228.965-.17 1.874-.398 2.555-.795.738-.397 1.306-.852 1.76-1.476.454-.624.624-1.418.624-2.383 0-1.76-.624-2.952-1.93-3.634-1.25-.68-3.065-1.02-5.28-1.02h-4.882zm0-4.428h3.974c2.158 0 3.804-.284 5.053-.91 1.192-.623 1.816-1.702 1.816-3.29 0-1.477-.624-2.556-1.873-3.18-1.25-.625-2.895-.91-4.94-.91-.85 0-1.645 0-2.27.058-.68.057-1.25.057-1.703.114-.057.056-.057 8.118-.057 8.118zm3.804 18.677c-1.646 0-3.293-.056-4.94-.17-1.645-.113-3.12-.34-4.37-.624v-29.918c.624-.113 1.362-.227 2.1-.34.738-.114 1.476-.17 2.27-.227.796-.056 1.534-.113 2.272-.113.738-.057 1.476-.057 2.157-.057 1.873 0 3.577.114 5.223.398 1.59.284 3.01.738 4.144 1.42 1.192.68 2.1 1.532 2.725 2.554.624 1.078.965 2.384.965 3.974 0 1.476-.34 2.724-1.022 3.746-.68 1.022-1.646 1.874-2.895 2.498 1.873.625 3.236 1.533 4.144 2.782.908 1.192 1.363 2.782 1.363 4.598 0 3.18-1.136 5.564-3.463 7.153-2.385 1.533-5.904 2.328-10.673 2.328" class="st0" id="path18"/><path d="M234.307 299.863h5.62v-30.825h-5.62v30.825z" class="st0" id="path20"/><path d="M272.456 295.038v4.825h-19.472v-30.825h5.62v26h13.852" class="st0" id="path22"/><path d="M282.05 299.863v-30.825h19.812v4.768H287.67v7.607h12.603v4.655H287.67v9.027h15.27v4.768h-20.89" class="st0" id="path24"/><path d="M335.81 269.038c.625 1.135 1.363 2.497 2.158 4.144.794 1.646 1.59 3.35 2.44 5.11.852 1.816 1.647 3.632 2.442 5.45.794 1.872 1.59 3.575 2.27 5.108.682-1.59 1.42-3.293 2.214-5.11.795-1.873 1.59-3.69 2.442-5.45.85-1.816 1.646-3.52 2.44-5.108.795-1.647 1.533-3.01 2.158-4.144h5.052c.284 2.27.51 4.655.795 7.21.228 2.554.455 5.108.682 7.777.17 2.668.398 5.336.568 8.004.17 2.667.284 5.28.454 7.833h-5.506c-.114-3.576-.284-7.266-.455-11.07-.17-3.803-.397-7.493-.738-11.013-.34.68-.738 1.476-1.135 2.44-.454.966-.908 1.988-1.42 3.067-.51 1.135-1.02 2.27-1.532 3.463-.51 1.192-1.022 2.327-1.533 3.462-.51 1.136-.965 2.158-1.362 3.123-.398.965-.795 1.76-1.08 2.44h-4.2c-.284-.68-.624-1.532-1.078-2.497-.398-.965-.852-2.044-1.363-3.122-.51-1.136-1.022-2.27-1.533-3.463-.512-1.192-1.022-2.328-1.533-3.406-.51-1.08-.966-2.1-1.42-3.066-.454-.964-.85-1.76-1.135-2.44-.34 3.576-.568 7.21-.738 11.013-.17 3.804-.284 7.494-.454 11.07h-5.507c.114-2.554.284-5.166.454-7.89.17-2.726.34-5.45.568-8.12.17-2.667.397-5.278.68-7.776.228-2.498.512-4.825.796-6.983l5.11-.056" class="st0" id="path26"/><path d="M371.688 299.863v-30.825H391.5v4.768h-14.19v7.607h12.6v4.655h-12.6v9.027h15.27v4.768h-20.892" class="st0" id="path28"/><path d="M402.287 299.863v-30.825H422.1v4.768h-14.193v7.607h12.603v4.655h-12.603v9.027h15.27v4.768h-20.89" class="st0" id="path30"/><path d="M455.367 269.038v4.825h-9.48v26h-5.678v-26h-9.48v-4.825h24.637" class="st0" id="path32"/><path d="M475.974 300.545c-2.1 0-3.917-.284-5.45-.91-1.533-.623-2.782-1.475-3.747-2.553-.965-1.08-1.703-2.385-2.214-3.86-.454-1.477-.738-3.123-.738-4.883v-19.246h5.62v18.734c0 1.42.17 2.612.454 3.577.283 1.02.737 1.816 1.362 2.44.568.625 1.25 1.08 2.044 1.363.794.284 1.646.454 2.668.454.965 0 1.873-.17 2.668-.454.795-.284 1.476-.738 2.044-1.362.567-.625 1.02-1.42 1.362-2.44.284-.966.454-2.215.454-3.578v-18.734h5.62v19.245c0 1.76-.227 3.405-.738 4.88s-1.25 2.783-2.214 3.862c-1.02 1.078-2.27 1.93-3.803 2.554-1.476.625-3.293.91-5.393.91" class="st0" id="path34"/><path d="M507.424 273.58c-1.42 0-2.61.056-3.52.113v10.502h2.725c2.724 0 4.768-.397 6.244-1.135s2.157-2.214 2.157-4.315c0-1.022-.17-1.873-.567-2.555-.397-.68-.908-1.192-1.59-1.59-.68-.396-1.475-.68-2.44-.794-.965-.113-1.93-.227-3.01-.227zm-.397-4.826c4.484 0 7.89.794 10.275 2.44 2.384 1.647 3.576 4.202 3.576 7.665 0 1.815-.34 3.348-.965 4.654-.624 1.305-1.59 2.327-2.78 3.18-1.194.794-2.726 1.418-4.43 1.815-1.76.397-3.746.567-6.017.567h-2.782v10.843h-5.62v-30.372c1.306-.283 2.725-.51 4.315-.624 1.645-.114 3.064-.17 4.427-.17" class="st0" id="path36"/><path d="M316.395 211.644l-24.58 24.58c8.685 5.224 18.846 8.232 29.746 8.232 8.176 0 15.897-1.703 22.936-4.71l-28.1-28.102" class="st1" id="path38"/><path d="M351.195 179.91c-1.987 0-3.86.794-5.223 2.157l-3.86 3.86 29.52 29.577c2.327-3.974 4.144-8.288 5.45-12.773l-20.664-20.663c-1.42-1.363-3.293-2.157-5.223-2.157" class="st2" id="path40"/><path d="M301.862 199.495c-1.533 0-2.895.568-3.974 1.646l-21.515 21.517c2.725 3.406 5.847 6.528 9.253 9.253l25.49-25.49-5.28-5.28c-1.022-1.077-2.44-1.645-3.974-1.645" class="st3" id="path42"/><path d="M289.714 168.953c4.71-4.712 11.013-7.323 17.655-7.323 6.698 0 12.942 2.61 17.654 7.323l11.75 11.75 3.862-3.86c2.78-2.78 6.528-4.313 10.445-4.313 3.975 0 7.665 1.532 10.447 4.314l17.2 17.2c.285-2.383.455-4.88.455-7.322 0-31.904-25.887-57.79-57.79-57.79-31.906 0-57.792 25.886-57.792 57.79 0 2.61.17 5.166.51 7.664l25.604-25.433" class="st4" id="path44"/><path d="M319.007 209.032l29.01 29.01c6.527-3.35 12.318-7.89 17.086-13.398L334.22 193.76l-15.213 15.272" class="st5" id="path46"/><path d="M307.37 172.757c-3.69 0-7.21 1.42-9.822 4.087l-30.145 30.145c1.703 4.54 3.974 8.798 6.7 12.772l21.174-21.175c1.76-1.76 4.087-2.725 6.585-2.725s4.826.965 6.585 2.725l5.28 5.28 15.214-15.215-11.75-11.75c-2.61-2.726-6.074-4.145-9.82-4.145" class="st6" id="path48"/><path d="M290.395 339.09c0 1.42.17 2.67.51 3.804.34 1.136.852 2.1 1.533 2.896.625.794 1.476 1.42 2.385 1.816.965.454 1.987.625 3.18.625 1.19 0 2.213-.226 3.12-.624.91-.454 1.704-1.022 2.386-1.816.623-.795 1.134-1.76 1.53-2.896.342-1.135.512-2.384.512-3.803 0-1.418-.17-2.667-.51-3.803-.34-1.135-.852-2.1-1.533-2.895-.626-.795-1.42-1.42-2.386-1.817-.908-.454-1.987-.624-3.122-.624-1.192 0-2.214.228-3.18.625-.964.455-1.76 1.022-2.384 1.817-.624.795-1.135 1.76-1.532 2.895-.34 1.136-.51 2.385-.51 3.804zm-3.35 0c0-1.986.284-3.69.852-5.222.568-1.476 1.362-2.782 2.384-3.747 1.023-1.02 2.158-1.76 3.52-2.27 1.363-.51 2.783-.737 4.26-.737 1.475 0 2.894.227 4.2.738 1.305.51 2.44 1.25 3.463 2.27 1.02 1.023 1.76 2.272 2.384 3.748.568 1.476.85 3.236.85 5.223 0 1.988-.282 3.69-.85 5.224-.568 1.532-1.363 2.78-2.384 3.746-1.022 1.022-2.158 1.76-3.463 2.27-1.306.512-2.725.74-4.2.74-1.534 0-2.897-.228-4.26-.74-1.362-.51-2.497-1.248-3.52-2.27-1.02-1.02-1.815-2.27-2.383-3.746-.568-1.533-.852-3.293-.852-5.223" class="st7" id="path50"/><path d="M317.587 348.344c1.25 0 2.214-.17 2.782-.51.623-.34.907-.852.907-1.59 0-.738-.284-1.363-.908-1.817-.57-.454-1.59-.965-2.953-1.476-.68-.283-1.306-.51-1.93-.794-.625-.283-1.136-.624-1.59-.965-.454-.396-.794-.85-1.078-1.36-.285-.512-.4-1.193-.4-1.93 0-1.534.57-2.726 1.704-3.634 1.136-.91 2.67-1.363 4.6-1.363.51 0 .964 0 1.475.057.51.057.964.113 1.36.227.4.057.796.17 1.137.227.34.114.567.17.738.227l-.568 2.67c-.34-.17-.852-.34-1.533-.568-.68-.17-1.533-.284-2.555-.284-.852 0-1.59.17-2.27.51-.626.34-.966.852-.966 1.59 0 .398.056.68.227 1.022.17.284.34.568.682.795.284.227.68.454 1.135.624.454.226.965.397 1.59.624.795.284 1.533.624 2.214.908.625.284 1.193.624 1.647 1.022.454.397.795.85 1.022 1.42.226.567.34 1.248.34 2.043 0 1.59-.568 2.78-1.76 3.633-1.192.795-2.84 1.25-5.053 1.25-1.532 0-2.725-.115-3.576-.398-.85-.228-1.475-.455-1.76-.568l.57-2.668c.34.113.907.34 1.702.624.738.34 1.76.454 3.065.454" class="st7" id="path52"/><path d="M333.483 350.9c-1.874-.058-3.236-.455-4.03-1.25-.796-.795-1.193-1.987-1.193-3.633v-20.664l3.065-.51v20.72c0 .51.057.908.114 1.25.113.34.226.623.453.793.17.227.454.34.795.454.34.114.738.17 1.25.228l-.455 2.61" class="st7" id="path54"/><path d="M349.378 341.93c0-1.93-.454-3.464-1.306-4.656-.85-1.135-2.043-1.703-3.576-1.703s-2.668.57-3.576 1.704c-.852 1.136-1.306 2.668-1.306 4.655 0 1.93.454 3.462 1.306 4.598.85 1.135 2.043 1.703 3.576 1.703s2.668-.567 3.576-1.702c.91-1.08 1.306-2.612 1.306-4.6zm3.236 0c0 1.362-.227 2.61-.624 3.69-.398 1.078-.966 2.043-1.704 2.838-.738.795-1.59 1.42-2.554 1.816-1.022.455-2.1.625-3.236.625-1.192 0-2.27-.228-3.236-.626-1.022-.454-1.873-1.02-2.554-1.816-.738-.795-1.306-1.76-1.704-2.84-.397-1.077-.624-2.326-.624-3.69 0-1.36.227-2.553.624-3.69.398-1.134.966-2.042 1.704-2.894.738-.795 1.59-1.42 2.554-1.816 1.022-.455 2.1-.625 3.236-.625 1.192 0 2.27.227 3.236.625 1.022.454 1.873 1.02 2.554 1.816.738.795 1.306 1.76 1.704 2.895.397 1.135.624 2.384.624 3.69" class="st7" id="path56"/><path d="M119.292 314.85h401.075v-2.327H119.292v2.327z" class="st0" id="path58"/></g></g></g></svg>