<svg viewBox="0 0 640 480" xmlns="http://www.w3.org/2000/svg"><style>.st0{fill:#56575C;}</style><g><title>background</title><path fill="none" id="canvas_background" d="M-1-1h642v482H-1z"/></g><g><title>Layer 1</title><g stroke="null" id="svg_1"><path id="svg_2" d="M103.446 192.707c1.427 2.22 2.06 4.175 2.854 8.35 5.602-5.443 12.473-8.35 20.03-8.35 6.818 0 12.367 2.22 16.7 6.712 1.164 1.11 2.273 2.59 3.278 4.016 7.504-7.717 14.216-10.73 23.254-10.73 6.395 0 12.472 1.904 16.225 5.127 4.65 4.017 6.13 8.826 6.13 20.03v58.347h-20.875v-54.17c0-9.83-1.163-11.734-6.765-11.734-4.017 0-9.62 2.748-14.27 6.924v59.033h-20.4v-53.43c0-10.254-1.48-12.633-7.452-12.633-3.964 0-9.46 2.062-14.058 6.237v59.826H87.115v-57.29c0-11.838-.792-16.964-3.065-20.98l19.396-5.286z" class="st0"/><path id="svg_3" d="M268.603 204.863c6.554 7.716 9.513 16.647 9.513 29.966 0 14.11-3.224 23.728-10.306 31.762-6.236 7.03-14.428 11.415-27.06 11.415-22.302 0-36.888-16.7-36.888-42.49 0-25.845 14.692-42.97 36.89-42.97 11.68-.05 20.822 3.965 27.85 12.316zM229.97 216.7c-1.48 4.335-2.273 10.095-2.273 18.287 0 9.46.95 16.542 2.695 20.665 1.956 4.492 6.765 6.712 10.888 6.712 9.3 0 13.265-8.35 13.265-27.747 0-11.045-1.427-18.286-4.334-21.985-2.06-2.696-5.39-4.334-9.3-4.334-5.02.106-9.196 3.277-10.94 8.403z" class="st0"/><path id="svg_4" d="M347.19 194.134v14.745l-36.254 52.427h37.682l-5.126 14.903h-60.46v-13.318l38.58-53.696h-35.357v-15.062h60.936z" class="st0"/><path id="svg_5" d="M383.552 171.514c0 7.4-5.866 13.265-13.318 13.265-7.187 0-13.107-5.92-13.107-13.266s6.13-13.318 13.477-13.318c7.188 0 12.948 5.972 12.948 13.318zm-2.536 20.664v84.032h-21.51v-80.65l21.51-3.382z" class="st0"/><path id="svg_6" d="M420.125 178.913v63.95c0 14.11.158 16.013 1.48 18.285.792 1.48 2.536 2.22 4.333 2.22.793 0 1.216 0 2.38-.317l3.645 12.79c-3.646 1.427-8.19 2.22-12.842 2.22-9.142 0-16.54-4.334-19.078-11.204-1.586-4.175-1.956-6.765-1.956-18.445v-61.2c0-10.728-.264-17.28-1.057-24.68l21.985-4.968c.793 4.492 1.11 9.777 1.11 21.35z" class="st0"/><path id="svg_7" d="M464.678 178.913v63.95c0 14.11.158 16.013 1.48 18.285.74 1.48 2.483 2.22 4.28 2.22.793 0 1.322 0 2.43-.317l3.648 12.79c-3.647 1.427-8.14 2.22-12.843 2.22-9.143 0-16.542-4.334-19.078-11.204-1.64-4.175-1.903-6.765-1.903-18.445v-61.2c0-10.728-.317-17.28-1.163-24.68l21.932-4.968c.95 4.492 1.216 9.777 1.216 21.35z" class="st0"/><path id="svg_8" d="M498.396 197.2c7.98-3.383 14.85-4.81 22.41-4.81 13.793 0 23.253 5.126 26.477 14.27 1.057 3.382 1.532 5.92 1.48 14.745l-.53 27.588v1.48c0 8.825 1.48 12.208 7.717 16.806l-11.416 13.158c-5.02-2.114-9.513-5.813-11.574-9.935-1.585 1.638-3.382 3.17-4.968 4.333-3.964 2.907-9.777 4.493-16.542 4.493-18.286 0-28.222-9.303-28.222-25.634 0-19.29 13.318-28.275 39.48-28.275 1.585 0 3.065 0 4.81.16v-3.33c0-9.143-1.798-12.208-9.673-12.208-6.818 0-14.904 3.33-23.677 9.302l-9.143-15.38c4.387-2.8 7.61-4.386 13.37-6.765zm27.852 43.125c-14.85 0-20.083 2.695-20.083 12.526 0 6.395 4.07 10.73 9.513 10.73 4.017 0 8.033-2.115 11.204-5.603l.37-17.652h-1.004z" class="st0"/></g></g></svg>