<svg id="Layer_1" xmlns="http://www.w3.org/2000/svg" viewBox="0 0 986 313"><style>.st0{fill:#56575C;}</style><g><path class="st0" d="M83.5 99.6c2.7 4.2 3.9 7.9 5.4 15.8 10.6-10.3 23.6-15.8 37.9-15.8 12.9 0 23.4 4.2 31.6 12.7 2.2 2.1 4.3 4.9 6.2 7.6 14.2-14.6 26.9-20.3 44-20.3 12.1 0 23.6 3.6 30.7 9.7 8.8 7.6 11.6 16.7 11.6 37.9v110.4h-39.5V155.1c0-18.6-2.2-22.2-12.8-22.2-7.6 0-18.2 5.2-27 13.1v111.7H133V156.6c0-19.4-2.8-23.9-14.1-23.9-7.5 0-17.9 3.9-26.6 11.8v113.2H52.6V149.3c0-22.4-1.5-32.1-5.8-39.7l36.7-10zM396 122.6c12.4 14.6 18 31.5 18 56.7 0 26.7-6.1 44.9-19.5 60.1-11.8 13.3-27.3 21.6-51.2 21.6-42.2 0-69.8-31.6-69.8-80.4 0-48.9 27.8-81.3 69.8-81.3 22.1-.1 39.4 7.5 52.7 23.3zM322.9 145c-2.8 8.2-4.3 19.1-4.3 34.6 0 17.9 1.8 31.3 5.1 39.1 3.7 8.5 12.8 12.7 20.6 12.7 17.6 0 25.1-15.8 25.1-52.5 0-20.9-2.7-34.6-8.2-41.6-3.9-5.1-10.2-8.2-17.6-8.2-9.5.2-17.4 6.2-20.7 15.9zM544.7 102.3v27.9l-68.6 99.2h71.3l-9.7 28.2H423.3v-25.2l73-101.6h-66.9v-28.5h115.3zM613.5 59.5c0 14-11.1 25.1-25.2 25.1-13.6 0-24.8-11.2-24.8-25.1 0-13.9 11.6-25.2 25.5-25.2 13.6 0 24.5 11.3 24.5 25.2zm-4.8 39.1v159H568V105l40.7-6.4zM682.7 73.5v121c0 26.7.3 30.3 2.8 34.6 1.5 2.8 4.8 4.2 8.2 4.2 1.5 0 2.3 0 4.5-.6l6.9 24.2c-6.9 2.7-15.5 4.2-24.3 4.2-17.3 0-31.3-8.2-36.1-21.2-3-7.9-3.7-12.8-3.7-34.9V89.2c0-20.3-.5-32.7-2-46.7l41.6-9.4c1.5 8.5 2.1 18.5 2.1 40.4zM767 73.5v121c0 26.7.3 30.3 2.8 34.6 1.4 2.8 4.7 4.2 8.1 4.2 1.5 0 2.5 0 4.6-.6l6.9 24.2c-6.9 2.7-15.4 4.2-24.3 4.2-17.3 0-31.3-8.2-36.1-21.2-3.1-7.9-3.6-12.8-3.6-34.9V89.2c0-20.3-.6-32.7-2.2-46.7l41.5-9.4c1.8 8.5 2.3 18.5 2.3 40.4zM830.8 108.1c15.1-6.4 28.1-9.1 42.4-9.1 26.1 0 44 9.7 50.1 27 2 6.4 2.9 11.2 2.8 27.9l-1 52.2v2.8c0 16.7 2.8 23.1 14.6 31.8l-21.6 24.9c-9.5-4-18-11-21.9-18.8-3 3.1-6.4 6-9.4 8.2-7.5 5.5-18.5 8.5-31.3 8.5-34.6 0-53.4-17.6-53.4-48.5 0-36.5 25.2-53.5 74.7-53.5 3 0 5.8 0 9.1.3v-6.3c0-17.3-3.4-23.1-18.3-23.1-12.9 0-28.2 6.3-44.8 17.6l-17.3-29.1c8.3-5.3 14.4-8.3 25.3-12.8zm52.7 81.6c-28.1 0-38 5.1-38 23.7 0 12.1 7.7 20.3 18 20.3 7.6 0 15.2-4 21.2-10.6l.7-33.4h-1.9z"/></g></svg>