<svg viewBox="0 0 640 480" xmlns="http://www.w3.org/2000/svg"><style>.st0{fill:none;} .st1{fill:#1428a0;} .st2{clip-path:url(#SVGID_2_);fill:#1428a0;}</style><g><title>background</title><path id="canvas_background" fill="none" d="M-1-1h642v482H-1z"/></g><g><title>Layer 1</title><g stroke="null" id="svg_5"><path class="st1" id="svg_2" d="M490.274 260.91l-1.02-58.267h18.36v73.567H481.22l-18.358-60.307h-.383l1.02 60.307h-18.233v-73.567h27.54l17.084 58.267z"/><path class="st1" id="svg_3" d="M156.23 209.528l-10.074 67.446h-20.144l13.77-74.33h33.02l13.644 74.33h-19.89l-9.945-67.446z"/><path class="st1" id="svg_4" d="M242.8 259.507l9.18-56.864h30.217l1.657 74.33h-18.487l-.51-66.808h-.382l-12.495 66.81h-18.743l-12.494-66.81h-.383l-.51 66.81h-18.487l1.657-74.332h30.217l9.18 56.864z"/><path class="st2" d="M94.774 255.937c.765 1.785.51 4.08.128 5.483-.638 2.422-2.295 4.972-7.267 4.972-4.59 0-7.523-2.677-7.523-6.757v-7.14H60.35v5.737c0 16.575 13.005 21.547 27.03 21.547 13.387 0 24.48-4.59 26.264-16.958.893-6.375.255-10.582-.127-12.24-3.188-15.427-31.365-20.017-33.405-28.814-.382-1.53-.255-3.06-.127-3.953.51-2.422 2.167-4.972 6.757-4.972 4.335 0 6.885 2.677 6.885 6.757v4.59h18.487v-5.227c0-16.192-14.535-18.742-24.99-18.742-13.26 0-23.97 4.336-26.01 16.448-.51 3.315-.637 6.247.128 9.945 3.315 15.427 29.708 19.762 33.532 29.324" id="svg_7"/><path class="st2" d="M336.128 255.81c.765 1.785.51 4.08.128 5.482-.637 2.423-2.295 4.973-7.14 4.973-4.59 0-7.395-2.678-7.395-6.63v-7.14h-19.634v5.61c0 16.447 12.878 21.292 26.775 21.292 13.26 0 24.226-4.59 26.01-16.83.893-6.375.256-10.455-.127-11.985-3.06-15.427-30.982-20.017-33.022-28.56-.38-1.53-.254-3.06-.126-3.824.51-2.423 2.167-4.973 6.757-4.973 4.336 0 6.886 2.678 6.886 6.63v4.59h18.36v-5.227c0-16.065-14.408-18.487-24.735-18.487-13.004 0-23.714 4.336-25.626 16.32-.51 3.315-.638 6.248.127 9.945 2.934 15.045 29.07 19.38 32.768 28.815" id="svg_8"/><path class="st2" d="M398.475 265.882c5.228 0 6.757-3.57 7.14-5.355.127-.765.255-1.912.127-2.805v-55.08h18.743v53.295c0 1.403-.128 4.208-.128 4.845-1.275 13.897-12.24 18.36-25.882 18.36-13.642 0-24.607-4.463-25.882-18.36-.128-.765-.255-3.57-.128-4.845v-53.294h18.743v54.952c0 .892 0 2.04.127 2.805.383 1.912 2.04 5.482 7.14 5.482" id="svg_9"/><path class="st2" d="M553.385 264.99c5.355 0 7.268-3.443 7.523-5.355.127-.893.255-1.913.127-2.805v-10.71h-7.65v-10.837h26.265v19.89c0 1.402 0 2.422-.255 4.844-1.275 13.515-13.005 18.36-26.137 18.36s-24.862-4.845-26.137-18.36c-.254-2.422-.254-3.442-.254-4.845v-31.237c0-1.275.127-3.697.255-4.845 1.658-13.897 12.878-18.36 26.01-18.36 13.133 0 24.735 4.463 26.01 18.36.255 2.423.127 4.845.127 4.845v2.423h-18.36v-4.208s0-1.785-.254-2.805c-.383-1.657-1.785-5.355-7.395-5.355-5.355 0-7.013 3.57-7.395 5.355-.255 1.02-.255 2.295-.255 3.57v33.915c0 .892 0 2.04.127 2.805.383 2.04 2.168 5.355 7.65 5.355" id="svg_10"/></g></g></svg>