<svg id="Ebene_1" xmlns="http://www.w3.org/2000/svg" xmlns:xlink="http://www.w3.org/1999/xlink" viewBox="0 0 464 124.7"><style>.st0{fill:none;} .st1{fill:#0088CE;} .st2{clip-path:url(#SVGID_2_);fill:#0088CE;}</style><path class="st0" d="M0 0h464v124.7H0z"/><path class="st1" d="M365.6 78.7l-.8-45.7h14.4v57.7h-20.7l-14.4-47.3h-.3l.8 47.3h-14.3V33h21.6l13.4 45.7zM103.6 38.4l-7.9 52.9H79.9L90.7 33h25.9l10.7 58.3h-15.6l-7.8-52.9zM171.5 77.6l7.2-44.6h23.7l1.3 58.3h-14.5l-.4-52.4h-.3l-9.8 52.4H164l-9.8-52.4h-.3l-.4 52.4H139l1.3-58.3H164l7.2 44.6z"/><g><defs><path id="SVGID_1_" d="M0 0h464v124.7H0z"/></defs><clipPath id="SVGID_2_"><use xlink:href="#SVGID_1_" overflow="visible"/></clipPath><path class="st2" d="M55.4 74.8c.6 1.4.4 3.2.1 4.3C55 81 53.7 83 49.8 83c-3.6 0-5.9-2.1-5.9-5.3v-5.6H28.4v4.5c0 13 10.2 16.9 21.2 16.9 10.5 0 19.2-3.6 20.6-13.3.7-5 .2-8.3-.1-9.6C67.6 58.5 45.5 54.9 43.9 48c-.3-1.2-.2-2.4-.1-3.1.4-1.9 1.7-3.9 5.3-3.9 3.4 0 5.4 2.1 5.4 5.3v3.6H69v-4.1c0-12.7-11.4-14.7-19.6-14.7C39 31.1 30.6 34.5 29 44c-.4 2.6-.5 4.9.1 7.8 2.6 12.1 23.3 15.5 26.3 23M244.7 74.7c.6 1.4.4 3.2.1 4.3-.5 1.9-1.8 3.9-5.6 3.9-3.6 0-5.8-2.1-5.8-5.2v-5.6H218v4.4c0 12.9 10.1 16.7 21 16.7 10.4 0 19-3.6 20.4-13.2.7-5 .2-8.2-.1-9.4-2.4-12.1-24.3-15.7-25.9-22.4-.3-1.2-.2-2.4-.1-3 .4-1.9 1.7-3.9 5.3-3.9 3.4 0 5.4 2.1 5.4 5.2v3.6h14.4V46c0-12.6-11.3-14.5-19.4-14.5-10.2 0-18.6 3.4-20.1 12.8-.4 2.6-.5 4.9.1 7.8 2.3 11.8 22.8 15.2 25.7 22.6M293.6 82.6c4.1 0 5.3-2.8 5.6-4.2.1-.6.2-1.5.1-2.2V33H314v41.8c0 1.1-.1 3.3-.1 3.8-1 10.9-9.6 14.4-20.3 14.4-10.7 0-19.3-3.5-20.3-14.4-.1-.6-.2-2.8-.1-3.8V33h14.7v43.1c0 .7 0 1.6.1 2.2.3 1.5 1.6 4.3 5.6 4.3M415.1 81.9c4.2 0 5.7-2.7 5.9-4.2.1-.7.2-1.5.1-2.2v-8.4h-6v-8.5h20.6v15.6c0 1.1 0 1.9-.2 3.8-1 10.6-10.2 14.4-20.5 14.4s-19.5-3.8-20.5-14.4c-.2-1.9-.2-2.7-.2-3.8V49.7c0-1 .1-2.9.2-3.8 1.3-10.9 10.1-14.4 20.4-14.4 10.3 0 19.4 3.5 20.4 14.4.2 1.9.1 3.8.1 3.8v1.9H421v-3.3s0-1.4-.2-2.2c-.3-1.3-1.4-4.2-5.8-4.2-4.2 0-5.5 2.8-5.8 4.2-.2.8-.2 1.8-.2 2.8v26.6c0 .7 0 1.6.1 2.2.3 1.6 1.7 4.2 6 4.2"/></g></svg>