<svg viewBox="0 0 640 480" xmlns="http://www.w3.org/2000/svg"><g><title>Layer 1</title><g id="g10"><g id="g12" fill="#231f20"><path d="M127.54 351.682c-4.67 0-9.1-.717-13.29-2.164-4.193-1.455-7.902-3.637-11.142-6.52l8.038-9.633c5.223 4.163 10.86 6.253 16.928 6.253 1.927 0 3.405-.296 4.42-.92 1.024-.63 1.525-1.51 1.525-2.645v-.147c0-.542-.127-1.03-.37-1.454-.244-.41-.718-.818-1.372-1.23-.678-.386-1.57-.767-2.686-1.134-1.13-.38-2.563-.762-4.367-1.162-2.778-.646-5.348-1.352-7.728-2.122-2.4-.766-4.468-1.75-6.23-2.97-1.762-1.22-3.153-2.738-4.182-4.538-1.006-1.805-1.515-4.05-1.515-6.736v-.142c0-2.43.47-4.663 1.38-6.695.914-2.03 2.266-3.79 4.01-5.277 1.772-1.486 3.894-2.644 6.376-3.453 2.49-.82 5.288-1.23 8.424-1.23 4.467 0 8.44.584 11.948 1.763 3.507 1.17 6.662 2.91 9.5 5.206l-7.223 10.24c-2.38-1.694-4.84-2.975-7.34-3.834-2.5-.873-4.937-1.302-7.265-1.302-1.732 0-3.045.317-3.905.963-.87.644-1.3 1.422-1.3 2.377v.147c0 .6.13 1.113.407 1.565.28.448.728.848 1.406 1.22.675.366 1.6.747 2.77 1.114 1.165.36 2.642.758 4.422 1.16 2.974.633 5.68 1.393 8.078 2.266 2.42.87 4.47 1.915 6.15 3.156 1.69 1.24 2.983 2.735 3.873 4.5.903 1.76 1.353 3.853 1.353 6.28v.15c0 2.67-.51 5.06-1.538 7.138-1.024 2.07-2.437 3.855-4.285 5.31-1.822 1.472-4.045 2.58-6.617 3.35-2.585.767-5.475 1.148-8.652 1.148" id="path14"/><path d="M156.125 298.653h14.44v19.516h18.55v-19.517h14.45v52.135h-14.45v-19.81h-18.55v19.81h-14.44v-52.135" id="path16"/><path d="M240.02 338.81c1.99 0 3.805-.372 5.455-1.118 1.648-.738 3.043-1.754 4.19-3.016 1.138-1.266 2.04-2.756 2.684-4.438.646-1.687.975-3.462.975-5.36v-.15c0-1.887-.33-3.682-.976-5.36-.645-1.69-1.57-3.188-2.767-4.468-1.187-1.292-2.603-2.325-4.263-3.095-1.64-.78-3.442-1.16-5.442-1.16s-3.8.38-5.422 1.117c-1.62.738-3.01 1.755-4.18 3.012-1.17 1.27-2.07 2.76-2.687 4.428-.615 1.702-.942 3.477-.942 5.37v.155c0 1.885.327 3.67.983 5.36.636 1.69 1.55 3.177 2.715 4.468 1.178 1.29 2.584 2.328 4.223 3.095 1.65.772 3.465 1.16 5.453 1.16zm-.11 13.034c-4.02 0-7.748-.706-11.173-2.14-3.422-1.408-6.375-3.32-8.856-5.76-2.486-2.43-4.435-5.3-5.86-8.566-1.404-3.284-2.112-6.767-2.112-10.5v-.15c0-3.718.708-7.236 2.11-10.545 1.427-3.304 3.393-6.182 5.924-8.642 2.544-2.456 5.516-4.396 8.938-5.8 3.434-1.413 7.156-2.13 11.192-2.13 4.018 0 7.73.717 11.163 2.13 3.43 1.404 6.383 3.33 8.864 5.77 2.478 2.43 4.426 5.29 5.842 8.567 1.414 3.27 2.13 6.766 2.13 10.495v.155c0 3.72-.716 7.235-2.13 10.545-1.416 3.3-3.385 6.182-5.926 8.642-2.522 2.45-5.512 4.382-8.938 5.79-3.42 1.434-7.14 2.14-11.17 2.14" id="path18"/><path d="M300.418 323.68c2.48 0 4.398-.553 5.736-1.668 1.345-1.13 2.01-2.627 2.01-4.51v-.156c0-2.08-.696-3.626-2.08-4.653-1.395-1.024-3.31-1.515-5.74-1.515h-9.46v12.503h9.534zm-23.982-25.027h24.657c4.015 0 7.42.493 10.206 1.488 2.77.997 5.032 2.39 6.765 4.16 3.083 2.994 4.634 7.042 4.634 12.157v.16c0 4.02-.985 7.332-2.912 9.966-1.94 2.634-4.552 4.652-7.82 6.035l12.432 18.17h-16.685l-10.5-15.78h-6.33v15.78h-14.45v-52.135" id="path20"/><path d="M344.304 311.32h-15.638v-12.667h45.736v12.668h-15.648v39.468h-14.45V311.32" id="path22"/><path d="M405.956 351.844c-3.726 0-7.224-.686-10.493-2.01-3.28-1.35-6.126-3.225-8.536-5.624-2.41-2.42-4.313-5.27-5.73-8.568-1.413-3.31-2.134-6.898-2.134-10.763v-.153c0-3.78.7-7.32 2.095-10.616 1.392-3.29 3.3-6.17 5.73-8.63 2.44-2.47 5.337-4.397 8.68-5.78 3.35-1.383 7.008-2.09 10.987-2.09 2.68 0 5.112.255 7.297.778 2.19.52 4.18 1.27 6.004 2.246 1.804.962 3.442 2.12 4.91 3.463 1.465 1.343 2.767 2.8 3.904 4.388l-10.874 8.422c-1.487-1.886-3.126-3.384-4.91-4.468-1.785-1.098-3.956-1.64-6.474-1.64-1.847 0-3.516.36-5.045 1.076-1.505.716-2.807 1.69-3.894 2.94-1.105 1.24-1.95 2.718-2.573 4.386-.625 1.702-.93 3.477-.93 5.37v.155c0 1.938.305 3.763.93 5.475.624 1.7 1.468 3.194 2.573 4.424 1.087 1.255 2.39 2.225 3.894 2.953 1.53.705 3.198 1.063 5.045 1.063 1.33 0 2.56-.134 3.684-.43 1.11-.304 2.134-.735 3.058-1.31.912-.584 1.782-1.24 2.6-2.013.823-.774 1.62-1.626 2.42-2.567l10.863 7.747c-1.23 1.683-2.58 3.25-4.046 4.693-1.468 1.433-3.126 2.684-4.99 3.72-1.866 1.035-3.947 1.866-6.254 2.472-2.314.593-4.907.89-7.79.89" id="path24"/><path d="M459.906 351.764c-3.71 0-7.07-.473-10.04-1.415-2.99-.952-5.516-2.4-7.595-4.357-2.103-1.957-3.696-4.45-4.808-7.452-1.13-3.01-1.68-6.548-1.68-10.616v-29.27h14.746v28.974c0 3.78.853 6.57 2.586 8.38 1.722 1.816 4.05 2.72 6.956 2.72 2.902 0 5.23-.864 6.938-2.618 1.733-1.72 2.596-4.433 2.596-8.104v-29.353h14.75v28.904c0 4.22-.59 7.85-1.755 10.912-1.17 3.044-2.81 5.566-4.92 7.523-2.11 1.957-4.664 3.405-7.667 4.356-3.015.94-6.375 1.414-10.107 1.414" id="path26"/><path d="M506.79 311.32h-15.634v-12.667h45.736v12.668h-15.66v39.468H506.79V311.32" id="path28"/><path d="M271.345 230.65h21.506l-21.505-21.512v21.51" id="path30"/><path d="M271.345 173.332v17.07l40.243 40.247h17.073l-57.315-57.318" id="path32"/><path d="M333.59 128.156h-17.07l57.315 57.314v-17.066l-40.245-40.248" id="path34"/><path d="M352.327 128.156l21.508 21.503v-21.504h-21.508" id="path36"/><path d="M349.13 215.316l-62.452-62.46 9.37-9.37L358.5 205.95l-9.373 9.366zm17.907-17.905l-62.454-62.455 6.796-6.8h-40.035v40.04l6.797-6.802 62.45 62.46-6.79 6.796h40.033v-40.04l-6.798 6.8" id="path38"/></g></g></g></svg>