<svg width="640" height="480" xmlns="http://www.w3.org/2000/svg"><g><title>background</title><path fill="none" id="canvas_background" d="M-1-1h642v482H-1z"/></g><g><title>Layer 1</title><g id="g10"><g id="g12"><path fill="#f47216" d="M346.102 263.835c-.493.325-1.086.697-1.63 1.01l-.165.095.166.02c10.646 2.923 21.187 2.813 23.21-3.83 2.616-8.575-14.32-17.774-22.312-22.158-1.71-.94-2.455-.353-1.36.903 5.044 5.81 12.233 17.244 2.092 23.96" id="path14"/><path fill="#231f20" d="M437.88 226.23h-8.97v-7.514h8.97v-11.138h8.696v11.138h14.306v7.515h-14.306v22.618c0 5.658 1.577 8.623 8.824 8.623 2.773 0 5.888-.793 5.888-.793v7.827c-3.023.41-5.22.652-8.648.652-13.7 0-14.76-9.872-14.76-15.287v-23.64" id="path16"/><path fill="#231f20" d="M553.4 265.264h8.907v-46.592H553.4v46.592z" id="path18"/><path fill="#231f20" d="M568.985 241.533c0-17.522 14.163-23.474 24.002-23.474 11.177 0 16.594 6.41 16.594 6.41l.463-5.795h8.134v46.682h-8.147l-.45-6.167s-5.574 6.177-16.692 6.177c-11.158 0-23.903-6.482-23.903-23.834zm9.05.092c0 12.69 10.458 15.855 15.414 15.855 9.457 0 16.13-5.346 16.13-16.037 0-10.693-7.587-15.59-16.222-15.59-4.897 0-15.322 2.88-15.322 15.772" id="path20"/><path fill="#231f20" d="M563.68 207.916c0-3.216-2.608-5.825-5.826-5.825-3.216 0-5.825 2.61-5.825 5.826 0 3.22 2.608 5.826 5.824 5.826 3.218 0 5.825-2.607 5.825-5.826" id="path22"/><path fill="#231f20" d="M546.894 226.683v-7.89c-8.795-.804-14.967 1.304-19.778 6.33l-.463-6.427h-8.446v46.63h8.91v-24.16c0-6.742 5.432-15.287 19.777-14.483" id="path24"/><path fill="#231f20" d="M502.512 237.71c0-6.334-6.376-11.616-14.208-11.616-8.387 0-15.322 5.175-15.882 11.617h30.09zm-39.49 4c0-14.576 10.77-23.933 25.16-23.933 14.292 0 24.112 10.444 24.112 23.13 0 0 0 1.978-.19 3.777l-39.817.17c.38 7.198 8.688 12.623 17.265 12.623 9.232 0 14.706-5.716 14.706-5.716l6.372 5.604c-6.466 6.208-13.52 8.098-21.074 8.098-15.704 0-26.533-9.178-26.533-23.392v-.36" id="path26"/><path fill="#231f20" d="M409.842 237.513c-8.965-1.602-17.782-2.72-17.782-6.9 0-2.725 2.704-5.12 10.553-5.12 5.832 0 12.56 1.35 14.384 5.48l8.266-3.47c-3.164-6.352-12.518-9.41-23.27-9.41-9.4 0-19.488 3.56-19.488 13.073 0 8.24 7.5 10.803 19.87 13.13 8.262 1.554 15.88 2.343 15.88 6.797 0 2.81-3.747 6.414-13.116 6.414-6.663 0-13.383-1.397-15.437-6.138l-8.013 3.363c3.285 7.324 12.007 11.112 22.112 11.112 20.18 0 24.077-9.6 24.077-15.05 0-9.073-9.03-11.672-18.038-13.282" id="path28"/><path fill="#231f20" d="M153.66 265.367c-11.16 0-16.69-7.092-16.69-7.092v19.634h-8.6v-59.235h8.136l.464 5.794s5.413-6.41 16.593-6.41c9.836 0 24 5.015 24 23.473 0 18.456-12.744 23.834-23.904 23.834zm-.467-39.513c-8.638 0-16.223 4.897-16.223 15.59 0 10.69 6.67 16.036 16.13 16.036 4.955 0 15.412-2.01 15.412-15.855s-10.425-15.77-15.32-15.77" id="path30"/><path fill="#231f20" d="M211.07 241.533c0-17.522 14.163-23.474 24.005-23.474 11.174 0 16.59 6.41 16.59 6.41l.46-5.795h8.138v46.682h-8.12l-.48-6.167s-5.57 6.177-16.69 6.177c-11.158 0-23.903-6.482-23.903-23.834zm9.052.092c0 12.69 10.454 15.855 15.413 15.855 9.458 0 16.13-5.346 16.13-16.037 0-10.693-7.586-15.59-16.22-15.59-4.898 0-15.323 2.88-15.323 15.772" id="path32"/><path fill="#231f20" d="M211.72 226.683v-7.89c-8.794-.804-14.97 1.304-19.78 6.33l-.46-6.427h-8.45v46.63h8.91v-24.16c0-6.742 5.434-15.287 19.78-14.483" id="path34"/><path fill="#231f20" d="M49.974 237.513c-8.967-1.602-17.78-2.72-17.78-6.9 0-2.725 2.702-5.12 10.55-5.12 5.83 0 12.56 1.35 14.383 5.48l8.27-3.47c-3.166-6.352-12.52-9.41-23.27-9.41-9.4 0-19.492 3.56-19.492 13.073 0 8.24 7.5 10.803 19.872 13.13 8.26 1.554 15.884 2.343 15.884 6.797 0 2.81-3.75 6.414-13.12 6.414-6.66 0-13.38-1.397-15.435-6.138l-8.012 3.363c3.282 7.324 12.006 11.112 22.112 11.112 20.174 0 24.077-9.6 24.077-15.05 0-9.073-9.03-11.672-18.038-13.282" id="path36"/><path fill="#231f20" d="M97.593 257.48c-7.322 0-16.965-3.164-16.965-15.855 0-12.893 10.695-15.512 16.965-15.512s16.965 2.62 16.965 15.512c0 12.69-9.643 15.855-16.965 15.855zm0-39.42c-11.916 0-26.017 5.95-26.017 23.473 0 17.352 12.688 24.093 26.017 24.093 13.33 0 26.017-6.74 26.017-24.093 0-17.522-14.1-23.474-26.017-23.474" id="path38"/><path fill="#db1d2b" d="M344.317 264.936s-13.403 8.424-37.058 8.424c-9.166 0-16.88-1.403-20.144-4.613-3.437-3.38-5.3-9.075-5.3-14.31 0-4.487 1.863-8.26 5.746-8.26 9.976 0 41.043 15.803 56.755 18.76" id="path40"/><path fill="#f47216" d="M299.648 216.085c.493-.325 1.088-.696 1.63-1.008l.166-.097-.166-.02c-10.645-2.923-21.186-2.812-23.208 3.83-2.617 8.574 14.317 17.774 22.31 22.158 1.712.94 2.456.353 1.362-.903-5.045-5.81-12.234-17.244-2.094-23.96" id="path42"/><path fill="#db1d2b" d="M301.433 214.984s13.404-8.424 37.06-8.424c9.164 0 16.88 1.403 20.143 4.613 3.436 3.38 5.3 9.074 5.3 14.31 0 4.487-1.864 8.26-5.747 8.26-9.976 0-41.044-15.804-56.757-18.76" id="path44"/></g></g></g></svg>