<svg viewBox="0 0 640 480" xmlns="http://www.w3.org/2000/svg"><g><title>background</title><path fill="none" id="canvas_background" d="M-1-1h642v482H-1z"/></g><g><title>Layer 1</title><g stroke="null" id="svg_14"><path id="svg_1" fill="#0099C9" d="M165.224 257.172l-39.912 12.994v-42z"/><path id="svg_2" fill="#0080BB" d="M125.312 228.166v42L85.4 257.172z"/><path id="svg_3" fill="#CCE5F1" d="M125.312 181.292l39.912 33.88-39.912 12.994z"/><path id="svg_4" fill="#86C5E0" d="M165.224 215.17v42.002l-39.912-29.006z"/><path id="svg_5" fill="#95CBE3" d="M125.544 181.292l-.232 46.874L85.4 215.17z"/><path id="svg_6" fill="#53B2D6" d="M85.4 215.17l39.912 12.996L85.4 257.172z"/><g id="svg_7" fill="#1D1D1B"><path id="svg_8" d="M235.535 249.05c0-2.785-1.16-5.105-3.25-6.962-2.087-1.856-4.872-3.48-7.89-4.873-3.247-1.392-6.728-3.016-10.44-4.64-3.713-1.625-7.194-3.48-10.443-5.802-3.25-2.32-5.8-5.105-7.89-8.585-2.088-3.48-3.248-7.658-3.248-12.995 0-4.64.696-8.586 2.32-11.835 1.625-3.48 3.713-6.265 6.498-8.353 2.784-2.32 6.265-3.945 9.978-5.105 3.945-1.16 8.12-1.625 12.994-1.625 5.57 0 10.675.464 15.548 1.393 4.873.928 8.817 2.32 12.066 4.177l-5.8 15.547c-2.09-1.16-4.874-2.32-8.82-3.48-3.944-.93-8.12-1.625-12.762-1.625-4.408 0-7.657.928-9.978 2.552-2.32 1.623-3.48 3.944-3.48 6.96 0 2.785 1.16 4.874 3.248 6.73 2.09 1.856 4.873 3.48 7.89 4.873 3.25 1.624 6.73 3.017 10.442 4.64 3.713 1.625 7.194 3.482 10.442 5.802 3.25 2.32 5.8 5.105 7.89 8.586 2.088 3.482 3.25 7.658 3.25 12.53 0 5.106-.93 9.283-2.554 12.996-1.624 3.713-3.945 6.73-6.96 9.05-3.018 2.32-6.73 4.177-10.908 5.337-4.177 1.16-9.05 1.856-14.155 1.856-6.73 0-12.762-.697-17.867-1.857-5.105-1.16-8.818-2.552-11.37-3.713l6.033-15.78c.927.465 2.32 1.16 3.943 1.857 1.625.697 3.25 1.16 5.338 1.857l6.266 1.392c2.088.464 4.41.464 6.73.464 5.568 0 9.745-.928 12.53-2.784 3.016-2.09 4.41-4.873 4.41-8.586z"/><path id="svg_9" d="M285.89 244.64l2.32 10.443h.696l1.856-10.674 10.21-37.825h18.1l-20.42 60.797c-1.625 5.105-3.25 9.746-4.873 13.922-1.626 4.177-3.25 7.89-5.106 10.907-1.857 3.017-3.945 5.338-6.266 6.962-2.32 1.624-5.105 2.553-8.12 2.553-4.642 0-8.355-.697-11.14-2.32l3.25-13.924c1.39.465 2.784.697 3.944.697 2.088 0 4.177-.928 6.033-2.552 1.856-1.856 3.48-4.873 4.41-9.514l-28.08-67.293h21.118l12.066 37.824z"/><path id="svg_10" d="M353.647 255.78c0-1.857-.696-3.25-2.32-4.41-1.625-1.16-3.48-2.088-5.57-3.016-2.32-.928-4.64-1.857-7.425-2.785-2.785-.93-5.105-2.32-7.426-3.946-2.32-1.624-4.177-3.712-5.57-6.265-1.623-2.553-2.32-5.802-2.32-9.98 0-6.728 2.09-11.833 6.034-15.314 3.945-3.48 9.746-5.337 17.17-5.337 5.106 0 9.747.463 13.924 1.623s7.426 2.32 9.746 3.713l-3.945 12.762c-2.088-.928-4.64-1.624-7.89-2.552-3.248-.928-6.265-1.392-9.513-1.392-5.105 0-7.89 2.088-7.89 6.033 0 1.624.696 3.017 2.32 3.945 1.625.928 3.48 1.856 5.57 2.784 2.32.928 4.64 1.857 7.425 2.785 2.785.93 5.105 2.32 7.426 3.946 2.32 1.624 4.177 3.712 5.57 6.033 1.623 2.55 2.32 5.8 2.32 9.745 0 6.73-2.09 12.298-6.498 16.01-4.41 3.946-10.906 5.802-19.724 5.802-4.872 0-9.28-.696-13.458-1.856-4.176-1.16-7.657-2.552-10.21-4.176l4.873-12.995c2.09 1.16 4.873 2.32 8.122 3.48 3.48 1.16 6.96 1.625 10.442 1.625 2.552 0 4.64-.465 6.264-1.393 1.625-.928 2.553-2.552 2.553-4.873z"/><path id="svg_11" d="M376.155 206.817h9.282v-12.762l17.636-4.873v17.635h16.475v14.85h-16.475v25.99c0 4.642.464 8.122 1.392 9.98.928 2.087 2.785 3.015 5.337 3.015 1.857 0 3.25-.232 4.64-.464 1.394-.464 2.786-.928 4.41-1.624l3.017 13.46c-2.322 1.16-5.338 2.087-8.587 3.015-3.25.695-6.497 1.16-9.746 1.16-6.265 0-10.674-1.625-13.69-4.874-3.017-3.248-4.41-8.353-4.41-15.78V221.67h-9.282v-14.85z"/><path id="svg_12" d="M482.897 268.542c-2.784 2.088-6.265 3.945-10.906 5.57-4.64 1.39-9.513 2.32-14.85 2.32-10.906 0-18.796-3.25-23.9-9.514-5.106-6.266-7.658-15.084-7.658-25.99 0-11.834 2.784-20.652 8.585-26.685 5.57-6.034 13.69-8.818 23.9-8.818 3.482 0 6.73.464 9.98 1.392 3.248.928 6.033 2.32 8.585 4.41 2.553 2.088 4.64 4.872 6.033 8.353 1.625 3.48 2.32 7.89 2.32 12.994 0 1.857 0 3.945-.23 6.034-.233 2.088-.465 4.41-.93 6.73H443.45c.23 5.568 1.624 9.977 4.408 12.762 2.553 2.784 6.962 4.41 12.995 4.41 3.713 0 6.96-.465 9.978-1.626 3.017-1.16 5.106-2.32 6.73-3.48l5.337 11.138zm-25.06-49.426c-4.642 0-7.89 1.392-10.21 4.177-2.09 2.784-3.482 6.497-3.946 10.906h25.062c.465-4.874-.464-8.587-2.32-11.14-1.856-2.784-4.64-3.944-8.586-3.944z"/><path id="svg_13" d="M518.4 246.265h-4.64v27.846h-17.636V179.67h17.636v55.69l3.944-1.855 15.316-26.918h19.26l-16.244 25.525-6.96 5.105 7.424 5.338 18.1 31.326h-19.724L518.4 246.264z"/></g></g></g></svg>