<svg width="640" height="480" xmlns="http://www.w3.org/2000/svg"><defs><clipPath id="clipPath16"><path d="M-63.697 685.527h841.89V90.247h-841.89v595.28z" id="path18"/></clipPath></defs><g><title>background</title><path fill="none" id="canvas_background" d="M-1-1h642v482H-1z"/></g><g><title>Layer 1</title><g id="g10"><g id="g12"><g id="g14" clip-path="url(#clipPath16)" transform="matrix(.8294 0 0 -.8294 23.694 561.72)"><g id="g20"><path fill="#231f20" d="M235.728 335.336c-14.443 0-24.492 7.223-24.492 22.297v59.19c0 14.288 8.635 23.24 23.08 23.24h44.903V424.83h-39.563c-8.168 0-13.193-3.138-13.193-11.775v-17.9h44.666v-15.072h-44.666v-17.585c0-8.793 5.025-11.932 13.348-11.932h39.407v-15.23h-43.492z" id="path22"/></g><g id="g24"><path fill="#231f20" d="M399.904 424.83c-10.303 0-13.253-3.615-13.35-10.012-.034-2.346.002-5.118.002-8.198 0-3.298.94-6.282 3.61-8.48 2.986-2.353 6.125-2.353 9.738-2.353h13.17c13.502 0 26.11-7.538 26.11-21.512v-16.642c0-14.76-9.764-22.297-24.052-22.297H372.97v15.23h37.61c14.6 0 13.186 7.692 13.186 19.31 0 8.48-5.024 10.68-12.716 10.68h-16.17c-12.72 0-23.554 8.377-23.554 22.04v15.328c0 6.752 2.584 13.046 7.75 17.464 3.87 3.31 9.52 4.674 15.485 4.674h39.7v-15.23h-34.356z" id="path26"/></g><g id="g28"><path fill="#231f20" d="M479.924 424.83v-89.494h-15.23v89.495h-23.21v15.232h61.583v-15.23h-23.143z" id="path30"/></g><g id="g32"><path fill="#231f20" d="M350.176 368.442c0 7.69-4.237 11.46-11.773 11.64H305.59v-29.53h32.813c7.38-.167 11.773 3.13 11.773 10.826v7.064zm-44.658 56.39v-29.676h24.747c7.222 0 12.088 2.946 12.088 10.638v7.694c0 8.008-5.183 11.343-12.562 11.343H305.52zm226.375-89.495c-14.446 0-24.495 7.222-24.495 22.296v59.19c0 14.288 8.637 23.24 23.084 23.24h44.902V424.83h-39.562c-8.17 0-13.192-3.138-13.192-11.775v-17.9h44.665v-15.07H522.63v-17.586c0-8.794 5.023-11.933 13.345-11.933h39.41v-15.23h-43.492zm-177.83 56.556c7.598-3.61 11.344-10.383 11.344-20.783v-11.75c0-14.604-7.378-24.023-22.452-24.023h-52.597v104.725h37.6l7.36-.196c14.978 0 22.292-9.628 22.292-23.708v-9.637c0-6.505-.593-10.838-3.395-14.49l-.152-.137z" id="path34"/></g><g id="g36"><path fill="#231f20" d="M586.495 424.828v15.233h43.725c12.716 0 23.083-7.064 23.237-20.567.156-7.536.156-9.86.156-17.395 0-13.975-8.635-22.456-22.61-22.456h-29.278v-44.306h-15.23v59.855l39.327-.003c8.322 0 12.563.783 12.563 9.417v9.706c0 7.224-5.655 10.52-12.247 10.52l-39.643-.002z" id="path38"/></g><g id="g40"><path fill="#231f20" d="M191.02 440.062l-18.016-78.17-.762-6.48-.737 6.67-14.486 67.073c-1.254 6.594-4.78 11.39-12.16 11.39h-.05c-7.383 0-10.908-4.796-12.16-11.39l-14.503-67.143-.776-6.6-.723 6.547-13.473 58.434c-2.76 13.085-11.613 19.672-24.953 19.672l-17.337.04v-14.84l16.916.006c5.16 0 9.477-3.597 10.583-8.42l16.21-70.473c1.41-5.965 5.758-11.15 12.355-11.15 6.593 0 11.69 4.095 12.943 10.218l14.403 66.83.56 4.75.524-4.763 14.4-66.817c1.253-6.123 6.35-10.217 12.943-10.217 6.597 0 10.945 5.185 12.356 11.15l21.554 93.682h-15.61z" id="path42"/></g></g></g></g></g></svg>