<svg version="1" xmlns="http://www.w3.org/2000/svg" width="693.333" height="693.333" viewBox="0 0 520.000000 520.000000"><g><path d="M371.5 26.9c-9.2 2.6-16.3 6.9-24.1 14.6-29.6 29.4-15.9 80.1 24.7 90.9 8.6 2.3 23.8 1.5 32.2-1.7 22.2-8.5 36.5-30.4 35.2-53.9-1.9-34.6-35.1-58.9-68-49.9zM147.8 110.2c-11.6 1.5-21.1 8.5-26.5 19.5-2.3 4.8-2.7 7-2.7 13.7 0 4.5.4 9 .8 10.1.5 1.1 1 2.6 1.2 3.3.4 2 4.7 8.2 8.3 11.9 1.7 1.7 5.6 4.4 8.8 6 5 2.4 7 2.8 14.3 2.8 10.3 0 17.2-2.8 24-9.6 6.9-7 9.5-13.6 9.5-24.4 0-8.3-.3-9.5-3.4-15.3-3.4-6.1-9.1-12.1-14.3-14.8-5-2.6-14-4-20-3.2zM269.8 175.5c-.2.2-2.5.5-5.3.8-18.1 1.8-35.7 10.2-49 23.4-10.3 10.2-14.6 16.6-20.5 30.8-2.2 5.4-3 8.4-4.5 16.6-2.2 12-.9 28.3 3.2 40.9 8.3 25.5 29.1 46.3 54.5 54.5 10.1 3.3 14.9 3.9 27.8 3.8 39.7-.3 72.7-28.1 81.6-68.8.3-1.7.8-8.4 1-15 .4-17.9-3.7-32.6-13.1-47.5-13.3-20.9-35.7-35.4-59.5-38.5-5.4-.7-15.9-1.3-16.2-1zM450.4 206.9c-14.2 3.7-25 16.9-25.8 31.5-.7 13.1 6.9 26.2 18.4 32.1 16 8 35.6 2.3 44.6-13.1 1.4-2.3 3.1-7.1 3.8-10.7 4.2-20.1-10.3-39.2-30.7-40.2-4-.3-8.6-.1-10.3.4zM65.5 252.1C50.8 255 35.7 266.9 28.8 281 11 317.2 36.9 359.1 77 359c36.1-.1 62.1-36.1 50.6-70.3-3.4-10.1-7.8-16.9-15.4-23.8-12.7-11.4-29.6-16.1-46.7-12.8zM306.3 409.3c-18 5.4-29.8 18.6-32.6 36.8-3.4 22.4 12.6 44.9 34.9 49 26.9 5 51.8-15.8 51.7-43.1-.2-20.4-13.5-37.5-33.1-42.5-6.2-1.6-15.9-1.7-20.9-.2z"/></g></svg>