<svg width="40" xmlns="http://www.w3.org/2000/svg" viewBox="0 0 40 36" height="36"><defs><linearGradient id="a" x2="50%" x1="50%" y2="100%"><stop stop-color="#F88A36" offset="0"/><stop stop-color="#FD2020" offset="1"/></linearGradient></defs><path d="M29.885 33.047c-4.667 2.696-11.084 2.973-17.54.206C7.118 31.03 2.78 27.136 0 22.688c1.335 1.112 2.892 2.002 4.56 2.78 6.667 3.125 13.333 2.91 18.024.008l-.007-.008c-6.673-5.116-12.345-11.79-16.57-17.238-.89-.89-1.56-2.002-2.226-3.003 5.117 4.67 13.236 10.565 16.127 12.234C13.79 11.01 8.34 3.004 8.563 3.226c9.676 9.787 18.685 15.348 18.685 15.348.298.168.528.308.713.433.196-.496.367-1.01.51-1.545C30.03 11.79 28.25 5.34 24.357 0c9.008 5.45 14.347 15.68 12.122 24.245-.058.23-.12.46-.19.683.027.03.053.063.08.096 4.447 5.56 3.224 11.455 2.668 10.343-2.413-4.722-6.88-3.278-9.15-2.32z" fill="url(#a)"/></svg>