<?xml version="1.0" encoding="utf-8"?>
<!-- Generator: Adobe Illustrator 17.0.1, SVG Export Plug-In . SVG Version: 6.00 Build 0)  -->
<!DOCTYPE svg PUBLIC "-//W3C//DTD SVG 1.1//EN" "http://www.w3.org/Graphics/SVG/1.1/DTD/svg11.dtd">
<svg version="1.1" id="Layer_1" xmlns="http://www.w3.org/2000/svg" xmlns:xlink="http://www.w3.org/1999/xlink" x="0px" y="0px"
	 width="185px" height="188px" viewBox="0 0 185 188" enable-background="new 0 0 185 188" xml:space="preserve">

	 <svg id="icon-Mobileeraoslo2016black" width="185" height="62" viewBox="0 0 185 62" x="0" y="0">
 	<path fill="#00dbff" d="M37.629 30.732c0 3.121-2.526 5.647-5.647 5.647-3.116 0-5.646-2.526-5.646-5.647 0-3.116 2.53-5.646 5.646-5.646 3.121 0 5.647 2.53 5.647 5.646z"></path>
 	<path fill="#00dbff" d="M38.244 30.732c0 3.461-2.801 6.262-6.262 6.262-3.455 0-6.261-2.802-6.261-6.262 0-3.455 2.806-6.26 6.261-6.26 3.462 0 6.262 2.805 6.262 6.26z"></path>
 	<path fill="#000333" d="M68.634 23.621v5.785h-3.012v-5.864c0-0.851-0.13-1.476-0.389-1.875s-0.679-0.598-1.256-0.598c-0.579 0-1.091 0.216-1.536 0.648s-0.668 1.067-0.668 1.905v5.785h-2.993v-10.732h2.993v1.217c0.824-0.931 1.768-1.397 2.832-1.397 0.678 0 1.293 0.199 1.846 0.599 0.551 0.398 0.968 0.883 1.247 1.456 0.412-0.652 0.968-1.157 1.665-1.517 0.699-0.359 1.4-0.538 2.105-0.538 1.264 0 2.281 0.376 3.052 1.127 0.771 0.752 1.157 1.839 1.157 3.262v6.523h-3.012v-5.864c0-1.649-0.605-2.473-1.815-2.473-0.598 0-1.117 0.216-1.557 0.648-0.438 0.432-0.658 1.067-0.658 1.905z"></path>
 	<path fill="#000333" d="M80.782 24.040c0 0.877 0.25 1.593 0.748 2.144s1.137 0.828 1.915 0.828c0.778 0 1.416-0.276 1.915-0.828s0.748-1.267 0.748-2.144c0-0.878-0.249-1.596-0.748-2.154s-1.137-0.838-1.915-0.838c-0.779 0-1.416 0.279-1.915 0.838s-0.748 1.276-0.748 2.154zM89.121 24.040c0 1.556-0.538 2.866-1.616 3.93s-2.431 1.595-4.059 1.595c-1.63 0-2.982-0.532-4.061-1.595-1.077-1.064-1.615-2.374-1.615-3.93s0.538-2.869 1.615-3.94c1.078-1.070 2.431-1.606 4.061-1.606 1.628 0 2.981 0.536 4.059 1.606s1.616 2.384 1.616 3.94z"></path>
 	<path fill="#000333" d="M94.286 24.049c0 0.872 0.242 1.583 0.728 2.135s1.075 0.828 1.766 0.828c0.692 0 1.296-0.276 1.814-0.828s0.778-1.26 0.778-2.125c0-0.864-0.252-1.589-0.757-2.174s-1.11-0.878-1.813-0.878c-0.707 0-1.302 0.29-1.788 0.868s-0.728 1.303-0.728 2.174zM97.518 18.494c1.303 0 2.44 0.508 3.411 1.526s1.456 2.324 1.456 3.919c0 1.596-0.499 2.933-1.496 4.010s-2.131 1.616-3.401 1.616c-1.271 0-2.325-0.525-3.162-1.576v1.416h-2.992v-14.802h2.992v5.267c0.824-0.917 1.888-1.376 3.191-1.376z"></path>
 	<path fill="#000333" d="M107.611 29.405h-2.992v-10.732h2.992zM104.869 17.307c-0.339-0.339-0.509-0.755-0.509-1.247 0-0.491 0.17-0.907 0.509-1.247s0.754-0.508 1.247-0.508c0.492 0 0.908 0.169 1.247 0.508s0.509 0.756 0.509 1.247c0 0.493-0.17 0.909-0.509 1.247s-0.755 0.509-1.247 0.509c-0.493 0-0.909-0.17-1.247-0.509z"></path>
 	<path fill="#000333" d="M113.437 29.405h-2.992v-14.801h2.992z"></path>
 	<path fill="#000333" d="M122.692 21.486c-0.412-0.346-0.915-0.519-1.507-0.519s-1.133 0.18-1.625 0.538c-0.493 0.359-0.778 0.845-0.858 1.457h4.708c-0.066-0.638-0.306-1.13-0.718-1.476zM125.564 27.85c-1.211 1.144-2.631 1.715-4.259 1.715s-2.975-0.502-4.038-1.506c-1.065-1.003-1.597-2.35-1.597-4.039s0.543-3.032 1.627-4.029c1.084-0.998 2.363-1.496 3.84-1.496s2.728 0.445 3.76 1.336c1.030 0.892 1.545 2.115 1.545 3.671v1.596h-7.819c0.093 0.585 0.399 1.064 0.918 1.436s1.103 0.558 1.754 0.558c1.051 0 1.915-0.351 2.594-1.057z"></path>
 	<path fill="#000333" d="M135.62 23.322h6.084c0-0.891-0.279-1.576-0.838-2.055s-1.247-0.718-2.064-0.718c-0.818 0-1.553 0.25-2.204 0.748-0.653 0.498-0.978 1.173-0.978 2.025zM143.939 25.077h-8.319c0.054 0.772 0.406 1.393 1.058 1.865s1.396 0.708 2.234 0.708c1.33 0 2.34-0.419 3.031-1.257l1.277 1.397c-1.144 1.184-2.633 1.775-4.468 1.775-1.49 0-2.757-0.495-3.8-1.486s-1.566-2.321-1.566-3.989 0.532-2.996 1.595-3.979c1.064-0.985 2.318-1.476 3.76-1.476s2.67 0.436 3.681 1.306c1.010 0.871 1.517 2.071 1.517 3.6z"></path>
 	<path fill="#000333" d="M151.958 20.888c-1.104 0-1.935 0.359-2.494 1.078s-0.837 1.682-0.837 2.892v4.548h-2.235v-10.612h2.235v2.135c0.359-0.665 0.848-1.21 1.466-1.636 0.618-0.425 1.273-0.645 1.965-0.658l0.021 2.254z"></path>
 	<path fill="#000333" d="M160.594 25.456v-0.898h-2.515c-1.608 0-2.413 0.506-2.413 1.517 0 0.518 0.2 0.914 0.598 1.187s0.955 0.409 1.665 0.409c0.712 0 1.334-0.199 1.866-0.598s0.798-0.937 0.798-1.616zM162.829 29.406h-2.034v-1.416c-0.878 1.051-2.055 1.576-3.531 1.576-1.104 0-2.017-0.312-2.743-0.937s-1.087-1.459-1.087-2.503c0-1.044 0.385-1.826 1.157-2.345s1.814-0.778 3.132-0.778h2.891v-0.399c0-1.409-0.783-2.114-2.352-2.114-0.985 0-2.008 0.359-3.073 1.077l-0.997-1.396c1.289-1.024 2.752-1.536 4.388-1.536 1.25 0 2.27 0.317 3.063 0.948 0.791 0.631 1.187 1.626 1.187 2.982z"></path>
 	<path fill="#adadad" d="M65.052 39.933c-0.55-0.57-1.225-0.854-2.025-0.854s-1.475 0.284-2.025 0.854c-0.55 0.57-0.825 1.26-0.825 2.071 0 0.813 0.275 1.503 0.825 2.073s1.225 0.854 2.025 0.854c0.8 0 1.475-0.284 2.025-0.854s0.825-1.26 0.825-2.073c0-0.811-0.275-1.501-0.825-2.071zM66.050 44.982c-0.816 0.797-1.823 1.195-3.024 1.195s-2.208-0.398-3.023-1.195c-0.816-0.796-1.223-1.788-1.223-2.978s0.408-2.18 1.223-2.977c0.816-0.796 1.823-1.195 3.023-1.195s2.209 0.399 3.024 1.195c0.816 0.797 1.223 1.788 1.223 2.977s-0.408 2.182-1.223 2.978z"></path>
 	<path fill="#adadad" d="M71.434 39.091c-0.396 0-0.722 0.080-0.976 0.241s-0.381 0.407-0.381 0.733c0 0.327 0.127 0.577 0.381 0.75s0.795 0.359 1.622 0.56c0.826 0.199 1.45 0.481 1.869 0.842s0.63 0.894 0.63 1.598c0 0.704-0.266 1.276-0.797 1.714s-1.227 0.658-2.089 0.658c-1.262 0-2.381-0.436-3.359-1.304l0.854-1.028c0.816 0.708 1.662 1.062 2.54 1.062 0.438 0 0.786-0.094 1.044-0.283s0.386-0.439 0.386-0.75-0.121-0.554-0.364-0.727c-0.241-0.174-0.66-0.331-1.252-0.473s-1.043-0.273-1.35-0.393c-0.307-0.12-0.58-0.275-0.819-0.467-0.478-0.362-0.715-0.917-0.715-1.662s0.271-1.322 0.814-1.726c0.542-0.404 1.213-0.605 2.014-0.605 0.515 0 1.027 0.085 1.535 0.254s0.946 0.408 1.315 0.715l-0.726 1.027c-0.239-0.215-0.562-0.392-0.969-0.531-0.408-0.138-0.811-0.207-1.206-0.207z"></path>
 	<path fill="#adadad" d="M76.263 46.096v-8.067h1.362v6.775h3.682v1.292z"></path>
 	<path fill="#adadad" d="M88.317 39.933c-0.55-0.57-1.225-0.854-2.025-0.854s-1.475 0.284-2.025 0.854c-0.551 0.57-0.825 1.26-0.825 2.071 0 0.813 0.275 1.503 0.825 2.073s1.225 0.854 2.025 0.854 1.475-0.284 2.025-0.854c0.55-0.57 0.825-1.26 0.825-2.073 0-0.811-0.275-1.501-0.825-2.071zM89.315 44.982c-0.816 0.797-1.823 1.195-3.023 1.195s-2.208-0.398-3.023-1.195c-0.816-0.796-1.224-1.788-1.224-2.978s0.408-2.18 1.224-2.977c0.816-0.796 1.823-1.195 3.023-1.195s2.208 0.399 3.023 1.195c0.816 0.797 1.223 1.788 1.223 2.977s-0.408 2.182-1.223 2.978z"></path>
 	<path fill="#adadad" d="M98.582 41.18c0.231-0.317 0.346-0.635 0.346-0.958s-0.123-0.598-0.369-0.825c-0.247-0.227-0.558-0.341-0.934-0.341-0.662 0-1.213 0.339-1.651 1.016l-1.096-0.635c0.354-0.531 0.744-0.931 1.171-1.2s0.977-0.404 1.651-0.404c0.672 0 1.264 0.214 1.771 0.641 0.509 0.427 0.762 1.009 0.762 1.748 0 0.415-0.107 0.811-0.324 1.188-0.215 0.377-0.611 0.862-1.188 1.454l-1.892 1.927h3.658v1.304h-5.516v-1.154l2.447-2.458c0.546-0.554 0.934-0.989 1.166-1.304z"></path>
 	<path fill="#adadad" d="M103.573 39.829c-0.319 0.554-0.479 1.281-0.479 2.181s0.16 1.627 0.479 2.182c0.318 0.554 0.817 0.831 1.494 0.831s1.171-0.275 1.483-0.825c0.312-0.55 0.469-1.279 0.469-2.187 0-0.907-0.157-1.636-0.469-2.186s-0.806-0.825-1.483-0.825-1.176 0.277-1.494 0.831zM102.597 45.052c-0.545-0.757-0.819-1.771-0.819-3.041s0.274-2.282 0.819-3.040c0.547-0.758 1.369-1.137 2.47-1.137s1.924 0.378 2.47 1.137 0.82 1.771 0.82 3.040c0 1.27-0.274 2.284-0.82 3.041s-1.37 1.137-2.47 1.137c-1.101 0-1.923-0.379-2.47-1.137z"></path>
 	<path fill="#adadad" d="M109.371 38.030h2.931v8.066h-1.292v-6.855h-1.639z"></path>
 	<path fill="#adadad" d="M117.271 42.103c-0.466 0-0.854 0.129-1.165 0.386s-0.468 0.593-0.468 1.004c0 0.412 0.15 0.765 0.451 1.061s0.677 0.444 1.13 0.444c0.454 0 0.831-0.132 1.131-0.398s0.45-0.605 0.45-1.016c0-0.411-0.138-0.761-0.415-1.051-0.277-0.288-0.649-0.432-1.114-0.432zM117.519 39.103c-0.715 0-1.241 0.241-1.58 0.726s-0.513 1.138-0.52 1.962c0.192-0.215 0.469-0.417 0.831-0.605s0.762-0.283 1.2-0.283c0.723 0 1.329 0.241 1.818 0.722s0.733 1.12 0.733 1.915c0 0.797-0.264 1.437-0.791 1.922s-1.19 0.727-1.991 0.727c-1.292 0-2.185-0.577-2.677-1.73-0.276-0.662-0.416-1.408-0.416-2.239s0.089-1.523 0.266-2.077c0.178-0.554 0.419-0.993 0.728-1.315 0.6-0.631 1.336-0.947 2.209-0.947s1.664 0.274 2.372 0.819l-0.681 1.004c-0.176-0.153-0.413-0.292-0.709-0.415s-0.56-0.184-0.791-0.184z"></path>
 	<path fill="#00dbff" d="M44.194 17.436c0 2.205-1.788 3.993-3.993 3.993s-3.994-1.788-3.994-3.993 1.788-3.993 3.994-3.993c2.205 0 3.993 1.788 3.993 3.993z"></path>
 	<path fill="#00dbff" d="M25.474 22.143c0 1.382-1.12 2.502-2.502 2.502s-2.503-1.12-2.503-2.502 1.12-2.502 2.503-2.502c1.382 0 2.502 1.12 2.502 2.502z"></path>
 	<path fill="#00dbff" d="M38.345 44.704c0 1.778-1.441 3.218-3.218 3.218s-3.219-1.441-3.219-3.218c0-1.778 1.442-3.218 3.219-3.218s3.218 1.441 3.218 3.218z"></path>
 	<path fill="#00dbff" d="M43.987 31.125c-1.065-0.879-1.217-2.457-0.337-3.522s2.457-1.217 3.523-0.337c1.065 0.879 1.216 2.456 0.336 3.522s-2.457 1.216-3.522 0.337z"></path>
 	<path fill="#00dbff" d="M21.363 33.948c0 2.187-1.773 3.961-3.961 3.961s-3.961-1.773-3.961-3.961c0-2.188 1.772-3.961 3.961-3.961s3.961 1.772 3.961 3.961z"></path>
 	</svg>
 	<svg id="icon-Mobileeraoslo2016black2" width="185" height="62" viewBox="0 0 185 62" x="0" y="62">
 	<path fill="#00dbff" d="M37.629 30.732c0 3.121-2.526 5.647-5.647 5.647-3.116 0-5.646-2.526-5.646-5.647 0-3.116 2.53-5.646 5.646-5.646 3.121 0 5.647 2.53 5.647 5.646z"></path>
 	<path fill="#00dbff" d="M38.244 30.732c0 3.461-2.801 6.262-6.262 6.262-3.455 0-6.261-2.802-6.261-6.262 0-3.455 2.806-6.26 6.261-6.26 3.462 0 6.262 2.805 6.262 6.26z"></path>
 	<path fill="#000333" d="M68.634 23.621v5.785h-3.012v-5.864c0-0.851-0.13-1.476-0.389-1.875s-0.679-0.598-1.256-0.598c-0.579 0-1.091 0.216-1.536 0.648s-0.668 1.067-0.668 1.905v5.785h-2.993v-10.732h2.993v1.217c0.824-0.931 1.768-1.397 2.832-1.397 0.678 0 1.293 0.199 1.846 0.599 0.551 0.398 0.968 0.883 1.247 1.456 0.412-0.652 0.968-1.157 1.665-1.517 0.699-0.359 1.4-0.538 2.105-0.538 1.264 0 2.281 0.376 3.052 1.127 0.771 0.752 1.157 1.839 1.157 3.262v6.523h-3.012v-5.864c0-1.649-0.605-2.473-1.815-2.473-0.598 0-1.117 0.216-1.557 0.648-0.438 0.432-0.658 1.067-0.658 1.905z"></path>
 	<path fill="#000333" d="M80.782 24.040c0 0.877 0.25 1.593 0.748 2.144s1.137 0.828 1.915 0.828c0.778 0 1.416-0.276 1.915-0.828s0.748-1.267 0.748-2.144c0-0.878-0.249-1.596-0.748-2.154s-1.137-0.838-1.915-0.838c-0.779 0-1.416 0.279-1.915 0.838s-0.748 1.276-0.748 2.154zM89.121 24.040c0 1.556-0.538 2.866-1.616 3.93s-2.431 1.595-4.059 1.595c-1.63 0-2.982-0.532-4.061-1.595-1.077-1.064-1.615-2.374-1.615-3.93s0.538-2.869 1.615-3.94c1.078-1.070 2.431-1.606 4.061-1.606 1.628 0 2.981 0.536 4.059 1.606s1.616 2.384 1.616 3.94z"></path>
 	<path fill="#000333" d="M94.286 24.049c0 0.872 0.242 1.583 0.728 2.135s1.075 0.828 1.766 0.828c0.692 0 1.296-0.276 1.814-0.828s0.778-1.26 0.778-2.125c0-0.864-0.252-1.589-0.757-2.174s-1.11-0.878-1.813-0.878c-0.707 0-1.302 0.29-1.788 0.868s-0.728 1.303-0.728 2.174zM97.518 18.494c1.303 0 2.44 0.508 3.411 1.526s1.456 2.324 1.456 3.919c0 1.596-0.499 2.933-1.496 4.010s-2.131 1.616-3.401 1.616c-1.271 0-2.325-0.525-3.162-1.576v1.416h-2.992v-14.802h2.992v5.267c0.824-0.917 1.888-1.376 3.191-1.376z"></path>
 	<path fill="#000333" d="M107.611 29.405h-2.992v-10.732h2.992zM104.869 17.307c-0.339-0.339-0.509-0.755-0.509-1.247 0-0.491 0.17-0.907 0.509-1.247s0.754-0.508 1.247-0.508c0.492 0 0.908 0.169 1.247 0.508s0.509 0.756 0.509 1.247c0 0.493-0.17 0.909-0.509 1.247s-0.755 0.509-1.247 0.509c-0.493 0-0.909-0.17-1.247-0.509z"></path>
 	<path fill="#000333" d="M113.437 29.405h-2.992v-14.801h2.992z"></path>
 	<path fill="#000333" d="M122.692 21.486c-0.412-0.346-0.915-0.519-1.507-0.519s-1.133 0.18-1.625 0.538c-0.493 0.359-0.778 0.845-0.858 1.457h4.708c-0.066-0.638-0.306-1.13-0.718-1.476zM125.564 27.85c-1.211 1.144-2.631 1.715-4.259 1.715s-2.975-0.502-4.038-1.506c-1.065-1.003-1.597-2.35-1.597-4.039s0.543-3.032 1.627-4.029c1.084-0.998 2.363-1.496 3.84-1.496s2.728 0.445 3.76 1.336c1.030 0.892 1.545 2.115 1.545 3.671v1.596h-7.819c0.093 0.585 0.399 1.064 0.918 1.436s1.103 0.558 1.754 0.558c1.051 0 1.915-0.351 2.594-1.057z"></path>
 	<path fill="#000333" d="M135.62 23.322h6.084c0-0.891-0.279-1.576-0.838-2.055s-1.247-0.718-2.064-0.718c-0.818 0-1.553 0.25-2.204 0.748-0.653 0.498-0.978 1.173-0.978 2.025zM143.939 25.077h-8.319c0.054 0.772 0.406 1.393 1.058 1.865s1.396 0.708 2.234 0.708c1.33 0 2.34-0.419 3.031-1.257l1.277 1.397c-1.144 1.184-2.633 1.775-4.468 1.775-1.49 0-2.757-0.495-3.8-1.486s-1.566-2.321-1.566-3.989 0.532-2.996 1.595-3.979c1.064-0.985 2.318-1.476 3.76-1.476s2.67 0.436 3.681 1.306c1.010 0.871 1.517 2.071 1.517 3.6z"></path>
 	<path fill="#000333" d="M151.958 20.888c-1.104 0-1.935 0.359-2.494 1.078s-0.837 1.682-0.837 2.892v4.548h-2.235v-10.612h2.235v2.135c0.359-0.665 0.848-1.21 1.466-1.636 0.618-0.425 1.273-0.645 1.965-0.658l0.021 2.254z"></path>
 	<path fill="#000333" d="M160.594 25.456v-0.898h-2.515c-1.608 0-2.413 0.506-2.413 1.517 0 0.518 0.2 0.914 0.598 1.187s0.955 0.409 1.665 0.409c0.712 0 1.334-0.199 1.866-0.598s0.798-0.937 0.798-1.616zM162.829 29.406h-2.034v-1.416c-0.878 1.051-2.055 1.576-3.531 1.576-1.104 0-2.017-0.312-2.743-0.937s-1.087-1.459-1.087-2.503c0-1.044 0.385-1.826 1.157-2.345s1.814-0.778 3.132-0.778h2.891v-0.399c0-1.409-0.783-2.114-2.352-2.114-0.985 0-2.008 0.359-3.073 1.077l-0.997-1.396c1.289-1.024 2.752-1.536 4.388-1.536 1.25 0 2.27 0.317 3.063 0.948 0.791 0.631 1.187 1.626 1.187 2.982z"></path>
 	<path fill="#adadad" d="M65.052 39.933c-0.55-0.57-1.225-0.854-2.025-0.854s-1.475 0.284-2.025 0.854c-0.55 0.57-0.825 1.26-0.825 2.071 0 0.813 0.275 1.503 0.825 2.073s1.225 0.854 2.025 0.854c0.8 0 1.475-0.284 2.025-0.854s0.825-1.26 0.825-2.073c0-0.811-0.275-1.501-0.825-2.071zM66.050 44.982c-0.816 0.797-1.823 1.195-3.024 1.195s-2.208-0.398-3.023-1.195c-0.816-0.796-1.223-1.788-1.223-2.978s0.408-2.18 1.223-2.977c0.816-0.796 1.823-1.195 3.023-1.195s2.209 0.399 3.024 1.195c0.816 0.797 1.223 1.788 1.223 2.977s-0.408 2.182-1.223 2.978z"></path>
 	<path fill="#adadad" d="M71.434 39.091c-0.396 0-0.722 0.080-0.976 0.241s-0.381 0.407-0.381 0.733c0 0.327 0.127 0.577 0.381 0.75s0.795 0.359 1.622 0.56c0.826 0.199 1.45 0.481 1.869 0.842s0.63 0.894 0.63 1.598c0 0.704-0.266 1.276-0.797 1.714s-1.227 0.658-2.089 0.658c-1.262 0-2.381-0.436-3.359-1.304l0.854-1.028c0.816 0.708 1.662 1.062 2.54 1.062 0.438 0 0.786-0.094 1.044-0.283s0.386-0.439 0.386-0.75-0.121-0.554-0.364-0.727c-0.241-0.174-0.66-0.331-1.252-0.473s-1.043-0.273-1.35-0.393c-0.307-0.12-0.58-0.275-0.819-0.467-0.478-0.362-0.715-0.917-0.715-1.662s0.271-1.322 0.814-1.726c0.542-0.404 1.213-0.605 2.014-0.605 0.515 0 1.027 0.085 1.535 0.254s0.946 0.408 1.315 0.715l-0.726 1.027c-0.239-0.215-0.562-0.392-0.969-0.531-0.408-0.138-0.811-0.207-1.206-0.207z"></path>
 	<path fill="#adadad" d="M76.263 46.096v-8.067h1.362v6.775h3.682v1.292z"></path>
 	<path fill="#adadad" d="M88.317 39.933c-0.55-0.57-1.225-0.854-2.025-0.854s-1.475 0.284-2.025 0.854c-0.551 0.57-0.825 1.26-0.825 2.071 0 0.813 0.275 1.503 0.825 2.073s1.225 0.854 2.025 0.854 1.475-0.284 2.025-0.854c0.55-0.57 0.825-1.26 0.825-2.073 0-0.811-0.275-1.501-0.825-2.071zM89.315 44.982c-0.816 0.797-1.823 1.195-3.023 1.195s-2.208-0.398-3.023-1.195c-0.816-0.796-1.224-1.788-1.224-2.978s0.408-2.18 1.224-2.977c0.816-0.796 1.823-1.195 3.023-1.195s2.208 0.399 3.023 1.195c0.816 0.797 1.223 1.788 1.223 2.977s-0.408 2.182-1.223 2.978z"></path>
 	<path fill="#adadad" d="M98.582 41.18c0.231-0.317 0.346-0.635 0.346-0.958s-0.123-0.598-0.369-0.825c-0.247-0.227-0.558-0.341-0.934-0.341-0.662 0-1.213 0.339-1.651 1.016l-1.096-0.635c0.354-0.531 0.744-0.931 1.171-1.2s0.977-0.404 1.651-0.404c0.672 0 1.264 0.214 1.771 0.641 0.509 0.427 0.762 1.009 0.762 1.748 0 0.415-0.107 0.811-0.324 1.188-0.215 0.377-0.611 0.862-1.188 1.454l-1.892 1.927h3.658v1.304h-5.516v-1.154l2.447-2.458c0.546-0.554 0.934-0.989 1.166-1.304z"></path>
 	<path fill="#adadad" d="M103.573 39.829c-0.319 0.554-0.479 1.281-0.479 2.181s0.16 1.627 0.479 2.182c0.318 0.554 0.817 0.831 1.494 0.831s1.171-0.275 1.483-0.825c0.312-0.55 0.469-1.279 0.469-2.187 0-0.907-0.157-1.636-0.469-2.186s-0.806-0.825-1.483-0.825-1.176 0.277-1.494 0.831zM102.597 45.052c-0.545-0.757-0.819-1.771-0.819-3.041s0.274-2.282 0.819-3.040c0.547-0.758 1.369-1.137 2.47-1.137s1.924 0.378 2.47 1.137 0.82 1.771 0.82 3.040c0 1.27-0.274 2.284-0.82 3.041s-1.37 1.137-2.47 1.137c-1.101 0-1.923-0.379-2.47-1.137z"></path>
 	<path fill="#adadad" d="M109.371 38.030h2.931v8.066h-1.292v-6.855h-1.639z"></path>
 	<path fill="#adadad" d="M117.271 42.103c-0.466 0-0.854 0.129-1.165 0.386s-0.468 0.593-0.468 1.004c0 0.412 0.15 0.765 0.451 1.061s0.677 0.444 1.13 0.444c0.454 0 0.831-0.132 1.131-0.398s0.45-0.605 0.45-1.016c0-0.411-0.138-0.761-0.415-1.051-0.277-0.288-0.649-0.432-1.114-0.432zM117.519 39.103c-0.715 0-1.241 0.241-1.58 0.726s-0.513 1.138-0.52 1.962c0.192-0.215 0.469-0.417 0.831-0.605s0.762-0.283 1.2-0.283c0.723 0 1.329 0.241 1.818 0.722s0.733 1.12 0.733 1.915c0 0.797-0.264 1.437-0.791 1.922s-1.19 0.727-1.991 0.727c-1.292 0-2.185-0.577-2.677-1.73-0.276-0.662-0.416-1.408-0.416-2.239s0.089-1.523 0.266-2.077c0.178-0.554 0.419-0.993 0.728-1.315 0.6-0.631 1.336-0.947 2.209-0.947s1.664 0.274 2.372 0.819l-0.681 1.004c-0.176-0.153-0.413-0.292-0.709-0.415s-0.56-0.184-0.791-0.184z"></path>
 	<path fill="#00dbff" d="M44.194 17.436c0 2.205-1.788 3.993-3.993 3.993s-3.994-1.788-3.994-3.993 1.788-3.993 3.994-3.993c2.205 0 3.993 1.788 3.993 3.993z"></path>
 	<path fill="#00dbff" d="M25.474 22.143c0 1.382-1.12 2.502-2.502 2.502s-2.503-1.12-2.503-2.502 1.12-2.502 2.503-2.502c1.382 0 2.502 1.12 2.502 2.502z"></path>
 	<path fill="#00dbff" d="M38.345 44.704c0 1.778-1.441 3.218-3.218 3.218s-3.219-1.441-3.219-3.218c0-1.778 1.442-3.218 3.219-3.218s3.218 1.441 3.218 3.218z"></path>
 	<path fill="#00dbff" d="M43.987 31.125c-1.065-0.879-1.217-2.457-0.337-3.522s2.457-1.217 3.523-0.337c1.065 0.879 1.216 2.456 0.336 3.522s-2.457 1.216-3.522 0.337z"></path>
 	<path fill="#00dbff" d="M21.363 33.948c0 2.187-1.773 3.961-3.961 3.961s-3.961-1.773-3.961-3.961c0-2.188 1.772-3.961 3.961-3.961s3.961 1.772 3.961 3.961z"></path>
 	</svg>
 	<svg id="icon-Mobileeraoslo2016white" width="185" height="62" viewBox="0 0 185 62" x="0" y="124">
 	<path fill="#fff" d="M37.629 30.732c0 3.121-2.526 5.647-5.647 5.647-3.116 0-5.646-2.526-5.646-5.647 0-3.116 2.53-5.646 5.646-5.646 3.121 0 5.647 2.53 5.647 5.646z"></path>
 	<path fill="#fff" d="M38.244 30.732c0 3.461-2.801 6.262-6.262 6.262-3.455 0-6.261-2.802-6.261-6.262 0-3.455 2.806-6.26 6.261-6.26 3.462 0 6.262 2.805 6.262 6.26z"></path>
 	<path fill="#fff" d="M68.634 23.621v5.785h-3.012v-5.864c0-0.851-0.13-1.476-0.389-1.875s-0.679-0.598-1.256-0.598c-0.579 0-1.091 0.216-1.536 0.648s-0.668 1.067-0.668 1.905v5.785h-2.993v-10.732h2.993v1.217c0.824-0.931 1.768-1.397 2.832-1.397 0.678 0 1.293 0.199 1.846 0.599 0.551 0.398 0.968 0.883 1.247 1.456 0.412-0.652 0.968-1.157 1.665-1.517 0.699-0.359 1.4-0.538 2.105-0.538 1.264 0 2.281 0.376 3.052 1.127 0.771 0.752 1.157 1.839 1.157 3.262v6.523h-3.012v-5.864c0-1.649-0.605-2.473-1.815-2.473-0.598 0-1.117 0.216-1.557 0.648-0.438 0.432-0.658 1.067-0.658 1.905z"></path>
 	<path fill="#fff" d="M80.782 24.040c0 0.877 0.25 1.593 0.748 2.144s1.137 0.828 1.915 0.828c0.778 0 1.416-0.276 1.915-0.828s0.748-1.267 0.748-2.144c0-0.878-0.249-1.596-0.748-2.154s-1.137-0.838-1.915-0.838c-0.779 0-1.416 0.279-1.915 0.838s-0.748 1.276-0.748 2.154zM89.121 24.040c0 1.556-0.538 2.866-1.616 3.93s-2.431 1.595-4.059 1.595c-1.63 0-2.982-0.532-4.061-1.595-1.077-1.064-1.615-2.374-1.615-3.93s0.538-2.869 1.615-3.94c1.078-1.070 2.431-1.606 4.061-1.606 1.628 0 2.981 0.536 4.059 1.606s1.616 2.384 1.616 3.94z"></path>
 	<path fill="#fff" d="M94.286 24.049c0 0.872 0.242 1.583 0.728 2.135s1.075 0.828 1.766 0.828c0.692 0 1.296-0.276 1.814-0.828s0.778-1.26 0.778-2.125c0-0.864-0.252-1.589-0.757-2.174s-1.11-0.878-1.813-0.878c-0.707 0-1.302 0.29-1.788 0.868s-0.728 1.303-0.728 2.174zM97.518 18.494c1.303 0 2.44 0.508 3.411 1.526s1.456 2.324 1.456 3.919c0 1.596-0.499 2.933-1.496 4.010s-2.131 1.616-3.401 1.616c-1.271 0-2.325-0.525-3.162-1.576v1.416h-2.992v-14.802h2.992v5.267c0.824-0.917 1.888-1.376 3.191-1.376z"></path>
 	<path fill="#fff" d="M107.611 29.405h-2.992v-10.732h2.992zM104.869 17.307c-0.339-0.339-0.509-0.755-0.509-1.247 0-0.491 0.17-0.907 0.509-1.247s0.754-0.508 1.247-0.508c0.492 0 0.908 0.169 1.247 0.508s0.509 0.756 0.509 1.247c0 0.493-0.17 0.909-0.509 1.247s-0.755 0.509-1.247 0.509c-0.493 0-0.909-0.17-1.247-0.509z"></path>
 	<path fill="#fff" d="M113.437 29.405h-2.992v-14.801h2.992z"></path>
 	<path fill="#fff" d="M122.692 21.486c-0.412-0.346-0.915-0.519-1.507-0.519s-1.133 0.18-1.625 0.538c-0.493 0.359-0.778 0.845-0.858 1.457h4.708c-0.066-0.638-0.306-1.13-0.718-1.476zM125.564 27.85c-1.211 1.144-2.631 1.715-4.259 1.715s-2.975-0.502-4.038-1.506c-1.065-1.003-1.597-2.35-1.597-4.039s0.543-3.032 1.627-4.029c1.084-0.998 2.363-1.496 3.84-1.496s2.728 0.445 3.76 1.336c1.030 0.892 1.545 2.115 1.545 3.671v1.596h-7.819c0.093 0.585 0.399 1.064 0.918 1.436s1.103 0.558 1.754 0.558c1.051 0 1.915-0.351 2.594-1.057z"></path>
 	<path fill="#fff" d="M135.62 23.322h6.084c0-0.891-0.279-1.576-0.838-2.055s-1.247-0.718-2.064-0.718c-0.818 0-1.553 0.25-2.204 0.748-0.653 0.498-0.978 1.173-0.978 2.025zM143.939 25.077h-8.319c0.054 0.772 0.406 1.393 1.058 1.865s1.396 0.708 2.234 0.708c1.33 0 2.34-0.419 3.031-1.257l1.277 1.397c-1.144 1.184-2.633 1.775-4.468 1.775-1.49 0-2.757-0.495-3.8-1.486s-1.566-2.321-1.566-3.989 0.532-2.996 1.595-3.979c1.064-0.985 2.318-1.476 3.76-1.476s2.67 0.436 3.681 1.306c1.010 0.871 1.517 2.071 1.517 3.6z"></path>
 	<path fill="#fff" d="M151.958 20.888c-1.104 0-1.935 0.359-2.494 1.078s-0.837 1.682-0.837 2.892v4.548h-2.235v-10.612h2.235v2.135c0.359-0.665 0.848-1.21 1.466-1.636 0.618-0.425 1.273-0.645 1.965-0.658l0.021 2.254z"></path>
 	<path fill="#fff" d="M160.594 25.456v-0.898h-2.515c-1.608 0-2.413 0.506-2.413 1.517 0 0.518 0.2 0.914 0.598 1.187s0.955 0.409 1.665 0.409c0.712 0 1.334-0.199 1.866-0.598s0.798-0.937 0.798-1.616zM162.829 29.406h-2.034v-1.416c-0.878 1.051-2.055 1.576-3.531 1.576-1.104 0-2.017-0.312-2.743-0.937s-1.087-1.459-1.087-2.503c0-1.044 0.385-1.826 1.157-2.345s1.814-0.778 3.132-0.778h2.891v-0.399c0-1.409-0.783-2.114-2.352-2.114-0.985 0-2.008 0.359-3.073 1.077l-0.997-1.396c1.289-1.024 2.752-1.536 4.388-1.536 1.25 0 2.27 0.317 3.063 0.948 0.791 0.631 1.187 1.626 1.187 2.982z"></path>
 	<path fill="#fff" d="M65.052 39.933c-0.55-0.57-1.225-0.854-2.025-0.854s-1.475 0.284-2.025 0.854c-0.55 0.57-0.825 1.26-0.825 2.071 0 0.813 0.275 1.503 0.825 2.073s1.225 0.854 2.025 0.854c0.8 0 1.475-0.284 2.025-0.854s0.825-1.26 0.825-2.073c0-0.811-0.275-1.501-0.825-2.071zM66.050 44.982c-0.816 0.797-1.823 1.195-3.024 1.195s-2.208-0.398-3.023-1.195c-0.816-0.796-1.223-1.788-1.223-2.978s0.408-2.18 1.223-2.977c0.816-0.796 1.823-1.195 3.023-1.195s2.209 0.399 3.024 1.195c0.816 0.797 1.223 1.788 1.223 2.977s-0.408 2.182-1.223 2.978z"></path>
 	<path fill="#fff" d="M71.434 39.091c-0.396 0-0.722 0.080-0.976 0.241s-0.381 0.407-0.381 0.733c0 0.327 0.127 0.577 0.381 0.75s0.795 0.359 1.622 0.56c0.826 0.199 1.45 0.481 1.869 0.842s0.63 0.894 0.63 1.598c0 0.704-0.266 1.276-0.797 1.714s-1.227 0.658-2.089 0.658c-1.262 0-2.381-0.436-3.359-1.304l0.854-1.028c0.816 0.708 1.662 1.062 2.54 1.062 0.438 0 0.786-0.094 1.044-0.283s0.386-0.439 0.386-0.75-0.121-0.554-0.364-0.727c-0.241-0.174-0.66-0.331-1.252-0.473s-1.043-0.273-1.35-0.393c-0.307-0.12-0.58-0.275-0.819-0.467-0.478-0.362-0.715-0.917-0.715-1.662s0.271-1.322 0.814-1.726c0.542-0.404 1.213-0.605 2.014-0.605 0.515 0 1.027 0.085 1.535 0.254s0.946 0.408 1.315 0.715l-0.726 1.027c-0.239-0.215-0.562-0.392-0.969-0.531-0.408-0.138-0.811-0.207-1.206-0.207z"></path>
 	<path fill="#fff" d="M76.263 46.096v-8.067h1.362v6.775h3.682v1.292z"></path>
 	<path fill="#fff" d="M88.317 39.933c-0.55-0.57-1.225-0.854-2.025-0.854s-1.475 0.284-2.025 0.854c-0.551 0.57-0.825 1.26-0.825 2.071 0 0.813 0.275 1.503 0.825 2.073s1.225 0.854 2.025 0.854 1.475-0.284 2.025-0.854c0.55-0.57 0.825-1.26 0.825-2.073 0-0.811-0.275-1.501-0.825-2.071zM89.315 44.982c-0.816 0.797-1.823 1.195-3.023 1.195s-2.208-0.398-3.023-1.195c-0.816-0.796-1.224-1.788-1.224-2.978s0.408-2.18 1.224-2.977c0.816-0.796 1.823-1.195 3.023-1.195s2.208 0.399 3.023 1.195c0.816 0.797 1.223 1.788 1.223 2.977s-0.408 2.182-1.223 2.978z"></path>
 	<path fill="#fff" d="M98.582 41.18c0.231-0.317 0.346-0.635 0.346-0.958s-0.123-0.598-0.369-0.825c-0.247-0.227-0.558-0.341-0.934-0.341-0.662 0-1.213 0.339-1.651 1.016l-1.096-0.635c0.354-0.531 0.744-0.931 1.171-1.2s0.977-0.404 1.651-0.404c0.672 0 1.264 0.214 1.771 0.641 0.509 0.427 0.762 1.009 0.762 1.748 0 0.415-0.107 0.811-0.324 1.188-0.215 0.377-0.611 0.862-1.188 1.454l-1.892 1.927h3.658v1.304h-5.516v-1.154l2.447-2.458c0.546-0.554 0.934-0.989 1.166-1.304z"></path>
 	<path fill="#fff" d="M103.573 39.829c-0.319 0.554-0.479 1.281-0.479 2.181s0.16 1.627 0.479 2.182c0.318 0.554 0.817 0.831 1.494 0.831s1.171-0.275 1.483-0.825c0.312-0.55 0.469-1.279 0.469-2.187 0-0.907-0.157-1.636-0.469-2.186s-0.806-0.825-1.483-0.825-1.176 0.277-1.494 0.831zM102.597 45.052c-0.545-0.757-0.819-1.771-0.819-3.041s0.274-2.282 0.819-3.040c0.547-0.758 1.369-1.137 2.47-1.137s1.924 0.378 2.47 1.137 0.82 1.771 0.82 3.040c0 1.27-0.274 2.284-0.82 3.041s-1.37 1.137-2.47 1.137c-1.101 0-1.923-0.379-2.47-1.137z"></path>
 	<path fill="#fff" d="M109.371 38.030h2.931v8.066h-1.292v-6.855h-1.639z"></path>
 	<path fill="#fff" d="M117.271 42.103c-0.466 0-0.854 0.129-1.165 0.386s-0.468 0.593-0.468 1.004c0 0.412 0.15 0.765 0.451 1.061s0.677 0.444 1.13 0.444c0.454 0 0.831-0.132 1.131-0.398s0.45-0.605 0.45-1.016c0-0.411-0.138-0.761-0.415-1.051-0.277-0.288-0.649-0.432-1.114-0.432zM117.519 39.103c-0.715 0-1.241 0.241-1.58 0.726s-0.513 1.138-0.52 1.962c0.192-0.215 0.469-0.417 0.831-0.605s0.762-0.283 1.2-0.283c0.723 0 1.329 0.241 1.818 0.722s0.733 1.12 0.733 1.915c0 0.797-0.264 1.437-0.791 1.922s-1.19 0.727-1.991 0.727c-1.292 0-2.185-0.577-2.677-1.73-0.276-0.662-0.416-1.408-0.416-2.239s0.089-1.523 0.266-2.077c0.178-0.554 0.419-0.993 0.728-1.315 0.6-0.631 1.336-0.947 2.209-0.947s1.664 0.274 2.372 0.819l-0.681 1.004c-0.176-0.153-0.413-0.292-0.709-0.415s-0.56-0.184-0.791-0.184z"></path>
 	<path fill="#fff" d="M44.194 17.436c0 2.205-1.788 3.993-3.993 3.993s-3.994-1.788-3.994-3.993 1.788-3.993 3.994-3.993c2.205 0 3.993 1.788 3.993 3.993z"></path>
 	<path fill="#fff" d="M25.474 22.143c0 1.382-1.12 2.502-2.502 2.502s-2.503-1.12-2.503-2.502 1.12-2.502 2.503-2.502c1.382 0 2.502 1.12 2.502 2.502z"></path>
 	<path fill="#fff" d="M38.345 44.704c0 1.778-1.441 3.218-3.218 3.218s-3.219-1.441-3.219-3.218c0-1.778 1.442-3.218 3.219-3.218s3.218 1.441 3.218 3.218z"></path>
 	<path fill="#fff" d="M43.987 31.125c-1.065-0.879-1.217-2.457-0.337-3.522s2.457-1.217 3.523-0.337c1.065 0.879 1.216 2.456 0.336 3.522s-2.457 1.216-3.522 0.337z"></path>
 	<path fill="#fff" d="M21.363 33.948c0 2.187-1.773 3.961-3.961 3.961s-3.961-1.773-3.961-3.961c0-2.188 1.772-3.961 3.961-3.961s3.961 1.772 3.961 3.961z"></path>
 	</svg>

</svg>
