<svg width="185" height="188" xmlns="http://www.w3.org/2000/svg"><g><title>background</title><path fill="none" id="canvas_background" d="M-1-1h582v402H-1z"/></g><g><title>Layer 1</title><g id="svg_94"><path id="svg_10" d="M68.634 23.62v5.786h-3.012v-5.864c0-.85-.13-1.476-.39-1.875s-.678-.598-1.255-.598c-.58 0-1.09.215-1.536.647s-.667 1.067-.667 1.905v5.785H58.78V18.675h2.993v1.217c.824-.93 1.768-1.397 2.832-1.397.678 0 1.293.2 1.846.6.552.397.97.882 1.248 1.455.412-.652.968-1.157 1.665-1.517.7-.36 1.4-.538 2.105-.538 1.264 0 2.28.376 3.052 1.127.77.752 1.157 1.84 1.157 3.262v6.523h-3.012v-5.864c0-1.65-.605-2.473-1.815-2.473-.598 0-1.117.216-1.557.648-.438.432-.658 1.067-.658 1.905v-.002z" fill="#000333"/><path id="svg_11" d="M80.782 24.04c0 .877.25 1.593.748 2.144s1.137.828 1.915.828 1.416-.276 1.915-.828.748-1.267.748-2.144c0-.878-.25-1.596-.748-2.154s-1.137-.838-1.915-.838c-.78 0-1.416.28-1.915.838s-.748 1.276-.748 2.154zm8.34 0c0 1.556-.54 2.866-1.617 3.93s-2.43 1.595-4.06 1.595c-1.63 0-2.98-.532-4.06-1.595-1.077-1.064-1.615-2.374-1.615-3.93s.538-2.87 1.615-3.94c1.078-1.07 2.43-1.606 4.06-1.606 1.63 0 2.982.536 4.06 1.606s1.616 2.384 1.616 3.94z" fill="#000333"/><path id="svg_12" d="M94.286 24.05c0 .87.242 1.582.728 2.134s1.075.828 1.766.828c.692 0 1.296-.276 1.814-.828s.778-1.26.778-2.125-.252-1.59-.757-2.175-1.11-.878-1.813-.878c-.707 0-1.302.29-1.788.868s-.728 1.303-.728 2.174zm3.232-5.556c1.303 0 2.44.508 3.41 1.526s1.457 2.324 1.457 3.92c0 1.595-.5 2.932-1.496 4.01s-2.132 1.615-3.402 1.615-2.325-.525-3.162-1.576v1.415h-2.992V14.603h2.992v5.267c.824-.917 1.888-1.376 3.19-1.376h.002z" fill="#000333"/><path id="svg_13" d="M107.61 29.405h-2.99V18.673h2.99v10.732zm-2.74-12.098c-.34-.34-.51-.755-.51-1.247 0-.49.17-.907.51-1.247s.753-.508 1.246-.508c.492 0 .908.17 1.247.508s.51.756.51 1.247c0 .493-.17.91-.51 1.247s-.755.51-1.247.51c-.493 0-.91-.17-1.247-.51z" fill="#000333"/><path id="svg_14" d="M113.437 29.405h-2.992v-14.8h2.992v14.8z" fill="#000333"/><path id="svg_15" d="M122.692 21.486c-.412-.346-.915-.52-1.507-.52s-1.133.18-1.625.54c-.493.358-.778.844-.858 1.456h4.708c-.066-.638-.306-1.13-.718-1.476zm2.872 6.364c-1.21 1.144-2.63 1.715-4.26 1.715s-2.974-.502-4.037-1.506c-1.065-1.004-1.597-2.35-1.597-4.04s.543-3.032 1.627-4.03c1.084-.997 2.363-1.495 3.84-1.495s2.728.445 3.76 1.336c1.03.893 1.545 2.116 1.545 3.672v1.596h-7.82c.094.585.4 1.064.92 1.436s1.102.558 1.753.558c1.05 0 1.915-.35 2.594-1.057l1.674 1.815z" fill="#000333"/><path id="svg_16" d="M135.62 23.322h6.084c0-.89-.28-1.576-.838-2.055s-1.247-.718-2.064-.718c-.818 0-1.553.25-2.204.747-.653.498-.978 1.173-.978 2.025zm8.32 1.755h-8.32c.054.772.406 1.393 1.058 1.865s1.396.708 2.234.708c1.33 0 2.34-.42 3.03-1.257l1.278 1.397c-1.144 1.184-2.633 1.775-4.468 1.775-1.49 0-2.757-.495-3.8-1.486s-1.566-2.322-1.566-3.99.532-2.996 1.595-3.98c1.065-.984 2.32-1.475 3.76-1.475s2.67.436 3.682 1.306c1.01.872 1.517 2.072 1.517 3.6v1.537z" fill="#000333"/><path id="svg_17" d="M151.958 20.888c-1.104 0-1.935.36-2.494 1.078s-.837 1.682-.837 2.892v4.548h-2.235V18.794h2.235v2.135c.36-.666.848-1.21 1.466-1.637.618-.425 1.273-.645 1.965-.658l.02 2.254-.12-.002z" fill="#000333"/><path id="svg_18" d="M160.594 25.456v-.898h-2.515c-1.61 0-2.414.506-2.414 1.517 0 .518.2.914.598 1.187s.955.41 1.665.41c.71 0 1.333-.2 1.865-.6s.798-.936.798-1.615zm2.235 3.95h-2.035V27.99c-.878 1.05-2.055 1.576-3.53 1.576-1.105 0-2.018-.312-2.744-.937s-1.086-1.46-1.086-2.504.385-1.826 1.157-2.345 1.815-.777 3.133-.777h2.89v-.4c0-1.408-.782-2.113-2.35-2.113-.986 0-2.01.36-3.074 1.077l-.998-1.396c1.29-1.023 2.752-1.535 4.388-1.535 1.25 0 2.27.317 3.063.948.79.63 1.187 1.626 1.187 2.982v6.84z" fill="#000333"/><path id="svg_19" d="M65.052 39.933c-.55-.57-1.225-.854-2.025-.854s-1.475.283-2.025.853c-.55.57-.825 1.26-.825 2.07 0 .814.275 1.504.825 2.074s1.225.854 2.025.854c.8 0 1.475-.283 2.025-.853s.825-1.26.825-2.073c0-.81-.275-1.5-.825-2.07zm.998 5.05c-.816.796-1.823 1.194-3.024 1.194s-2.208-.398-3.023-1.195c-.816-.796-1.223-1.788-1.223-2.978s.408-2.18 1.223-2.977c.816-.796 1.823-1.195 3.023-1.195s2.21.4 3.024 1.195c.816.797 1.223 1.788 1.223 2.977s-.408 2.182-1.223 2.978z" fill="#adadad"/><path id="svg_20" d="M71.434 39.09c-.396 0-.722.08-.976.242s-.38.407-.38.733c0 .327.126.577.38.75s.795.36 1.622.56c.826.2 1.45.48 1.87.842s.63.894.63 1.598c0 .704-.267 1.276-.798 1.714s-1.227.657-2.09.657c-1.26 0-2.38-.436-3.358-1.304l.854-1.028c.816.708 1.662 1.062 2.54 1.062.438 0 .786-.094 1.044-.283s.386-.44.386-.75-.12-.554-.364-.727c-.24-.174-.66-.33-1.252-.473s-1.043-.273-1.35-.393c-.307-.12-.58-.274-.82-.466-.477-.362-.714-.917-.714-1.662s.27-1.322.814-1.726c.542-.404 1.213-.605 2.014-.605.515 0 1.027.086 1.535.255s.947.408 1.316.715l-.726 1.027c-.24-.215-.562-.392-.97-.53-.407-.14-.81-.208-1.205-.208z" fill="#adadad"/><path id="svg_21" d="M76.263 46.096V38.03h1.362v6.774h3.682v1.292h-5.044z" fill="#adadad"/><path id="svg_22" d="M88.317 39.933c-.55-.57-1.225-.854-2.025-.854s-1.475.283-2.025.853c-.55.57-.825 1.26-.825 2.07 0 .814.275 1.504.825 2.074s1.225.854 2.025.854 1.475-.283 2.025-.853c.55-.57.825-1.26.825-2.073 0-.81-.275-1.5-.825-2.07zm.998 5.05c-.816.796-1.823 1.194-3.023 1.194s-2.208-.398-3.023-1.195c-.817-.796-1.225-1.788-1.225-2.978s.408-2.18 1.224-2.977c.815-.796 1.822-1.195 3.022-1.195s2.208.4 3.023 1.195c.816.797 1.223 1.788 1.223 2.977s-.408 2.182-1.223 2.978z" fill="#adadad"/><path id="svg_23" d="M98.582 41.18c.23-.317.346-.635.346-.958s-.123-.598-.37-.825c-.246-.227-.557-.34-.933-.34-.662 0-1.213.338-1.65 1.015l-1.097-.635c.354-.53.744-.93 1.17-1.2s.978-.404 1.652-.404c.672 0 1.264.214 1.77.64.51.428.763 1.01.763 1.75 0 .414-.107.81-.324 1.187-.216.377-.612.862-1.19 1.454l-1.89 1.927h3.657v1.305H94.97V44.94l2.448-2.457c.546-.554.934-.99 1.166-1.304h-.002z" fill="#adadad"/><path id="svg_24" d="M103.573 39.83c-.32.553-.48 1.28-.48 2.18s.16 1.627.48 2.182c.318.554.817.83 1.494.83s1.17-.274 1.483-.824c.312-.55.47-1.28.47-2.187 0-.906-.158-1.635-.47-2.185s-.806-.825-1.483-.825-1.176.277-1.494.83zm-.976 5.222c-.545-.757-.82-1.77-.82-3.04s.275-2.283.82-3.04c.547-.76 1.37-1.138 2.47-1.138s1.924.378 2.47 1.137.82 1.772.82 3.04c0 1.27-.274 2.285-.82 3.042s-1.37 1.137-2.47 1.137-1.923-.38-2.47-1.138z" fill="#adadad"/><path id="svg_25" d="M109.37 38.03h2.932v8.066h-1.292V39.24h-1.64v-1.21z" fill="#adadad"/><path id="svg_26" d="M117.27 42.103c-.465 0-.853.13-1.164.386s-.468.592-.468 1.003c0 .412.15.765.45 1.06s.678.445 1.13.445c.455 0 .832-.132 1.132-.398s.45-.605.45-1.016c0-.41-.138-.76-.415-1.05-.277-.29-.65-.433-1.114-.433v.003zm.25-3c-.716 0-1.242.24-1.58.726s-.514 1.137-.52 1.96c.19-.214.468-.416.83-.604s.762-.283 1.2-.283c.723 0 1.33.24 1.818.722s.733 1.12.733 1.915c0 .797-.263 1.437-.79 1.922s-1.19.727-1.99.727c-1.293 0-2.186-.578-2.678-1.73-.276-.663-.416-1.41-.416-2.24s.09-1.523.266-2.077c.178-.554.42-.993.728-1.315.6-.63 1.336-.947 2.21-.947s1.663.275 2.37.82l-.68 1.004c-.176-.153-.413-.292-.71-.415s-.56-.185-.79-.185v-.002z" fill="#adadad"/><path id="svg_27" d="M44.194 17.436c0 2.205-1.788 3.993-3.993 3.993s-3.993-1.79-3.993-3.994 1.788-3.993 3.994-3.993c2.206 0 3.994 1.788 3.994 3.993z" fill="#00dbff"/><path id="svg_28" d="M25.474 22.143c0 1.382-1.12 2.502-2.502 2.502s-2.503-1.12-2.503-2.502 1.12-2.502 2.502-2.502c1.382 0 2.502 1.12 2.502 2.503z" fill="#00dbff"/><path id="svg_29" d="M38.345 44.704c0 1.778-1.44 3.218-3.218 3.218s-3.22-1.44-3.22-3.218 1.443-3.218 3.22-3.218 3.218 1.44 3.218 3.218z" fill="#00dbff"/><path id="svg_30" d="M43.987 31.125c-1.065-.88-1.217-2.457-.337-3.522s2.457-1.217 3.523-.337c1.065.88 1.216 2.456.336 3.522s-2.458 1.216-3.523.337z" fill="#00dbff"/><path id="svg_31" d="M21.363 33.948c0 2.187-1.773 3.96-3.96 3.96s-3.962-1.772-3.962-3.96c0-2.188 1.773-3.96 3.962-3.96s3.96 1.77 3.96 3.96z" fill="#00dbff"/><path id="svg_9" d="M38.244 30.732c0 3.46-2.8 6.262-6.262 6.262-3.455 0-6.26-2.802-6.26-6.262 0-3.455 2.805-6.26 6.26-6.26 3.462 0 6.262 2.805 6.262 6.26z" fill="#00dbff"/></g><g id="svg_95"><path id="svg_34" d="M68.634 85.62v5.786h-3.012v-5.864c0-.85-.13-1.476-.39-1.875s-.678-.598-1.255-.598c-.58 0-1.09.215-1.536.647s-.667 1.067-.667 1.905v5.785H58.78V80.675h2.993v1.217c.824-.93 1.768-1.397 2.832-1.397.678 0 1.293.2 1.846.6.552.397.97.882 1.248 1.455.412-.652.968-1.157 1.665-1.517.7-.36 1.4-.538 2.105-.538 1.264 0 2.28.376 3.052 1.127.77.752 1.157 1.84 1.157 3.262v6.523h-3.012v-5.864c0-1.65-.605-2.473-1.815-2.473-.598 0-1.117.216-1.557.648-.438.432-.658 1.067-.658 1.905v-.002z" fill="#000333"/><path id="svg_35" d="M80.782 86.04c0 .877.25 1.593.748 2.144s1.137.828 1.915.828 1.416-.276 1.915-.828.748-1.267.748-2.144c0-.878-.25-1.596-.748-2.154s-1.137-.838-1.915-.838c-.78 0-1.416.28-1.915.838s-.748 1.276-.748 2.154zm8.34 0c0 1.556-.54 2.866-1.617 3.93s-2.43 1.595-4.06 1.595c-1.63 0-2.98-.532-4.06-1.595-1.077-1.064-1.615-2.374-1.615-3.93s.538-2.87 1.615-3.94c1.078-1.07 2.43-1.606 4.06-1.606 1.63 0 2.982.536 4.06 1.606s1.616 2.384 1.616 3.94z" fill="#000333"/><path id="svg_36" d="M94.286 86.05c0 .87.242 1.582.728 2.134s1.075.828 1.766.828c.692 0 1.296-.276 1.814-.828s.778-1.26.778-2.125-.252-1.59-.757-2.175-1.11-.878-1.813-.878c-.707 0-1.302.29-1.788.868s-.728 1.303-.728 2.174zm3.232-5.556c1.303 0 2.44.508 3.41 1.526s1.457 2.324 1.457 3.92c0 1.595-.5 2.932-1.496 4.01s-2.132 1.615-3.402 1.615-2.325-.525-3.162-1.576v1.415h-2.992V76.603h2.992v5.267c.824-.917 1.888-1.376 3.19-1.376h.002z" fill="#000333"/><path id="svg_37" d="M107.61 91.405h-2.99V80.673h2.99v10.732zm-2.74-12.098c-.34-.34-.51-.755-.51-1.247 0-.49.17-.907.51-1.247s.753-.508 1.246-.508c.492 0 .908.17 1.247.508s.51.756.51 1.247c0 .493-.17.91-.51 1.247s-.755.51-1.247.51c-.493 0-.91-.17-1.247-.51z" fill="#000333"/><path id="svg_38" d="M113.437 91.405h-2.992v-14.8h2.992v14.8z" fill="#000333"/><path id="svg_39" d="M122.692 83.486c-.412-.346-.915-.52-1.507-.52s-1.133.18-1.625.54c-.493.358-.778.844-.858 1.456h4.708c-.066-.638-.306-1.13-.718-1.476zm2.872 6.364c-1.21 1.144-2.63 1.715-4.26 1.715s-2.974-.502-4.037-1.506c-1.065-1.004-1.597-2.35-1.597-4.04s.543-3.032 1.627-4.03c1.084-.997 2.363-1.495 3.84-1.495s2.728.445 3.76 1.336c1.03.893 1.545 2.116 1.545 3.672v1.596h-7.82c.094.585.4 1.064.92 1.436s1.102.558 1.753.558c1.05 0 1.915-.35 2.594-1.057l1.674 1.815z" fill="#000333"/><path id="svg_40" d="M135.62 85.322h6.084c0-.89-.28-1.576-.838-2.055s-1.247-.718-2.064-.718c-.818 0-1.553.25-2.204.747-.653.498-.978 1.173-.978 2.025zm8.32 1.755h-8.32c.054.772.406 1.393 1.058 1.865s1.396.708 2.234.708c1.33 0 2.34-.42 3.03-1.257l1.278 1.397c-1.144 1.184-2.633 1.775-4.468 1.775-1.49 0-2.757-.495-3.8-1.486s-1.566-2.322-1.566-3.99.532-2.996 1.595-3.98c1.065-.984 2.32-1.475 3.76-1.475s2.67.436 3.682 1.306c1.01.872 1.517 2.072 1.517 3.6v1.537z" fill="#000333"/><path id="svg_41" d="M151.958 82.888c-1.104 0-1.935.36-2.494 1.078s-.837 1.682-.837 2.892v4.548h-2.235V80.794h2.235v2.135c.36-.666.848-1.21 1.466-1.637.618-.425 1.273-.645 1.965-.658l.02 2.254-.12-.002z" fill="#000333"/><path id="svg_42" d="M160.594 87.456v-.898h-2.515c-1.61 0-2.414.506-2.414 1.517 0 .518.2.914.598 1.187s.955.41 1.665.41c.71 0 1.333-.2 1.865-.6s.798-.936.798-1.615zm2.235 3.95h-2.035V89.99c-.878 1.05-2.055 1.576-3.53 1.576-1.105 0-2.018-.312-2.744-.937s-1.086-1.46-1.086-2.504.385-1.826 1.157-2.345 1.815-.777 3.133-.777h2.89v-.4c0-1.408-.782-2.113-2.35-2.113-.986 0-2.01.36-3.074 1.077l-.998-1.396c1.29-1.023 2.752-1.535 4.388-1.535 1.25 0 2.27.317 3.063.948.79.63 1.187 1.626 1.187 2.982v6.84z" fill="#000333"/><path id="svg_43" d="M65.052 101.933c-.55-.57-1.225-.854-2.025-.854s-1.475.283-2.025.853c-.55.57-.825 1.26-.825 2.07 0 .814.275 1.504.825 2.074s1.225.854 2.025.854c.8 0 1.475-.283 2.025-.853s.825-1.26.825-2.073c0-.81-.275-1.5-.825-2.07zm.998 5.05c-.816.796-1.823 1.194-3.024 1.194s-2.208-.398-3.023-1.195c-.816-.796-1.223-1.788-1.223-2.978s.408-2.18 1.223-2.977c.816-.796 1.823-1.195 3.023-1.195s2.21.4 3.024 1.195c.816.797 1.223 1.788 1.223 2.977s-.408 2.182-1.223 2.978z" fill="#adadad"/><path id="svg_44" d="M71.434 101.09c-.396 0-.722.08-.976.242s-.38.407-.38.733c0 .327.126.577.38.75s.795.36 1.622.56c.826.2 1.45.48 1.87.842s.63.894.63 1.598c0 .704-.267 1.276-.798 1.714s-1.227.657-2.09.657c-1.26 0-2.38-.436-3.358-1.304l.854-1.028c.816.708 1.662 1.062 2.54 1.062.438 0 .786-.094 1.044-.283s.386-.44.386-.75-.12-.554-.364-.727c-.24-.174-.66-.33-1.252-.473s-1.043-.273-1.35-.393c-.307-.12-.58-.274-.82-.466-.477-.362-.714-.917-.714-1.662s.27-1.322.814-1.726c.542-.404 1.213-.605 2.014-.605.515 0 1.027.086 1.535.255s.947.408 1.316.715l-.726 1.027c-.24-.215-.562-.392-.97-.53-.407-.14-.81-.208-1.205-.208z" fill="#adadad"/><path id="svg_45" d="M76.263 108.096v-8.067h1.362v6.774h3.682v1.292h-5.044z" fill="#adadad"/><path id="svg_46" d="M88.317 101.933c-.55-.57-1.225-.854-2.025-.854s-1.475.283-2.025.853c-.55.57-.825 1.26-.825 2.07 0 .814.275 1.504.825 2.074s1.225.854 2.025.854 1.475-.283 2.025-.853c.55-.57.825-1.26.825-2.073 0-.81-.275-1.5-.825-2.07zm.998 5.05c-.816.796-1.823 1.194-3.023 1.194s-2.208-.398-3.023-1.195c-.817-.796-1.225-1.788-1.225-2.978s.408-2.18 1.224-2.977c.815-.796 1.822-1.195 3.022-1.195s2.208.4 3.023 1.195c.816.797 1.223 1.788 1.223 2.977s-.408 2.182-1.223 2.978z" fill="#adadad"/><path id="svg_47" d="M98.582 103.18c.23-.317.346-.635.346-.958s-.123-.598-.37-.825c-.246-.227-.557-.34-.933-.34-.662 0-1.213.338-1.65 1.015l-1.097-.635c.354-.53.744-.93 1.17-1.2s.978-.404 1.652-.404c.672 0 1.264.214 1.77.64.51.428.763 1.01.763 1.75 0 .414-.107.81-.324 1.187-.216.377-.612.862-1.19 1.454l-1.89 1.927h3.657v1.305H94.97v-1.154l2.448-2.457c.546-.554.934-.99 1.166-1.304h-.002z" fill="#adadad"/><path id="svg_48" d="M103.573 101.83c-.32.553-.48 1.28-.48 2.18s.16 1.627.48 2.182c.318.554.817.83 1.494.83s1.17-.274 1.483-.824c.312-.55.47-1.28.47-2.187 0-.906-.158-1.635-.47-2.185s-.806-.825-1.483-.825-1.176.277-1.494.83zm-.976 5.222c-.545-.757-.82-1.77-.82-3.04s.275-2.283.82-3.04c.547-.76 1.37-1.138 2.47-1.138s1.924.378 2.47 1.137.82 1.772.82 3.04c0 1.27-.274 2.285-.82 3.042s-1.37 1.137-2.47 1.137-1.923-.38-2.47-1.138z" fill="#adadad"/><path id="svg_49" d="M109.37 100.03h2.932v8.066h-1.292v-6.855h-1.64v-1.21z" fill="#adadad"/><path id="svg_50" d="M117.27 104.103c-.465 0-.853.13-1.164.386s-.468.592-.468 1.003c0 .412.15.765.45 1.06s.678.445 1.13.445c.455 0 .832-.132 1.132-.398s.45-.605.45-1.016c0-.41-.138-.76-.415-1.05-.277-.29-.65-.433-1.114-.433v.003zm.25-3c-.716 0-1.242.24-1.58.726s-.514 1.137-.52 1.96c.19-.214.468-.416.83-.604s.762-.283 1.2-.283c.723 0 1.33.24 1.818.722s.733 1.12.733 1.915c0 .797-.263 1.437-.79 1.922s-1.19.727-1.99.727c-1.293 0-2.186-.578-2.678-1.73-.276-.663-.416-1.41-.416-2.24s.09-1.523.266-2.077c.178-.554.42-.993.728-1.315.6-.63 1.336-.947 2.21-.947s1.663.275 2.37.82l-.68 1.004c-.176-.153-.413-.292-.71-.415s-.56-.185-.79-.185v-.002z" fill="#adadad"/><path id="svg_51" d="M44.194 79.436c0 2.205-1.788 3.993-3.993 3.993s-3.993-1.79-3.993-3.994 1.788-3.993 3.994-3.993c2.206 0 3.994 1.788 3.994 3.993z" fill="#00dbff"/><path id="svg_52" d="M25.474 84.143c0 1.382-1.12 2.502-2.502 2.502s-2.503-1.12-2.503-2.502 1.12-2.502 2.502-2.502c1.382 0 2.502 1.12 2.502 2.503z" fill="#00dbff"/><path id="svg_53" d="M38.345 106.704c0 1.778-1.44 3.218-3.218 3.218s-3.22-1.44-3.22-3.218 1.443-3.218 3.22-3.218 3.218 1.44 3.218 3.218z" fill="#00dbff"/><path id="svg_54" d="M43.987 93.125c-1.065-.88-1.217-2.457-.337-3.522s2.457-1.217 3.523-.337c1.065.88 1.216 2.456.336 3.522s-2.458 1.216-3.523.337z" fill="#00dbff"/><path id="svg_55" d="M21.363 95.948c0 2.187-1.773 3.96-3.96 3.96s-3.962-1.772-3.962-3.96c0-2.188 1.773-3.96 3.962-3.96s3.96 1.77 3.96 3.96z" fill="#00dbff"/><path id="svg_33" d="M38.244 92.732c0 3.46-2.8 6.262-6.262 6.262-3.455 0-6.26-2.802-6.26-6.262 0-3.455 2.805-6.26 6.26-6.26 3.462 0 6.262 2.805 6.262 6.26z" fill="#00dbff"/></g><g id="svg_96" fill="#fff"><path id="svg_57" d="M68.634 147.62v5.786h-3.012v-5.864c0-.85-.13-1.476-.39-1.875s-.678-.598-1.255-.598c-.58 0-1.09.215-1.536.647s-.667 1.067-.667 1.905v5.785H58.78v-10.732h2.993v1.217c.824-.93 1.768-1.397 2.832-1.397.678 0 1.293.2 1.846.6.552.397.97.882 1.248 1.455.412-.652.968-1.157 1.665-1.517.7-.36 1.4-.538 2.105-.538 1.264 0 2.28.376 3.052 1.127.77.752 1.157 1.84 1.157 3.262v6.523h-3.012v-5.864c0-1.65-.605-2.473-1.815-2.473-.598 0-1.117.216-1.557.648-.438.432-.658 1.067-.658 1.905v-.002z"/><path id="svg_58" d="M80.782 148.04c0 .877.25 1.593.748 2.144s1.137.828 1.915.828 1.416-.276 1.915-.828.748-1.267.748-2.144c0-.878-.25-1.596-.748-2.154s-1.137-.838-1.915-.838c-.78 0-1.416.28-1.915.838s-.748 1.276-.748 2.154zm8.34 0c0 1.556-.54 2.866-1.617 3.93s-2.43 1.595-4.06 1.595c-1.63 0-2.98-.532-4.06-1.595-1.077-1.064-1.615-2.374-1.615-3.93s.538-2.87 1.615-3.94c1.078-1.07 2.43-1.606 4.06-1.606 1.63 0 2.982.536 4.06 1.606s1.616 2.384 1.616 3.94z"/><path id="svg_59" d="M94.286 148.05c0 .87.242 1.582.728 2.134s1.075.828 1.766.828c.692 0 1.296-.276 1.814-.828s.778-1.26.778-2.125-.252-1.59-.757-2.175-1.11-.878-1.813-.878c-.707 0-1.302.29-1.788.868s-.728 1.303-.728 2.174zm3.232-5.556c1.303 0 2.44.508 3.41 1.526s1.457 2.324 1.457 3.92c0 1.595-.5 2.932-1.496 4.01s-2.132 1.615-3.402 1.615-2.325-.525-3.162-1.576v1.415h-2.992v-14.802h2.992v5.267c.824-.917 1.888-1.376 3.19-1.376h.002z"/><path id="svg_60" d="M107.61 153.405h-2.99v-10.732h2.99v10.732zm-2.74-12.098c-.34-.34-.51-.755-.51-1.247 0-.49.17-.907.51-1.247s.753-.508 1.246-.508c.492 0 .908.17 1.247.508s.51.756.51 1.247c0 .493-.17.91-.51 1.247s-.755.51-1.247.51c-.493 0-.91-.17-1.247-.51z"/><path id="svg_61" d="M113.437 153.405h-2.992v-14.8h2.992v14.8z"/><path id="svg_62" d="M122.692 145.486c-.412-.346-.915-.52-1.507-.52s-1.133.18-1.625.54c-.493.358-.778.844-.858 1.456h4.708c-.066-.638-.306-1.13-.718-1.476zm2.872 6.364c-1.21 1.144-2.63 1.715-4.26 1.715s-2.974-.502-4.037-1.506c-1.065-1.004-1.597-2.35-1.597-4.04s.543-3.032 1.627-4.03c1.084-.997 2.363-1.495 3.84-1.495s2.728.445 3.76 1.336c1.03.893 1.545 2.116 1.545 3.672v1.596h-7.82c.094.585.4 1.064.92 1.436s1.102.558 1.753.558c1.05 0 1.915-.35 2.594-1.057l1.674 1.815z"/><path id="svg_63" d="M135.62 147.322h6.084c0-.89-.28-1.576-.838-2.055s-1.247-.718-2.064-.718c-.818 0-1.553.25-2.204.747-.653.498-.978 1.173-.978 2.025zm8.32 1.755h-8.32c.054.772.406 1.393 1.058 1.865s1.396.708 2.234.708c1.33 0 2.34-.42 3.03-1.257l1.278 1.397c-1.144 1.184-2.633 1.775-4.468 1.775-1.49 0-2.757-.495-3.8-1.486s-1.566-2.322-1.566-3.99.532-2.996 1.595-3.98c1.065-.984 2.32-1.475 3.76-1.475s2.67.436 3.682 1.306c1.01.872 1.517 2.072 1.517 3.6v1.537z"/><path id="svg_64" d="M151.958 144.888c-1.104 0-1.935.36-2.494 1.078s-.837 1.682-.837 2.892v4.548h-2.235v-10.612h2.235v2.135c.36-.666.848-1.21 1.466-1.637.618-.425 1.273-.645 1.965-.658l.02 2.254-.12-.002z"/><path id="svg_65" d="M160.594 149.456v-.898h-2.515c-1.61 0-2.414.506-2.414 1.517 0 .518.2.914.598 1.187s.955.41 1.665.41c.71 0 1.333-.2 1.865-.6s.798-.936.798-1.615zm2.235 3.95h-2.035v-1.416c-.878 1.05-2.055 1.576-3.53 1.576-1.105 0-2.018-.312-2.744-.937s-1.086-1.46-1.086-2.504.385-1.826 1.157-2.345 1.815-.777 3.133-.777h2.89v-.4c0-1.408-.782-2.113-2.35-2.113-.986 0-2.01.36-3.074 1.077l-.998-1.396c1.29-1.023 2.752-1.535 4.388-1.535 1.25 0 2.27.317 3.063.948.79.63 1.187 1.626 1.187 2.982v6.84z"/><path id="svg_66" d="M65.052 163.933c-.55-.57-1.225-.854-2.025-.854s-1.475.283-2.025.853c-.55.57-.825 1.26-.825 2.07 0 .814.275 1.504.825 2.074s1.225.854 2.025.854c.8 0 1.475-.283 2.025-.853s.825-1.26.825-2.073c0-.81-.275-1.5-.825-2.07zm.998 5.05c-.816.796-1.823 1.194-3.024 1.194s-2.208-.398-3.023-1.195c-.816-.796-1.223-1.788-1.223-2.978s.408-2.18 1.223-2.977c.816-.796 1.823-1.195 3.023-1.195s2.21.4 3.024 1.195c.816.797 1.223 1.788 1.223 2.977s-.408 2.182-1.223 2.978z"/><path id="svg_67" d="M71.434 163.09c-.396 0-.722.08-.976.242s-.38.407-.38.733c0 .327.126.577.38.75s.795.36 1.622.56c.826.2 1.45.48 1.87.842s.63.894.63 1.598c0 .704-.267 1.276-.798 1.714s-1.227.657-2.09.657c-1.26 0-2.38-.436-3.358-1.304l.854-1.028c.816.708 1.662 1.062 2.54 1.062.438 0 .786-.094 1.044-.283s.386-.44.386-.75-.12-.554-.364-.727c-.24-.174-.66-.33-1.252-.473s-1.043-.273-1.35-.393c-.307-.12-.58-.274-.82-.466-.477-.362-.714-.917-.714-1.662s.27-1.322.814-1.726c.542-.404 1.213-.605 2.014-.605.515 0 1.027.086 1.535.255s.947.408 1.316.715l-.726 1.027c-.24-.215-.562-.392-.97-.53-.407-.14-.81-.208-1.205-.208z"/><path id="svg_68" d="M76.263 170.096v-8.067h1.362v6.774h3.682v1.292h-5.044z"/><path id="svg_69" d="M88.317 163.933c-.55-.57-1.225-.854-2.025-.854s-1.475.283-2.025.853c-.55.57-.825 1.26-.825 2.07 0 .814.275 1.504.825 2.074s1.225.854 2.025.854 1.475-.283 2.025-.853c.55-.57.825-1.26.825-2.073 0-.81-.275-1.5-.825-2.07zm.998 5.05c-.816.796-1.823 1.194-3.023 1.194s-2.208-.398-3.023-1.195c-.817-.796-1.225-1.788-1.225-2.978s.408-2.18 1.224-2.977c.815-.796 1.822-1.195 3.022-1.195s2.208.4 3.023 1.195c.816.797 1.223 1.788 1.223 2.977s-.408 2.182-1.223 2.978z"/><path id="svg_70" d="M98.582 165.18c.23-.317.346-.635.346-.958s-.123-.598-.37-.825c-.246-.227-.557-.34-.933-.34-.662 0-1.213.338-1.65 1.015l-1.097-.635c.354-.53.744-.93 1.17-1.2s.978-.404 1.652-.404c.672 0 1.264.214 1.77.64.51.428.763 1.01.763 1.75 0 .414-.107.81-.324 1.187-.216.377-.612.862-1.19 1.454l-1.89 1.927h3.657v1.305H94.97v-1.154l2.448-2.457c.546-.554.934-.99 1.166-1.304h-.002z"/><path id="svg_71" d="M103.573 163.83c-.32.553-.48 1.28-.48 2.18s.16 1.627.48 2.182c.318.554.817.83 1.494.83s1.17-.274 1.483-.824c.312-.55.47-1.28.47-2.187 0-.906-.158-1.635-.47-2.185s-.806-.825-1.483-.825-1.176.277-1.494.83zm-.976 5.222c-.545-.757-.82-1.77-.82-3.04s.275-2.283.82-3.04c.547-.76 1.37-1.138 2.47-1.138s1.924.378 2.47 1.137.82 1.772.82 3.04c0 1.27-.274 2.285-.82 3.042s-1.37 1.137-2.47 1.137-1.923-.38-2.47-1.138z"/><path id="svg_72" d="M109.37 162.03h2.932v8.066h-1.292v-6.855h-1.64v-1.21z"/><path id="svg_73" d="M117.27 166.103c-.465 0-.853.13-1.164.386s-.468.592-.468 1.003c0 .412.15.765.45 1.06s.678.445 1.13.445c.455 0 .832-.132 1.132-.398s.45-.605.45-1.016c0-.41-.138-.76-.415-1.05-.277-.29-.65-.433-1.114-.433v.003zm.25-3c-.716 0-1.242.24-1.58.726s-.514 1.137-.52 1.96c.19-.214.468-.416.83-.604s.762-.283 1.2-.283c.723 0 1.33.24 1.818.722s.733 1.12.733 1.915c0 .797-.263 1.437-.79 1.922s-1.19.727-1.99.727c-1.293 0-2.186-.578-2.678-1.73-.276-.663-.416-1.41-.416-2.24s.09-1.523.266-2.077c.178-.554.42-.993.728-1.315.6-.63 1.336-.947 2.21-.947s1.663.275 2.37.82l-.68 1.004c-.176-.153-.413-.292-.71-.415s-.56-.185-.79-.185v-.002z"/><ellipse ry="6.301" rx="6.301" id="svg_84" cy="154.726" cx="31.972" stroke-opacity="null" stroke-width="null" stroke="null"/><ellipse ry="3.996" rx="3.996" id="svg_85" cy="141.453" cx="40.227" stroke-opacity="null" stroke-width="null" stroke="null"/><ellipse stroke="null" ry="2.506" rx="2.506" cy="146.145" cx="22.954" stroke-opacity="null" stroke-width="null" id="left-hand"><animate attributeName="cx" values="23;26;23;22;23" dur="2s" begin="0s" fill="freeze" repeatCount="indefinite"/><animate attributeName="cy" values="146;145;146;147;146" dur="2s" begin="0s" fill="freeze" repeatCount="indefinite"/></ellipse><ellipse ry="3.238" rx="3.238" cy="168.699" cx="35.152" stroke-opacity="null" stroke-width="null" stroke="null" id="right-leg"><animate attributeName="cx" values="35;32;35;38;35" dur="2s" begin="0s" fill="freeze" repeatCount="indefinite"/><animate attributeName="cy" values="169;170;169;168;169" dur="2s" begin="0s" fill="freeze" repeatCount="indefinite"/></ellipse><ellipse ry="3.938" rx="3.938" id="left-leg" cy="157.964" cx="17.415" stroke-opacity="null" stroke-width="null" stroke="null"><animate attributeName="cx" values="17;16;17;20;17" dur="2s" begin="0.5s" fill="freeze" repeatCount="indefinite"/><animate attributeName="cy" values="158;156;158;160;158" dur="2s" begin="0.5s" fill="freeze" repeatCount="indefinite"/></ellipse><ellipse stroke="null" ry="2.509" rx="2.509" id="right-hand" cy="153.209" cx="45.566" stroke-opacity="null" stroke-width="null"><animate attributeName="cx" values="45;46;45;43;45" dur="2s" begin="0.5s" fill="freeze" repeatCount="indefinite"/><animate attributeName="cy" values="153;155;153;152;153" dur="2s" begin="0.5s" fill="freeze" repeatCount="indefinite"/></ellipse></g></g></svg>