<?xml version="1.0" encoding="utf-8"?>
<!-- Generator: Adobe Illustrator 19.2.1, SVG Export Plug-In . SVG Version: 6.00 Build 0)  -->
<svg version="1.1" id="Layer_1" xmlns="http://www.w3.org/2000/svg" xmlns:xlink="http://www.w3.org/1999/xlink" x="0px" y="0px"
	 viewBox="0 0 600 120" style="enable-background:new 0 0 600 120;" xml:space="preserve">
<style type="text/css">
	.st0{fill:#010101;}
</style>
<g>
	<g>
		<path class="st0" d="M100.9,13.9h34.9c0,0,28.7-2.4,28.7,21.8c0,24.2-24.8,22.4-29.5,22.4l-34.3,0V47.3h35.6
			c0,0,15.6,0.7,15.6-11.6c0-11.9-10.6-11.1-16-11.1c-5.4,0-35,0-35,0L100.9,13.9z"/>
		<path class="st0" d="M159.8,66c5.3,3.2,10.1,8.9,10.1,18.2c0,24.2-24.8,22.8-29.5,22.8l-39.6,0V96.4l40.7,0
			c0,0,15.8,0.2,15.9-12.1c0.1-8.5-5.3-14.9-10.5-18.2H159.8z"/>
	</g>
	<path class="st0" d="M200.9,66h14.9c0,6.7,0,16.4,0,21.2c0,6.9,4.2,9.2,8.3,9.2c4.1,0,37,0,40.7,0l0.1,10.9c-3.9,0-44,0-49.1,0
		c-5.1,0-14.8-3.3-14.8-17.1C200.9,74.8,200.9,66,200.9,66z"/>
	<path class="st0" d="M264.9,47.3c-3.7,0-38,0-42.1,0c-4.1,0-7-0.4-7-5.1c0-0.7,0-11.5,0.1-12.3c0-5,2.6-5.3,6.7-5.3
		c4.1,0,38.6,0,42.3,0l0-10.7c-3.9,0-48,0-48,0s-15.9-1.1-15.9,15.9c0,5.9,0,11.7,0,11.9c0,15.3,11.4,16.3,16.5,16.3
		c5.1,0,43.5,0,47.4,0L264.9,47.3z"/>
	<path class="st0" d="M371.5,13.9c-2.2,2.5-23.1,27.4-25.7,30c-4.4,4.3-12.3,3.4-18.7,3.4c-6.5,0-7.6-4.9-7.6-8.2
		c0-3.3,0-22.1,0-25.1h-14.8c0,3.2,0.1,29.2,0.1,33.4c0,3.3,1.5,10.7,14.7,10.7c2.5,0,25.2,0,25.4,0c3.3,0,8.2-2,13.9-8.7
		c1.7-2,25.8-31.1,29.8-35.4H371.5z"/>
	<path class="st0" d="M356.9,72.7c-3.1-3.4-5.9-6.7-15.7-6.7c0,0-6.6,0-21.7,0c-10.8,0-14.7,7.9-14.7,12c0,4.1,0,25.9,0,29.1l14.8,0
		c0-3,0-21.7,0-25.1c0-3.3,1-5.2,7.5-5.2c6.4,0,5.4,0,6.1,0c6.1,0,9.5,0.2,12.7,3.4c2.6,2.6,24.3,24.3,26.7,26.9h17
		C385.4,102.6,358.7,74.6,356.9,72.7z"/>
	<path class="st0" d="M481.2,13.9c-2.2,2.5-23.1,27.4-25.7,30c-4.4,4.3-12.3,3.4-18.7,3.4c-6.5,0-7.6-4.9-7.6-8.2
		c0-3.3,0-22.1,0-25.1h-14.8c0,3.2,0.1,29.2,0.1,33.4c0,3.3,1.5,10.7,14.7,10.7c2.5,0,25.2,0,25.4,0c3.3,0,8.2-2,13.9-8.7
		c1.7-2,25.8-31.1,29.8-35.4H481.2z"/>
	<path class="st0" d="M466.6,72.7c-3.1-3.4-5.9-6.7-15.7-6.7c0,0-6.6,0-21.7,0c-10.8,0-14.7,7.9-14.7,12c0,4.1,0,25.9,0,29.1l14.8,0
		c0-3,0-21.7,0-25.1c0-3.3,1-5.2,7.5-5.2c6.4,0,5.4,0,6.1,0c6.1,0,9.5,0.2,12.7,3.4c2.6,2.6,24.3,24.3,26.7,26.9h17
		C495.1,102.6,468.3,74.6,466.6,72.7z"/>
</g>
</svg>
