<?xml version="1.0" encoding="utf-8"?>
<!-- Generator: Adobe Illustrator 19.2.1, SVG Export Plug-In . SVG Version: 6.00 Build 0)  -->
<svg version="1.1" id="Layer_1" xmlns="http://www.w3.org/2000/svg" xmlns:xlink="http://www.w3.org/1999/xlink" x="0px" y="0px"
	 viewBox="0 0 184 108" style="enable-background:new 0 0 184 108;" xml:space="preserve">
<style type="text/css">
	.st0{fill:#FFFFFF;}
	.st1{fill:#CC0000;}
</style>
<g>
	<g>
		<path d="M71.8,46.8H72l0.2,0.4h0.2l-0.3-0.4c0.1,0,0.2-0.1,0.2-0.3c0-0.2-0.1-0.3-0.3-0.3h-0.4v0.9h0.1V46.8z M71.8,46.7v-0.3H72
			c0.1,0,0.2,0,0.2,0.1c0,0.1-0.1,0.2-0.2,0.2L71.8,46.7L71.8,46.7z"/>
		<path d="M72.9,46.8c0,0.5-0.4,0.9-0.9,0.9c-0.5,0-0.9-0.4-0.9-0.9c0-0.5,0.4-0.9,0.9-0.9C72.5,45.9,72.9,46.3,72.9,46.8z M72,46
			c-0.4,0-0.7,0.3-0.7,0.8c0,0.4,0.3,0.7,0.7,0.7c0.4,0,0.7-0.3,0.7-0.7C72.7,46.3,72.4,46,72,46z"/>
		<path class="st0" d="M66.9,47.5c-1.3,0-2.4,0.2-3.3,0.6c-0.1,0-0.2,0.1-0.2,0.3c0,0,0,0.1,0,0.1c0.1,0.3-0.1,0.6-0.9,0.8
			c-1.2,0.3-2,1.5-2.4,2c-0.5,0.5-2,0.8-1.8,0.5c0.2-0.2,0.8-0.9,1.2-1.7c0.4-0.7,0.7-0.9,1.1-1.6c0.1-0.2,0.6-0.9,0.8-1.4
			c0.2-0.5,0.1-1.2,0.2-1.5c0.1-0.4,0.5-1.2,0.5-1.7c0-0.3-1.1,0.4-1.7,0.4s-1.1-0.3-1.6-0.4c-0.6,0-1,0.5-1.5,0.4
			c-0.3,0-0.6-0.3-1.1-0.3c-0.8,0-1.7,0.4-3.5,0.4c-1.8-0.1-3.4-2.2-3.6-2.6c-0.3-0.4-0.6-0.4-0.9-0.1c-0.3,0.3-0.8,0.1-0.9-0.1
			c-0.2-0.4-0.8-1.6-1.8-1.8c-1.3-0.3-2,0.7-1.9,1.6c0.1,0.9,0.6,1.1,0.9,1.6c0.3,0.5,0.4,0.8,0.9,1c0.3,0.1,0.5,0.4,0.4,0.6
			c-0.1,0.2-0.4,0.3-0.7,0.3c-0.5,0-0.9-0.1-1.1-0.3c-0.3-0.2-0.5-0.5-0.8-0.9c-0.3-0.5-0.8-0.7-1.3-0.7c-0.3,0-0.5,0.1-0.7,0.2
			c-0.9,0.5-1.9,0.7-3,0.7l-1.3,0C39.3,50.9,46.1,56,54,56c6.3,0,11.9-3.3,15.1-8.2C68.4,47.6,67.7,47.5,66.9,47.5z"/>
		<path d="M57.9,46.1C57.9,46.1,57.9,46.1,57.9,46.1c-0.3,0.3-0.4,0.4-0.5,0.5c-0.4,0.3-0.9,0-1.2-0.2c-0.7-0.4-1.2-0.1-1.3,0.2
			c-0.1,0.3,0,0.7,0.4,0.6c0.5-0.1,0.5,0,0.9,0.2c0.7,0.4,1.2,0.2,1.4,0c0.2-0.2,0.3-0.3,0.4-0.5C58.2,46.5,58.1,46.2,57.9,46.1
			C58,46.1,57.9,46.1,57.9,46.1z"/>
		<path d="M54,20c-9.9,0-18,8.1-18,18c0,2,0.3,3.9,0.9,5.8h1.3c1.1,0,2.1-0.3,3-0.7c0.2-0.1,0.5-0.2,0.7-0.2c0.6,0,1,0.2,1.3,0.7
			c0.3,0.4,0.5,0.7,0.8,0.9c0.3,0.2,0.6,0.3,1.1,0.3c0.2,0,0.6-0.1,0.7-0.3c0.1-0.3,0-0.5-0.4-0.6c-0.5-0.2-0.6-0.5-0.9-1
			c-0.3-0.5-0.8-0.7-0.9-1.6c-0.1-0.9,0.6-1.9,1.9-1.6c1,0.2,1.6,1.4,1.8,1.8c0.1,0.2,0.5,0.5,0.9,0.1c0.3-0.3,0.7-0.3,0.9,0.1
			c0.2,0.3,1.8,2.5,3.6,2.6c1.8,0.1,2.7-0.4,3.5-0.4c0.5,0,0.8,0.3,1.1,0.3c0.5,0.1,0.9-0.4,1.5-0.4c0.5,0,1,0.3,1.6,0.3
			s1.7-0.7,1.7-0.4c0,0.5-0.4,1.3-0.5,1.7c-0.1,0.3,0,0.9-0.2,1.5c-0.1,0.5-0.6,1.2-0.8,1.4c-0.4,0.7-0.8,0.9-1.1,1.6
			c-0.4,0.8-1.1,1.5-1.2,1.7c-0.2,0.3,1.2,0,1.8-0.5c0.4-0.4,1.2-1.7,2.4-2c0.8-0.2,1-0.5,0.9-0.8c0,0,0-0.1,0-0.1
			c0-0.1,0.1-0.2,0.2-0.3c0.9-0.4,2-0.6,3.3-0.6c0.7,0,1.5,0.1,2.2,0.3C70.9,45,72,41.6,72,38C72,28.1,63.9,20,54,20z"/>
		<path class="st1" d="M64.2,33.2c-0.2,0.6-0.4,1.4-1.6,1.9c-0.2,0.1-0.2-0.1-0.2-0.2c0.4-0.7,0.5-0.9,0.6-1.2
			c0.2-0.4,0.3-1-0.1-2.2c-0.7-2.4-2.1-5.7-3.1-6.7c-1-1-2.8-1.3-4.4-0.9c-0.6,0.2-1.8,0.8-3.9,0.3c-3.8-0.8-4.3,1-4.5,1.9
			c-0.2,0.8-0.7,3.1-0.7,3.1c-0.2,0.9-0.4,2.6,5.4,3.7c2.7,0.5,2.9,1.2,3,1.7c0.2,0.9,0.6,1.4,0.9,1.7c0.4,0.3,0,0.5-0.4,0.5
			c-1.2,0.1-5.4-1.1-8-2.5c-2.1-1.3-2.1-2.4-1.6-3.4c-3.1-0.3-5.5,0.3-5.9,1.8c-0.7,2.5,5.6,6.9,12.8,9c7.5,2.3,15.3,0.7,16.2-4
			C69,35.5,67.2,33.9,64.2,33.2z M52.6,28.6c-2.1,0.2-2.3,0.4-2.7,0.8c-0.5,0.6-1.3-0.8-1.3-0.8c-0.4-0.1-1-0.8-0.7-1.4
			c0.3-0.6,0.8-0.5,1-0.3c0.2,0.2,0.6,0.6,1.2,0.6c0.5,0,1.2-0.1,2.1-0.1c0.9,0,1.5,0.3,1.5,0.6C53.7,28.3,53.6,28.5,52.6,28.6z
			 M57.1,26.5c-0.4,0-0.7-0.1-1-0.2c0,0-0.1,0-0.1-0.1s0-0.1,0.1-0.1c0.7-0.2,1.2-0.4,1.2-0.7c0-0.3-1-0.5-2.1-0.4
			c-0.1,0-0.2,0-0.4,0c0,0,0,0,0,0c0,0-0.1,0-0.1-0.1c0,0,0,0,0,0c0.4-0.2,1-0.4,1.7-0.5c0.2,0,0.4,0,0.6,0c0,0,0.1,0,0.1,0
			c1.2,0,2.1,0.5,2.1,1C59.2,26.1,58.3,26.5,57.1,26.5z"/>
	</g>
	<g>
		<path d="M81.2,39.1c0-1.7,0-2.9-0.1-4h2.7l0.1,2.3H84c0.6-1.7,2-2.6,3.4-2.6c0.3,0,0.5,0,0.7,0.1v2.9c-0.3-0.1-0.6-0.1-0.9-0.1
			c-1.5,0-2.5,0.9-2.8,2.4c-0.1,0.3-0.1,0.6-0.1,0.9v6.4h-3.1L81.2,39.1z"/>
		<path d="M91.9,42.2c0.1,2.2,1.8,3.2,3.8,3.2c1.4,0,2.5-0.2,3.4-0.6l0.5,2.1c-1.1,0.4-2.5,0.8-4.3,0.8c-4,0-6.3-2.5-6.3-6.3
			c0-3.4,2.1-6.6,6-6.6c4,0,5.3,3.3,5.3,6c0,0.6-0.1,1-0.1,1.3L91.9,42.2z M97.3,40c0-1.1-0.5-3-2.6-3c-1.9,0-2.7,1.7-2.9,3H97.3z"
			/>
		<path d="M137.1,44.6c0,1,0,2,0.2,2.9h-1.1l-0.2-1.8H136c-0.6,1-2,2-3.9,2c-2.5,0-3.6-1.7-3.6-3.4c0-2.8,2.5-4.6,7.5-4.5v-0.3
			c0-1.2-0.2-3.7-3.2-3.6c-1.1,0-2.2,0.3-3.1,0.9l-0.4-0.9c1.1-0.8,2.5-1.1,3.6-1.1c3.6,0,4.2,2.7,4.2,4.9V44.6z M135.9,40.9
			c-2.7-0.1-6.2,0.3-6.2,3.3c0,1.8,1.2,2.6,2.5,2.6c2.1,0,3.2-1.3,3.7-2.5c0.1-0.3,0.1-0.5,0.1-0.7L135.9,40.9L135.9,40.9z"/>
		<path d="M142,32.4v2.7h3.5v1H142v8c0,1.6,0.5,2.6,1.8,2.6c0.6,0,1.1-0.1,1.4-0.2l0.1,0.9c-0.4,0.2-1,0.3-1.7,0.3
			c-0.9,0-1.6-0.3-2.1-0.9c-0.6-0.6-0.8-1.7-0.8-2.9v-7.8h-2.1v-1h2.1v-2.3L142,32.4z"/>
		<path d="M147.1,46.8h0.2l0.2,0.4h0.2l-0.3-0.4c0.1,0,0.2-0.1,0.2-0.3c0-0.2-0.1-0.3-0.3-0.3h-0.4v0.9h0.1L147.1,46.8L147.1,46.8z
			 M147.1,46.7v-0.3h0.2c0.1,0,0.2,0,0.2,0.1c0,0.1-0.1,0.2-0.2,0.2H147.1z"/>
		<path d="M148.1,46.8c0,0.5-0.4,0.9-0.9,0.9c-0.5,0-0.9-0.4-0.9-0.9c0-0.5,0.4-0.9,0.9-0.9C147.7,45.9,148.1,46.3,148.1,46.8z
			 M147.2,46c-0.4,0-0.7,0.3-0.7,0.7c0,0.4,0.3,0.7,0.7,0.7c0.4,0,0.7-0.3,0.7-0.7C148,46.4,147.6,46,147.2,46z"/>
		<path d="M110.5,36.5L110.5,36.5c-0.6-0.9-1.8-1.6-3.5-1.6c-3,0-5.5,2.5-5.5,6.6c0,3.8,2.3,6.3,5.3,6.3c1.8,0,3.3-0.8,4-2.2h0.1
			l0.1,2h2.8c-0.1-0.8-0.1-2.2-0.1-3.5V30.4l-3.1-0.9L110.5,36.5L110.5,36.5z M110.5,42.2c0,0.3,0,0.6-0.1,0.9
			c-0.3,1.3-1.4,2.2-2.7,2.2c-2,0-3.1-1.7-3.1-3.9c0-2.3,1.1-4.1,3.1-4.1c1.4,0,2.4,1,2.7,2.2c0.1,0.3,0.1,0.6,0.1,0.8V42.2z"/>
		<path d="M121.9,34.9c-0.9,0-1.8,0.3-2.5,0.7c-0.7,0.4-1.3,1.1-1.7,1.8h0v-5.8l-1.2-0.4v16.3h1.2V40c0-0.5,0-0.8,0.2-1.2
			c0.5-1.5,2-2.8,3.7-2.8c2.5,0,3.4,2,3.4,4.2v7.3h1.2v-7.4C126.2,35.5,123.1,34.9,121.9,34.9z"/>
	</g>
</g>
</svg>
