<?xml version="1.0" encoding="UTF-8" standalone="no"?>
<svg
   xmlns:dc="http://purl.org/dc/elements/1.1/"
   xmlns:cc="http://creativecommons.org/ns#"
   xmlns:rdf="http://www.w3.org/1999/02/22-rdf-syntax-ns#"
   xmlns:svg="http://www.w3.org/2000/svg"
   xmlns="http://www.w3.org/2000/svg"
   viewBox="0 0 107.0375 59.174999"
   height="59.174999"
   width="107.0375"
   xml:space="preserve"
   version="1.1"
   id="svg2"><metadata
     id="metadata8"><rdf:RDF><cc:Work
         rdf:about=""><dc:format>image/svg+xml</dc:format><dc:type
           rdf:resource="http://purl.org/dc/dcmitype/StillImage" /></cc:Work></rdf:RDF></metadata><defs
     id="defs6" /><g
     transform="matrix(1.25,0,0,-1.25,0,59.175)"
     id="g10"><g
       transform="scale(0.1,0.1)"
       id="g12"><path
         id="path14"
         style="fill:#203b52;fill-opacity:1;fill-rule:nonzero;stroke:none"
         d="m 16.1641,174.809 c 1.3867,-2.403 2.9375,-5.344 4.6445,-8.817 1.707,-3.476 3.4414,-7.129 5.2148,-10.949 1.7657,-3.824 3.5196,-7.715 5.2579,-11.66 1.7382,-3.953 3.3359,-7.602 4.789,-10.949 1.4531,3.347 3.0352,6.996 4.7383,10.949 1.707,3.945 3.4453,7.836 5.2148,11.66 1.7696,3.82 3.5079,7.473 5.2149,10.949 1.707,3.473 3.2539,6.414 4.6445,8.817 l 10.7617,0 c 0.5782,-4.805 1.125,-9.907 1.6407,-15.309 0.5156,-5.406 0.9804,-10.937 1.3984,-16.59 0.418,-5.66 0.8047,-11.347 1.1602,-17.066 0.3515,-5.719 0.6601,-11.297 0.9179,-16.731 l -11.7578,0 c -0.2539,7.645 -0.5625,15.516 -0.918,23.606 -0.3515,8.09 -0.8828,15.926 -1.5937,23.508 -0.6953,-1.454 -1.5156,-3.192 -2.4649,-5.211 -0.9453,-2.028 -1.957,-4.219 -3.0312,-6.59 -1.0742,-2.371 -2.168,-4.821 -3.2695,-7.348 -1.1094,-2.527 -2.1797,-4.976 -3.2227,-7.348 -1.043,-2.367 -2.0078,-4.582 -2.8945,-6.632 -0.8828,-2.055 -1.6406,-3.809 -2.2735,-5.262 l -8.9101,0 c -0.6328,1.453 -1.3906,3.223 -2.2774,5.309 -0.8828,2.082 -1.8476,4.312 -2.8906,6.679 -1.043,2.371 -2.1172,4.821 -3.2226,7.348 -1.1055,2.527 -2.1954,4.961 -3.2696,7.301 -1.0742,2.336 -2.0859,4.535 -3.0351,6.586 -0.9453,2.054 -1.7696,3.777 -2.4649,5.168 -0.707,-7.582 -1.2383,-15.418 -1.5937,-23.508 -0.3555,-8.09 -0.6602,-15.961 -0.918,-23.606 L 0,109.113 c 0.257813,5.434 0.5625,11.059 0.917969,16.875 0.351561,5.813 0.738281,11.578 1.156251,17.301 0.41797,5.719 0.88672,11.262 1.40234,16.633 0.51172,5.375 1.0586,10.336 1.64063,14.887 l 11.04691,0" /><path
         id="path16"
         style="fill:#203b52;fill-opacity:1;fill-rule:nonzero;stroke:none"
         d="m 99.7813,142.008 c 0,-3.602 0.4417,-6.875 1.3237,-9.813 0.887,-2.937 2.165,-5.433 3.84,-7.488 1.676,-2.055 3.715,-3.648 6.114,-4.785 2.402,-1.141 5.121,-1.707 8.156,-1.707 2.969,0 5.652,0.566 8.055,1.707 2.402,1.137 4.441,2.73 6.117,4.785 1.672,2.055 2.953,4.551 3.84,7.488 0.882,2.938 1.324,6.211 1.324,9.813 0,3.601 -0.442,6.871 -1.324,9.808 -0.887,2.942 -2.168,5.438 -3.84,7.493 -1.676,2.05 -3.715,3.648 -6.117,4.785 -2.403,1.136 -5.086,1.707 -8.055,1.707 -3.035,0 -5.754,-0.571 -8.156,-1.707 -2.399,-1.137 -4.438,-2.746 -6.114,-4.832 -1.675,-2.086 -2.953,-4.586 -3.84,-7.489 -0.882,-2.91 -1.3237,-6.164 -1.3237,-9.765 z m 51.2817,0 c 0,-5.625 -0.836,-10.586 -2.512,-14.883 -1.672,-4.297 -3.949,-7.887 -6.824,-10.762 -2.875,-2.875 -6.243,-5.039 -10.094,-6.492 -3.856,-1.453 -7.965,-2.18 -12.324,-2.18 -4.364,0 -8.485,0.727 -12.371,2.18 -3.887,1.453 -7.27,3.617 -10.145,6.492 -2.875,2.875 -5.168,6.465 -6.8711,10.762 -1.7071,4.297 -2.5625,9.258 -2.5625,14.883 0,5.625 0.8554,10.57 2.5625,14.836 1.7031,4.265 4.0273,7.851 6.9648,10.758 2.9414,2.906 6.3363,5.086 10.1913,6.543 3.856,1.453 7.93,2.179 12.231,2.179 4.296,0 8.371,-0.726 12.226,-2.179 3.856,-1.457 7.223,-3.637 10.098,-6.543 2.875,-2.907 5.168,-6.493 6.871,-10.758 1.707,-4.266 2.559,-9.211 2.559,-14.836" /><path
         id="path18"
         style="fill:#203b52;fill-opacity:1;fill-rule:nonzero;stroke:none"
         d="m 183.109,138.691 0,-20.003 c 1.329,-0.129 2.75,-0.223 4.27,-0.286 1.516,-0.062 2.902,-0.093 4.168,-0.093 2.465,0 4.754,0.156 6.875,0.472 2.113,0.317 3.945,0.867 5.496,1.66 1.547,0.789 2.781,1.848 3.695,3.176 0.918,1.328 1.375,3.031 1.375,5.117 0,3.731 -1.359,6.321 -4.074,7.778 -2.719,1.449 -6.48,2.179 -11.281,2.179 l -10.524,0 z m 0,9.383 8.438,0 c 4.551,0 8.121,0.649 10.715,1.942 2.59,1.297 3.883,3.621 3.883,6.968 0,3.161 -1.344,5.407 -4.028,6.731 -2.687,1.328 -6.179,1.992 -10.476,1.992 -1.832,0 -3.457,-0.031 -4.879,-0.094 -1.422,-0.062 -2.641,-0.16 -3.653,-0.285 l 0,-17.254 z m 8.059,-39.719 c -3.477,0 -6.984,0.11 -10.523,0.333 -3.54,0.222 -6.633,0.675 -9.29,1.375 l 0,63.796 c 1.391,0.25 2.875,0.489 4.458,0.711 1.578,0.223 3.191,0.395 4.832,0.52 1.644,0.129 3.269,0.223 4.882,0.285 1.614,0.063 3.145,0.094 4.598,0.094 3.98,0 7.68,-0.297 11.09,-0.899 3.414,-0.601 6.367,-1.597 8.867,-2.984 2.492,-1.395 4.438,-3.227 5.828,-5.5 1.391,-2.273 2.086,-5.086 2.086,-8.438 0,-3.097 -0.742,-5.75 -2.226,-7.96 -1.489,-2.215 -3.555,-3.985 -6.211,-5.309 3.98,-1.328 6.918,-3.289 8.816,-5.879 1.895,-2.594 2.844,-5.875 2.844,-9.859 0,-6.762 -2.465,-11.832 -7.395,-15.215 -4.929,-3.379 -12.48,-5.071 -22.656,-5.071" /><path
         id="path20"
         style="fill:#203b52;fill-opacity:1;fill-rule:nonzero;stroke:none"
         d="m 245.387,109.113 11.9414,0 0,65.6953 -11.9414,0 0,-65.6953 z" /><path
         id="path22"
         style="fill:#203b52;fill-opacity:1;fill-rule:nonzero;stroke:none"
         d="m 326.684,119.445 0,-10.332 -41.52,0 0,65.696 11.945,0 0,-55.364 29.575,0" /><path
         id="path24"
         style="fill:#203b52;fill-opacity:1;fill-rule:nonzero;stroke:none"
         d="m 347.184,109.113 0,65.696 42.187,0 0,-10.145 -30.242,0 0,-16.211 26.922,0 0,-9.953 -26.922,0 0,-19.242 32.516,0 0,-10.145 -44.461,0" /><path
         id="path26"
         style="fill:#203b52;fill-opacity:1;fill-rule:nonzero;stroke:none"
         d="m 461.809,174.809 c 1.39,-2.403 2.937,-5.344 4.644,-8.817 1.707,-3.476 3.445,-7.129 5.215,-10.949 1.77,-3.824 3.523,-7.715 5.262,-11.66 1.738,-3.953 3.332,-7.602 4.789,-10.949 1.453,3.347 3.031,6.996 4.738,10.949 1.707,3.945 3.445,7.836 5.215,11.66 1.766,3.82 3.508,7.473 5.211,10.949 1.707,3.473 3.258,6.414 4.648,8.817 l 10.762,0 c 0.578,-4.805 1.125,-9.907 1.641,-15.309 0.511,-5.406 0.98,-10.937 1.398,-16.59 0.414,-5.66 0.805,-11.347 1.156,-17.066 0.356,-5.719 0.66,-11.297 0.918,-16.731 l -11.754,0 c -0.257,7.645 -0.562,15.516 -0.918,23.606 -0.355,8.09 -0.886,15.926 -1.593,23.508 -0.696,-1.454 -1.516,-3.192 -2.465,-5.211 -0.946,-2.028 -1.957,-4.219 -3.035,-6.59 -1.075,-2.371 -2.164,-4.821 -3.27,-7.348 -1.105,-2.527 -2.18,-4.976 -3.223,-7.348 -1.043,-2.367 -2.003,-4.582 -2.89,-6.632 -0.887,-2.055 -1.645,-3.809 -2.274,-5.262 l -8.914,0 c -0.629,1.453 -1.39,3.223 -2.273,5.309 -0.887,2.082 -1.848,4.312 -2.891,6.679 -1.043,2.371 -2.121,4.821 -3.222,7.348 -1.11,2.527 -2.2,4.961 -3.274,7.301 -1.074,2.336 -2.086,4.535 -3.031,6.586 -0.949,2.054 -1.77,3.777 -2.465,5.168 -0.711,-7.582 -1.242,-15.418 -1.598,-23.508 -0.351,-8.09 -0.656,-15.961 -0.914,-23.606 l -11.754,0 c 0.254,5.434 0.563,11.059 0.915,16.875 0.355,5.813 0.742,11.578 1.16,17.301 0.418,5.719 0.882,11.262 1.398,16.633 0.516,5.375 1.063,10.336 1.641,14.887 l 11.047,0" /><path
         id="path28"
         style="fill:#203b52;fill-opacity:1;fill-rule:nonzero;stroke:none"
         d="m 538.281,109.113 0,65.696 42.184,0 0,-10.145 -30.238,0 0,-16.211 26.921,0 0,-9.953 -26.921,0 0,-19.242 32.515,0 0,-10.145 -44.461,0" /><path
         id="path30"
         style="fill:#203b52;fill-opacity:1;fill-rule:nonzero;stroke:none"
         d="m 603.484,109.113 0,65.696 42.188,0 0,-10.145 -30.242,0 0,-16.211 26.922,0 0,-9.953 -26.922,0 0,-19.242 32.515,0 0,-10.145 -44.461,0" /><path
         id="path32"
         style="fill:#203b52;fill-opacity:1;fill-rule:nonzero;stroke:none"
         d="m 716.574,174.809 0,-10.336 -20.191,0 0,-55.36 -12.039,0 0,55.36 -20.196,0 0,10.336 52.426,0" /><path
         id="path34"
         style="fill:#203b52;fill-opacity:1;fill-rule:nonzero;stroke:none"
         d="m 760.465,107.691 c -4.488,0 -8.344,0.649 -11.567,1.942 -3.222,1.297 -5.894,3.113 -8.011,5.453 -2.117,2.336 -3.684,5.086 -4.692,8.246 -1.011,3.16 -1.515,6.637 -1.515,10.43 l 0,41.047 12.039,0 0,-39.911 c 0,-2.972 0.332,-5.515 0.992,-7.632 0.664,-2.118 1.613,-3.84 2.848,-5.164 1.23,-1.329 2.683,-2.309 4.359,-2.942 1.672,-0.629 3.555,-0.945 5.641,-0.945 2.086,0 3.98,0.316 5.683,0.945 1.711,0.633 3.18,1.613 4.41,2.942 1.235,1.324 2.18,3.046 2.844,5.164 0.664,2.117 0.996,4.66 0.996,7.632 l 0,39.911 12.039,0 0,-41.047 c 0,-3.793 -0.519,-7.27 -1.562,-10.43 -1.043,-3.16 -2.625,-5.91 -4.742,-8.246 -2.118,-2.34 -4.821,-4.156 -8.106,-5.453 -3.285,-1.293 -7.172,-1.942 -11.656,-1.942" /><path
         id="path36"
         style="fill:#203b52;fill-opacity:1;fill-rule:nonzero;stroke:none"
         d="m 827.563,165.137 c -3.036,0 -5.532,-0.094 -7.489,-0.285 l 0,-22.372 5.781,0 c 5.75,0 10.176,0.809 13.274,2.418 3.094,1.614 4.644,4.661 4.644,9.149 0,2.148 -0.414,3.949 -1.234,5.402 -0.82,1.453 -1.961,2.594 -3.41,3.414 -1.457,0.821 -3.18,1.407 -5.168,1.754 -1.992,0.348 -4.125,0.52 -6.398,0.52 z m -0.852,10.332 c 9.539,0 16.855,-1.739 21.941,-5.211 5.09,-3.477 7.633,-8.91 7.633,-16.305 0,-3.855 -0.68,-7.156 -2.039,-9.906 -1.359,-2.75 -3.332,-4.996 -5.926,-6.731 -2.59,-1.742 -5.75,-3.019 -9.476,-3.839 -3.731,-0.825 -7.996,-1.235 -12.797,-1.235 l -5.973,0 0,-23.129 -11.945,0 0,64.746 c 2.781,0.629 5.859,1.059 9.242,1.278 3.383,0.222 6.492,0.332 9.34,0.332" /><path
         id="path38"
         style="fill:#079880;fill-opacity:1;fill-rule:nonzero;stroke:none"
         d="m 420.348,297.156 -52.395,-52.39 c 18.524,-11.153 40.215,-17.578 63.41,-17.578 17.364,0 33.875,3.613 48.856,10.097 l -59.871,59.871" /><path
         id="path40"
         style="fill:#a22a9a;fill-opacity:1;fill-rule:nonzero;stroke:none"
         d="m 494.508,364.789 c -4.207,0 -8.168,-1.641 -11.145,-4.617 l -8.277,-8.277 62.98,-62.981 c 4.903,8.496 8.813,17.633 11.586,27.258 l -44,44.004 c -2.98,2.972 -6.933,4.613 -11.144,4.613" /><path
         id="path42"
         style="fill:#00a996;fill-opacity:1;fill-rule:nonzero;stroke:none"
         d="m 389.473,323.066 c -3.207,0 -6.219,-1.246 -8.485,-3.511 L 335.07,273.637 c 5.817,-7.297 12.442,-13.914 19.746,-19.723 l 54.387,54.387 -11.254,11.254 c -2.265,2.265 -5.277,3.511 -8.476,3.511" /><path
         id="path44"
         style="fill:#eff4f2;fill-opacity:1;fill-rule:nonzero;stroke:none"
         d="m 363.539,388.129 c 10.059,10.059 23.43,15.598 37.66,15.598 14.223,0 27.598,-5.539 37.656,-15.598 l 25.086,-25.09 8.278,8.277 c 5.957,5.954 13.871,9.231 22.289,9.231 8.418,0 16.336,-3.277 22.285,-9.231 l 36.668,-36.668 c 0.652,5.133 1.023,10.352 1.023,15.661 0,68 -55.121,123.121 -123.121,123.121 -67.996,0 -123.121,-55.121 -123.121,-123.121 0,-5.551 0.406,-11.004 1.117,-16.36 l 54.18,54.18" /><path
         id="path46"
         style="fill:#1477b2;fill-opacity:1;fill-rule:nonzero;stroke:none"
         d="m 425.918,302.727 61.848,-61.848 c 13.871,7.164 26.199,16.879 36.371,28.535 l -65.766,65.77 -32.453,-32.457" /><path
         id="path48"
         style="fill:#0c8dd1;fill-opacity:1;fill-rule:nonzero;stroke:none"
         d="m 401.199,380.09 c -7.914,0 -15.351,-3.082 -20.945,-8.676 l -64.227,-64.226 c 3.629,-9.7 8.453,-18.809 14.282,-27.172 l 45.105,45.109 c 3.754,3.754 8.746,5.82 14.059,5.82 5.308,0 10.297,-2.066 14.05,-5.82 l 11.25,-11.254 32.457,32.453 -25.089,25.09 c -5.594,5.594 -13.032,8.676 -20.942,8.676" /><path
         id="path50"
         style="fill:#18405e;fill-opacity:1;fill-rule:nonzero;stroke:none"
         d="m 364.996,25.5859 c 0,-2.9726 0.379,-5.6679 1.133,-8.0937 0.754,-2.4297 1.824,-4.4883 3.215,-6.1836 1.39,-1.69922 3.086,-3.00391 5.09,-3.92188 2,-0.92188 4.25,-1.37891 6.75,-1.37891 2.496,0 4.734,0.45703 6.711,1.37891 1.98,0.91797 3.664,2.22266 5.054,3.92188 1.391,1.6953 2.461,3.7539 3.219,6.1836 0.75,2.4258 1.129,5.1211 1.129,8.0937 0,2.9649 -0.379,5.6641 -1.129,8.0899 -0.758,2.4258 -1.828,4.4883 -3.219,6.1836 -1.39,1.6992 -3.074,3.0039 -5.054,3.9219 -1.977,0.9218 -4.215,1.3789 -6.711,1.3789 -2.5,0 -4.75,-0.4571 -6.75,-1.3789 -2.004,-0.918 -3.7,-2.2227 -5.09,-3.9219 -1.391,-1.6953 -2.461,-3.7578 -3.215,-6.1836 -0.754,-2.4258 -1.133,-5.125 -1.133,-8.0899 z m -7.207,0 c 0,4.1914 0.621,7.8907 1.871,11.0938 1.25,3.2031 2.945,5.8789 5.09,8.0234 2.145,2.1407 4.641,3.7539 7.492,4.8399 2.852,1.0859 5.875,1.625 9.082,1.625 3.156,0 6.137,-0.5391 8.942,-1.625 2.8,-1.086 5.261,-2.6992 7.382,-4.8399 2.122,-2.1445 3.805,-4.8203 5.055,-8.0234 1.246,-3.2031 1.871,-6.9024 1.871,-11.0938 0,-4.1953 -0.625,-7.8945 -1.871,-11.0976 -1.25,-3.207 -2.933,-5.87892 -5.055,-8.02346 C 395.527,4.32031 393.066,2.70703 390.266,1.625 387.461,0.542969 384.48,0 381.324,0 c -3.207,0 -6.23,0.542969 -9.082,1.625 -2.851,1.08203 -5.347,2.69531 -7.492,4.83984 -2.145,2.14454 -3.84,4.81646 -5.09,8.02346 -1.25,3.2031 -1.871,6.9023 -1.871,11.0976" /><path
         id="path52"
         style="fill:#18405e;fill-opacity:1;fill-rule:nonzero;stroke:none"
         d="m 422.879,5.79297 c 2.687,0 4.676,0.35547 5.973,1.0625 1.296,0.70703 1.945,1.83594 1.945,3.39063 0,1.6016 -0.637,2.875 -1.91,3.8164 -1.27,0.9453 -3.367,2.0039 -6.289,3.1797 -1.414,0.5664 -2.77,1.1445 -4.063,1.7344 -1.297,0.5859 -2.418,1.2851 -3.359,2.0859 -0.942,0.7969 -1.696,1.7656 -2.262,2.8945 -0.566,1.1328 -0.848,2.5235 -0.848,4.1719 0,3.25 1.204,5.832 3.606,7.7383 2.402,1.9101 5.676,2.8633 9.824,2.8633 1.035,0 2.07,-0.0586 3.109,-0.1758 1.036,-0.1211 2,-0.2617 2.899,-0.4258 0.894,-0.1641 1.684,-0.3437 2.367,-0.5312 0.68,-0.1875 1.211,-0.3516 1.59,-0.4922 l -1.203,-5.6563 c -0.703,0.375 -1.813,0.7656 -3.32,1.168 -1.508,0.3984 -3.321,0.6016 -5.442,0.6016 -1.84,0 -3.441,-0.3672 -4.805,-1.0977 -1.371,-0.7305 -2.05,-1.8711 -2.05,-3.4258 0,-0.8047 0.152,-1.5117 0.457,-2.1211 0.308,-0.6133 0.781,-1.1679 1.414,-1.664 0.636,-0.4922 1.426,-0.9532 2.367,-1.375 0.941,-0.4258 2.074,-0.875 3.394,-1.3438 1.743,-0.6601 3.297,-1.3086 4.665,-1.9453 1.367,-0.6328 2.531,-1.375 3.5,-2.2227 0.964,-0.8515 1.707,-1.875 2.222,-3.0781 0.52,-1.1992 0.781,-2.6719 0.781,-4.414 0,-3.39458 -1.261,-5.96099 -3.785,-7.70708 -2.519,-1.74219 -6.109,-2.613282 -10.777,-2.613282 -3.25,0 -5.793,0.273437 -7.633,0.812502 -1.836,0.54297 -3.086,0.95703 -3.742,1.23828 l 1.199,5.65625 c 0.754,-0.28516 1.953,-0.71094 3.606,-1.27344 1.648,-0.5664 3.839,-0.85156 6.57,-0.85156" /><path
         id="path54"
         style="fill:#18405e;fill-opacity:1;fill-rule:nonzero;stroke:none"
         d="m 456.875,0.351563 c -4.051,0.097656 -6.926,0.964847 -8.621,2.617187 -1.695,1.64844 -2.543,4.21484 -2.543,7.70315 l 0,44.1015 6.57,1.1289 0,-44.1718 c 0,-1.0821 0.094,-1.97659 0.285,-2.68362 0.188,-0.70704 0.493,-1.27344 0.918,-1.69532 0.422,-0.42578 0.989,-0.74218 1.696,-0.95703 0.707,-0.21094 1.578,-0.38672 2.617,-0.53125 l -0.922,-5.511717" /><path
         id="path56"
         style="fill:#18405e;fill-opacity:1;fill-rule:nonzero;stroke:none"
         d="m 490.73,19.4336 c 0,4.1445 -0.929,7.4336 -2.792,9.8633 -1.864,2.4219 -4.395,3.6367 -7.598,3.6367 -3.203,0 -5.738,-1.2148 -7.598,-3.6367 -1.863,-2.4297 -2.793,-5.7188 -2.793,-9.8633 0,-4.1445 0.93,-7.4297 2.793,-9.85938 1.86,-2.42578 4.395,-3.63672 7.598,-3.63672 3.203,0 5.734,1.21094 7.598,3.63672 1.863,2.42968 2.792,5.71488 2.792,9.85938 z m 6.856,0 c 0,-2.918 -0.426,-5.5586 -1.273,-7.9141 -0.848,-2.35544 -2.04,-4.38278 -3.571,-6.07809 -1.531,-1.69532 -3.355,-3.00391 -5.476,-3.92188 -2.121,-0.917967 -4.43,-1.378905 -6.926,-1.378905 -2.496,0 -4.805,0.460938 -6.926,1.378905 -2.121,0.91797 -3.945,2.22656 -5.476,3.92188 -1.536,1.69531 -2.723,3.72265 -3.571,6.07809 -0.847,2.3555 -1.273,4.9961 -1.273,7.9141 0,2.875 0.426,5.5 1.273,7.8828 0.848,2.3789 2.035,4.4141 3.571,6.1133 1.531,1.6953 3.355,3.0039 5.476,3.9219 2.121,0.9179 4.43,1.3789 6.926,1.3789 2.496,0 4.805,-0.461 6.926,-1.3789 2.121,-0.918 3.945,-2.2266 5.476,-3.9219 1.531,-1.6992 2.723,-3.7344 3.571,-6.1133 0.847,-2.3828 1.273,-5.0078 1.273,-7.8828" /><path
         id="path58"
         style="fill:#203b52;fill-opacity:1;fill-rule:nonzero;stroke:none"
         d="m 0.28125,77.2031 854.813,0 0,4.96094 -854.813,0 0,-4.96094 z" /></g></g></svg>