<?xml version="1.0" encoding="utf-8"?>
<!-- Generator: Adobe Illustrator 19.2.1, SVG Export Plug-In . SVG Version: 6.00 Build 0)  -->
<svg version="1.1"
	 id="svg2" xmlns:cc="http://creativecommons.org/ns#" xmlns:dc="http://purl.org/dc/elements/1.1/" xmlns:rdf="http://www.w3.org/1999/02/22-rdf-syntax-ns#" xmlns:svg="http://www.w3.org/2000/svg"
	 xmlns="http://www.w3.org/2000/svg" xmlns:xlink="http://www.w3.org/1999/xlink" x="0px" y="0px" viewBox="0 0 107 59.2"
	 style="enable-background:new 0 0 107 59.2;" xml:space="preserve">
<style type="text/css">
	.st0{fill:#203B52;}
	.st1{fill:#079880;}
	.st2{fill:#A22A9A;}
	.st3{fill:#00A996;}
	.st4{fill:#EFF4F2;}
	.st5{fill:#1477B2;}
	.st6{fill:#0C8DD1;}
	.st7{fill:#18405E;}
</style>
<g id="g10" transform="matrix(1.25,0,0,-1.25,0,59.175)">
	<g id="g12" transform="scale(0.1,0.1)">
		<path id="path14" class="st0" d="M95.8,192.7c1.1-2,2.4-4.4,3.8-7.3c1.4-2.9,2.8-5.9,4.3-9c1.5-3.2,2.9-6.4,4.3-9.6
			c1.4-3.3,2.8-6.3,4-9c1.2,2.8,2.5,5.8,3.9,9c1.4,3.3,2.8,6.5,4.3,9.6c1.5,3.2,2.9,6.2,4.3,9c1.4,2.9,2.7,5.3,3.8,7.3h8.9
			c0.5-4,0.9-8.2,1.4-12.7c0.4-4.5,0.8-9,1.2-13.7c0.3-4.7,0.7-9.4,1-14.1c0.3-4.7,0.5-9.3,0.8-13.8h-9.7
			c-0.2,6.3-0.5,12.8-0.8,19.5c-0.3,6.7-0.7,13.2-1.3,19.4c-0.6-1.2-1.3-2.6-2-4.3c-0.8-1.7-1.6-3.5-2.5-5.4c-0.9-2-1.8-4-2.7-6.1
			c-0.9-2.1-1.8-4.1-2.7-6.1c-0.9-2-1.7-3.8-2.4-5.5c-0.7-1.7-1.4-3.1-1.9-4.3h-7.4c-0.5,1.2-1.1,2.7-1.9,4.4
			c-0.7,1.7-1.5,3.6-2.4,5.5c-0.9,2-1.7,4-2.7,6.1c-0.9,2.1-1.8,4.1-2.7,6c-0.9,1.9-1.7,3.7-2.5,5.4c-0.8,1.7-1.5,3.1-2,4.3
			c-0.6-6.3-1-12.7-1.3-19.4c-0.3-6.7-0.5-13.2-0.8-19.5l-9.7,0c0.2,4.5,0.5,9.1,0.8,13.9c0.3,4.8,0.6,9.6,1,14.3
			c0.3,4.7,0.7,9.3,1.2,13.7c0.4,4.4,0.9,8.5,1.4,12.3L95.8,192.7"/>
		<path id="path16" class="st0" d="M164.9,165.6c0-3,0.4-5.7,1.1-8.1c0.7-2.4,1.8-4.5,3.2-6.2c1.4-1.7,3.1-3,5.1-4
			c2-0.9,4.2-1.4,6.7-1.4c2.5,0,4.7,0.5,6.7,1.4c2,0.9,3.7,2.3,5.1,4c1.4,1.7,2.4,3.8,3.2,6.2c0.7,2.4,1.1,5.1,1.1,8.1
			c0,3-0.4,5.7-1.1,8.1c-0.7,2.4-1.8,4.5-3.2,6.2c-1.4,1.7-3.1,3-5.1,4c-2,0.9-4.2,1.4-6.7,1.4c-2.5,0-4.8-0.5-6.7-1.4
			c-2-0.9-3.7-2.3-5.1-4c-1.4-1.7-2.4-3.8-3.2-6.2C165.3,171.2,164.9,168.5,164.9,165.6z M207.3,165.6c0-4.6-0.7-8.7-2.1-12.3
			c-1.4-3.6-3.3-6.5-5.6-8.9c-2.4-2.4-5.2-4.2-8.3-5.4c-3.2-1.2-6.6-1.8-10.2-1.8c-3.6,0-7,0.6-10.2,1.8c-3.2,1.2-6,3-8.4,5.4
			c-2.4,2.4-4.3,5.3-5.7,8.9c-1.4,3.6-2.1,7.7-2.1,12.3c0,4.6,0.7,8.7,2.1,12.3c1.4,3.5,3.3,6.5,5.8,8.9c2.4,2.4,5.2,4.2,8.4,5.4
			c3.2,1.2,6.6,1.8,10.1,1.8c3.6,0,6.9-0.6,10.1-1.8c3.2-1.2,6-3,8.3-5.4c2.4-2.4,4.3-5.4,5.7-8.9
			C206.6,174.3,207.3,170.2,207.3,165.6"/>
		<path id="path18" class="st0" d="M233.8,162.8v-16.5c1.1-0.1,2.3-0.2,3.5-0.2c1.3-0.1,2.4-0.1,3.4-0.1c2,0,3.9,0.1,5.7,0.4
			c1.7,0.3,3.3,0.7,4.5,1.4c1.3,0.7,2.3,1.5,3.1,2.6c0.8,1.1,1.1,2.5,1.1,4.2c0,3.1-1.1,5.2-3.4,6.4c-2.2,1.2-5.4,1.8-9.3,1.8H233.8
			z M233.8,170.6h7c3.8,0,6.7,0.5,8.9,1.6c2.1,1.1,3.2,3,3.2,5.8c0,2.6-1.1,4.5-3.3,5.6c-2.2,1.1-5.1,1.6-8.7,1.6
			c-1.5,0-2.9,0-4-0.1c-1.2-0.1-2.2-0.1-3-0.2C233.8,184.8,233.8,170.6,233.8,170.6z M240.5,137.7c-2.9,0-5.8,0.1-8.7,0.3
			c-2.9,0.2-5.5,0.6-7.7,1.1v52.7c1.1,0.2,2.4,0.4,3.7,0.6c1.3,0.2,2.6,0.3,4,0.4c1.4,0.1,2.7,0.2,4,0.2c1.3,0.1,2.6,0.1,3.8,0.1
			c3.3,0,6.3-0.2,9.2-0.7c2.8-0.5,5.3-1.3,7.3-2.5c2.1-1.2,3.7-2.7,4.8-4.5c1.1-1.9,1.7-4.2,1.7-7c0-2.6-0.6-4.8-1.8-6.6
			c-1.2-1.8-2.9-3.3-5.1-4.4c3.3-1.1,5.7-2.7,7.3-4.9c1.6-2.1,2.4-4.9,2.4-8.1c0-5.6-2-9.8-6.1-12.6
			C255.1,139.1,248.9,137.7,240.5,137.7"/>
		<path id="path20" class="st0" d="M285.3,138.4h9.9v54.3h-9.9C285.3,192.7,285.3,138.4,285.3,138.4z"/>
		<path id="path22" class="st0" d="M352.5,146.9v-8.5h-34.3v54.3h9.9v-45.8H352.5"/>
		<path id="path24" class="st0" d="M369.4,138.4v54.3h34.9v-8.4h-25v-13.4h22.2v-8.2h-22.2v-15.9h26.9v-8.4L369.4,138.4"/>
		<path id="path26" class="st0" d="M464.1,192.7c1.1-2,2.4-4.4,3.8-7.3c1.4-2.9,2.8-5.9,4.3-9c1.5-3.2,2.9-6.4,4.3-9.6
			c1.4-3.3,2.8-6.3,4-9c1.2,2.8,2.5,5.8,3.9,9c1.4,3.3,2.8,6.5,4.3,9.6c1.5,3.2,2.9,6.2,4.3,9c1.4,2.9,2.7,5.3,3.8,7.3h8.9
			c0.5-4,0.9-8.2,1.4-12.7c0.4-4.5,0.8-9,1.2-13.7c0.3-4.7,0.7-9.4,1-14.1c0.3-4.7,0.5-9.3,0.8-13.8h-9.7
			c-0.2,6.3-0.5,12.8-0.8,19.5c-0.3,6.7-0.7,13.2-1.3,19.4c-0.6-1.2-1.3-2.6-2-4.3c-0.8-1.7-1.6-3.5-2.5-5.4c-0.9-2-1.8-4-2.7-6.1
			c-0.9-2.1-1.8-4.1-2.7-6.1c-0.9-2-1.7-3.8-2.4-5.5c-0.7-1.7-1.4-3.1-1.9-4.3h-7.4c-0.5,1.2-1.1,2.7-1.9,4.4
			c-0.7,1.7-1.5,3.6-2.4,5.5c-0.9,2-1.8,4-2.7,6.1c-0.9,2.1-1.8,4.1-2.7,6c-0.9,1.9-1.7,3.7-2.5,5.4c-0.8,1.7-1.5,3.1-2,4.3
			c-0.6-6.3-1-12.7-1.3-19.4c-0.3-6.7-0.5-13.2-0.8-19.5h-9.7c0.2,4.5,0.5,9.1,0.8,13.9c0.3,4.8,0.6,9.6,1,14.3
			c0.3,4.7,0.7,9.3,1.2,13.7c0.4,4.4,0.9,8.5,1.4,12.3L464.1,192.7"/>
		<path id="path28" class="st0" d="M527.3,138.4v54.3h34.9v-8.4h-25v-13.4h22.2v-8.2h-22.2v-15.9h26.9v-8.4L527.3,138.4"/>
		<path id="path30" class="st0" d="M581.2,138.4v54.3h34.9v-8.4h-25v-13.4h22.2v-8.2h-22.2v-15.9H618v-8.4L581.2,138.4"/>
		<path id="path32" class="st0" d="M674.7,192.7v-8.5H658v-45.8H648v45.8h-16.7v8.5H674.7"/>
		<path id="path34" class="st0" d="M711,137.2c-3.7,0-6.9,0.5-9.6,1.6c-2.7,1.1-4.9,2.6-6.6,4.5c-1.7,1.9-3,4.2-3.9,6.8
			c-0.8,2.6-1.3,5.5-1.3,8.6v33.9h9.9v-33c0-2.5,0.3-4.6,0.8-6.3c0.5-1.8,1.3-3.2,2.4-4.3c1-1.1,2.2-1.9,3.6-2.4
			c1.4-0.5,2.9-0.8,4.7-0.8c1.7,0,3.3,0.3,4.7,0.8c1.4,0.5,2.6,1.3,3.6,2.4c1,1.1,1.8,2.5,2.4,4.3c0.5,1.7,0.8,3.9,0.8,6.3v33h9.9
			v-33.9c0-3.1-0.4-6-1.3-8.6s-2.2-4.9-3.9-6.8c-1.8-1.9-4-3.4-6.7-4.5C717.9,137.7,714.7,137.2,711,137.2"/>
		<path id="path36" class="st0" d="M766.4,184.7c-2.5,0-4.6-0.1-6.2-0.2v-18.5h4.8c4.8,0,8.4,0.7,11,2c2.6,1.3,3.8,3.9,3.8,7.6
			c0,1.8-0.3,3.3-1,4.5c-0.7,1.2-1.6,2.1-2.8,2.8c-1.2,0.7-2.6,1.2-4.3,1.4C770,184.5,768.3,184.7,766.4,184.7z M765.7,193.2
			c7.9,0,13.9-1.4,18.1-4.3c4.2-2.9,6.3-7.4,6.3-13.5c0-3.2-0.6-5.9-1.7-8.2c-1.1-2.3-2.8-4.1-4.9-5.6c-2.1-1.4-4.8-2.5-7.8-3.2
			c-3.1-0.7-6.6-1-10.6-1h-4.9v-19.1h-9.9v53.5c2.3,0.5,4.8,0.9,7.6,1.1C760.8,193.1,763.3,193.2,765.7,193.2"/>
		<path id="path38" class="st1" d="M429.9,293.8l-43.3-43.3c15.3-9.2,33.2-14.5,52.4-14.5c14.4,0,28,3,40.4,8.3L429.9,293.8"/>
		<path id="path40" class="st2" d="M491.2,349.7c-3.5,0-6.8-1.4-9.2-3.8l-6.8-6.8l52-52.1c4.1,7,7.3,14.6,9.6,22.5l-36.4,36.4
			C497.9,348.3,494.6,349.7,491.2,349.7"/>
		<path id="path42" class="st3" d="M404.3,315.2c-2.7,0-5.1-1-7-2.9l-37.9-37.9c4.8-6,10.3-11.5,16.3-16.3l44.9,44.9l-9.3,9.3
			C409.5,314.2,407,315.2,404.3,315.2"/>
		<path id="path44" class="st4" d="M382.9,369c8.3,8.3,19.4,12.9,31.1,12.9c11.8,0,22.8-4.6,31.1-12.9l20.7-20.7l6.8,6.8
			c4.9,4.9,11.5,7.6,18.4,7.6c7,0,13.5-2.7,18.4-7.6l30.3-30.3c0.5,4.2,0.8,8.6,0.8,12.9c0,56.2-45.6,101.8-101.8,101.8
			c-56.2,0-101.8-45.6-101.8-101.8c0-4.6,0.3-9.1,0.9-13.5L382.9,369"/>
		<path id="path46" class="st5" d="M434.5,298.4l51.1-51.1c11.5,5.9,21.7,13.9,30.1,23.6l-54.4,54.4L434.5,298.4"/>
		<path id="path48" class="st6" d="M414,362.3c-6.5,0-12.7-2.5-17.3-7.2l-53.1-53.1c3-8,7-15.5,11.8-22.5l37.3,37.3
			c3.1,3.1,7.2,4.8,11.6,4.8c4.4,0,8.5-1.7,11.6-4.8l9.3-9.3l26.8,26.8l-20.7,20.7C426.7,359.8,420.6,362.3,414,362.3"/>
		<path id="path50" class="st7" d="M384.1,69.3c0-2.5,0.3-4.7,0.9-6.7c0.6-2,1.5-3.7,2.7-5.1c1.1-1.4,2.6-2.5,4.2-3.2
			c1.7-0.8,3.5-1.1,5.6-1.1c2.1,0,3.9,0.4,5.5,1.1c1.6,0.8,3,1.8,4.2,3.2c1.1,1.4,2,3.1,2.7,5.1c0.6,2,0.9,4.2,0.9,6.7
			c0,2.5-0.3,4.7-0.9,6.7c-0.6,2-1.5,3.7-2.7,5.1c-1.1,1.4-2.5,2.5-4.2,3.2c-1.6,0.8-3.5,1.1-5.5,1.1c-2.1,0-3.9-0.4-5.6-1.1
			c-1.7-0.8-3.1-1.8-4.2-3.2c-1.1-1.4-2-3.1-2.7-5.1C384.4,74,384.1,71.8,384.1,69.3z M378.2,69.3c0,3.5,0.5,6.5,1.5,9.2
			c1,2.6,2.4,4.9,4.2,6.6c1.8,1.8,3.8,3.1,6.2,4c2.4,0.9,4.9,1.3,7.5,1.3c2.6,0,5.1-0.4,7.4-1.3c2.3-0.9,4.3-2.2,6.1-4
			c1.8-1.8,3.1-4,4.2-6.6c1-2.6,1.5-5.7,1.5-9.2c0-3.5-0.5-6.5-1.5-9.2c-1-2.7-2.4-4.9-4.2-6.6c-1.8-1.8-3.8-3.1-6.1-4
			c-2.3-0.9-4.8-1.3-7.4-1.3c-2.7,0-5.1,0.4-7.5,1.3c-2.4,0.9-4.4,2.2-6.2,4c-1.8,1.8-3.2,4-4.2,6.6
			C378.7,62.8,378.2,65.9,378.2,69.3"/>
		<path id="path52" class="st7" d="M432,53c2.2,0,3.9,0.3,4.9,0.9c1.1,0.6,1.6,1.5,1.6,2.8c0,1.3-0.5,2.4-1.6,3.2
			c-1,0.8-2.8,1.7-5.2,2.6c-1.2,0.5-2.3,0.9-3.4,1.4c-1.1,0.5-2,1.1-2.8,1.7c-0.8,0.7-1.4,1.5-1.9,2.4c-0.5,0.9-0.7,2.1-0.7,3.4
			c0,2.7,1,4.8,3,6.4c2,1.6,4.7,2.4,8.1,2.4c0.9,0,1.7,0,2.6-0.1c0.9-0.1,1.7-0.2,2.4-0.4c0.7-0.1,1.4-0.3,2-0.4
			c0.6-0.2,1-0.3,1.3-0.4l-1-4.7c-0.6,0.3-1.5,0.6-2.7,1c-1.2,0.3-2.7,0.5-4.5,0.5c-1.5,0-2.8-0.3-4-0.9c-1.1-0.6-1.7-1.5-1.7-2.8
			c0-0.7,0.1-1.2,0.4-1.8c0.3-0.5,0.6-1,1.2-1.4c0.5-0.4,1.2-0.8,2-1.1c0.8-0.4,1.7-0.7,2.8-1.1c1.4-0.5,2.7-1.1,3.9-1.6
			c1.1-0.5,2.1-1.1,2.9-1.8c0.8-0.7,1.4-1.5,1.8-2.5c0.4-1,0.6-2.2,0.6-3.6c0-2.8-1-4.9-3.1-6.4c-2.1-1.4-5-2.2-8.9-2.2
			c-2.7,0-4.8,0.2-6.3,0.7c-1.5,0.4-2.6,0.8-3.1,1l1,4.7c0.6-0.2,1.6-0.6,3-1.1C427.9,53.2,429.7,53,432,53"/>
		<path id="path54" class="st7" d="M460,48.5c-3.3,0.1-5.7,0.8-7.1,2.2c-1.4,1.4-2.1,3.5-2.1,6.4v36.4l5.4,0.9V57.9
			c0-0.9,0.1-1.6,0.2-2.2c0.2-0.6,0.4-1.1,0.8-1.4c0.3-0.4,0.8-0.6,1.4-0.8c0.6-0.2,1.3-0.3,2.2-0.4L460,48.5"/>
		<path id="path56" class="st7" d="M488,64.3c0,3.4-0.8,6.1-2.3,8.2c-1.5,2-3.6,3-6.3,3s-4.7-1-6.3-3c-1.5-2-2.3-4.7-2.3-8.2
			c0-3.4,0.8-6.1,2.3-8.1c1.5-2,3.6-3,6.3-3s4.7,1,6.3,3C487.3,58.1,488,60.8,488,64.3z M493.7,64.3c0-2.4-0.4-4.6-1.1-6.5
			c-0.7-1.9-1.7-3.6-3-5c-1.3-1.4-2.8-2.5-4.5-3.2c-1.8-0.8-3.7-1.1-5.7-1.1c-2.1,0-4,0.4-5.7,1.1c-1.8,0.8-3.3,1.8-4.5,3.2
			c-1.3,1.4-2.3,3.1-3,5c-0.7,1.9-1.1,4.1-1.1,6.5c0,2.4,0.4,4.5,1.1,6.5c0.7,2,1.7,3.6,3,5.1c1.3,1.4,2.8,2.5,4.5,3.2
			c1.8,0.8,3.7,1.1,5.7,1.1c2.1,0,4-0.4,5.7-1.1c1.8-0.8,3.3-1.8,4.5-3.2c1.3-1.4,2.3-3.1,3-5.1C493.3,68.8,493.7,66.6,493.7,64.3"
			/>
		<path id="path58" class="st0" d="M82.7,112h706.5v4.1H82.7V112z"/>
	</g>
</g>
</svg>
