<?xml version="1.0" encoding="utf-8"?>
<!-- Generator: Adobe Illustrator 19.2.1, SVG Export Plug-In . SVG Version: 6.00 Build 0)  -->
<svg version="1.1" id="Ebene_1" xmlns="http://www.w3.org/2000/svg" xmlns:xlink="http://www.w3.org/1999/xlink" x="0px" y="0px"
	 viewBox="0 0 464 124.7" style="enable-background:new 0 0 464 124.7;" xml:space="preserve">
<style type="text/css">
	.st0{fill:none;}
	.st1{fill:#0088CE;}
	.st2{clip-path:url(#SVGID_2_);fill:#0088CE;}
</style>
<rect y="0" class="st0" width="464" height="124.7"/>
<polygon class="st1" points="365.6,78.7 364.8,33 379.2,33 379.2,90.7 358.5,90.7 344.1,43.4 343.8,43.4 344.6,90.7 330.3,90.7 
	330.3,33 351.9,33 365.3,78.7 "/>
<polygon class="st1" points="103.6,38.4 95.7,91.3 79.9,91.3 90.7,33 116.6,33 127.3,91.3 111.7,91.3 103.9,38.4 "/>
<polygon class="st1" points="171.5,77.6 178.7,33 202.4,33 203.7,91.3 189.2,91.3 188.8,38.9 188.5,38.9 178.7,91.3 164,91.3 
	154.2,38.9 153.9,38.9 153.5,91.3 139,91.3 140.3,33 164,33 171.2,77.6 "/>
<g>
	<defs>
		<rect id="SVGID_1_" width="464" height="124.7"/>
	</defs>
	<clipPath id="SVGID_2_">
		<use xlink:href="#SVGID_1_"  style="overflow:visible;"/>
	</clipPath>
	<path class="st2" d="M55.4,74.8c0.6,1.4,0.4,3.2,0.1,4.3c-0.5,1.9-1.8,3.9-5.7,3.9c-3.6,0-5.9-2.1-5.9-5.3l0-5.6H28.4l0,4.5
		c0,13,10.2,16.9,21.2,16.9c10.5,0,19.2-3.6,20.6-13.3c0.7-5,0.2-8.3-0.1-9.6C67.6,58.5,45.5,54.9,43.9,48c-0.3-1.2-0.2-2.4-0.1-3.1
		c0.4-1.9,1.7-3.9,5.3-3.9c3.4,0,5.4,2.1,5.4,5.3v3.6h14.5v-4.1c0-12.7-11.4-14.7-19.6-14.7c-10.4,0-18.8,3.4-20.4,12.9
		c-0.4,2.6-0.5,4.9,0.1,7.8C31.7,63.9,52.4,67.3,55.4,74.8"/>
	<path class="st2" d="M244.7,74.7c0.6,1.4,0.4,3.2,0.1,4.3c-0.5,1.9-1.8,3.9-5.6,3.9c-3.6,0-5.8-2.1-5.8-5.2l0-5.6H218l0,4.4
		c0,12.9,10.1,16.7,21,16.7c10.4,0,19-3.6,20.4-13.2c0.7-5,0.2-8.2-0.1-9.4c-2.4-12.1-24.3-15.7-25.9-22.4c-0.3-1.2-0.2-2.4-0.1-3
		c0.4-1.9,1.7-3.9,5.3-3.9c3.4,0,5.4,2.1,5.4,5.2v3.6h14.4V46c0-12.6-11.3-14.5-19.4-14.5c-10.2,0-18.6,3.4-20.1,12.8
		c-0.4,2.6-0.5,4.9,0.1,7.8C221.3,63.9,241.8,67.3,244.7,74.7"/>
	<path class="st2" d="M293.6,82.6c4.1,0,5.3-2.8,5.6-4.2c0.1-0.6,0.2-1.5,0.1-2.2V33h14.7v41.8c0,1.1-0.1,3.3-0.1,3.8
		c-1,10.9-9.6,14.4-20.3,14.4c-10.7,0-19.3-3.5-20.3-14.4c-0.1-0.6-0.2-2.8-0.1-3.8V33h14.7v43.1c0,0.7,0,1.6,0.1,2.2
		C288.3,79.8,289.6,82.6,293.6,82.6"/>
	<path class="st2" d="M415.1,81.9c4.2,0,5.7-2.7,5.9-4.2c0.1-0.7,0.2-1.5,0.1-2.2v-8.4h-6v-8.5h20.6v15.6c0,1.1,0,1.9-0.2,3.8
		c-1,10.6-10.2,14.4-20.5,14.4c-10.3,0-19.5-3.8-20.5-14.4c-0.2-1.9-0.2-2.7-0.2-3.8l0-24.5c0-1,0.1-2.9,0.2-3.8
		c1.3-10.9,10.1-14.4,20.4-14.4c10.3,0,19.4,3.5,20.4,14.4c0.2,1.9,0.1,3.8,0.1,3.8v1.9H421v-3.3c0,0,0-1.4-0.2-2.2
		c-0.3-1.3-1.4-4.2-5.8-4.2c-4.2,0-5.5,2.8-5.8,4.2c-0.2,0.8-0.2,1.8-0.2,2.8v26.6c0,0.7,0,1.6,0.1,2.2
		C409.4,79.3,410.8,81.9,415.1,81.9"/>
</g>
</svg>
