<svg viewBox="0 0 640 480" xmlns="http://www.w3.org/2000/svg">
 <metadata id="metadata8">image/svg+xml</metadata>
 <defs>
  <clipPath clipPathUnits="userSpaceOnUse" id="clipPath16">
   <path d="m-63.696765,685.527393l841.89,0l0,-595.28l-841.89,0l0,595.28z" id="path18"/>
  </clipPath>
 </defs>
 <g>
  <title>Layer 1</title>
  <g id="g10" transform="matrix(0.8294135723795959,0,0,-0.8294135723795959,23.69381508453842,561.7190624188123) ">
   <g id="g12">
    <g id="g14" clip-path="url(#clipPath16)">
     <g id="g20">
      <path fill="#231f20" fill-rule="nonzero" d="m235.72804,335.33629c-14.443,0 -24.492,7.223 -24.492,22.297l0,59.19c0,14.288 8.635,23.239 23.081,23.239l44.902,0l0,-15.231l-39.562,0c-8.168,0 -13.193,-3.139 -13.193,-11.776l0,-17.899l44.666,0l0,-15.073l-44.666,0l0,-17.585c0,-8.793 5.025,-11.932 13.348,-11.932l39.407,0l0,-15.23l-43.491,0z" id="path22"/>
     </g>
     <g id="g24">
      <path fill="#231f20" fill-rule="nonzero" d="m399.903821,424.830889c-10.303,0 -13.253,-3.616 -13.349,-10.013c-0.035,-2.346 0.001,-5.118 0.001,-8.198c0,-3.298 0.941,-6.282 3.609,-8.48c2.987,-2.353 6.126,-2.353 9.739,-2.353l13.171,0c13.501,0 26.108,-7.538 26.108,-21.512l0,-16.642c0,-14.761 -9.763,-22.297 -24.051,-22.297l-42.162,0l0,15.231l37.609,0c14.602,0 13.187,7.691 13.187,19.309c0,8.48 -5.024,10.679 -12.716,10.679l-16.171,0c-12.719,0 -23.553,8.378 -23.553,22.04l0,15.329c0,6.752 2.584,13.046 7.749,17.464c3.871,3.31 9.521,4.674 15.486,4.674l39.698,0l0,-15.231l-34.355,0z" id="path26"/>
     </g>
     <g id="g28">
      <path fill="#231f20" fill-rule="nonzero" d="m479.924329,424.830889l0,-89.495l-15.23,0l0,89.495l-23.209,0l0,15.231l61.582,0l0,-15.231l-23.143,0z" id="path30"/>
     </g>
     <g id="g32">
      <path fill="#231f20" fill-rule="nonzero" d="m350.176221,368.441698c0,7.691 -4.237,11.459 -11.773,11.641l-32.814,0l0,-29.53l32.814,0c7.38,-0.168 11.773,3.129 11.773,10.825l0,7.064zm-44.658,56.389l0,-29.675l24.747,-0.001c7.222,0 12.088,2.947 12.088,10.639l0,7.694c0,8.008 -5.183,11.343 -12.562,11.343l-24.273,0zm226.375,-89.494c-14.446,0 -24.495,7.222 -24.495,22.296l0,59.19c0,14.288 8.637,23.239 23.084,23.239l44.902,0l0,-15.231l-39.562,0c-8.169,0 -13.192,-3.139 -13.192,-11.776l0,-17.899l44.665,0l0,-15.072l-44.665,0l0,-17.585c0,-8.793 5.023,-11.932 13.345,-11.932l39.409,0l0,-15.23l-43.491,0zm-177.83,56.556c7.598,-3.611 11.344,-10.383 11.344,-20.783l0,-11.75c0,-14.604 -7.378,-24.023 -22.452,-24.023l-52.597,0l0,104.725l37.601,0l7.358,-0.196c14.979,0 22.293,-9.628 22.293,-23.708l0,-9.637c0,-6.506 -0.593,-10.839 -3.395,-14.492l-0.152,-0.136z" id="path34"/>
     </g>
     <g id="g36">
      <path fill="#231f20" fill-rule="nonzero" d="m586.494641,424.828478l0,15.233l43.725,0c12.716,0 23.083,-7.065 23.237,-20.568c0.156,-7.536 0.156,-9.86 0.156,-17.395c0,-13.975 -8.635,-22.456 -22.61,-22.456l-29.278,0l0,-44.306l-15.23,0l0,59.855l39.327,-0.004c8.322,0 12.563,0.783 12.563,9.417l0,9.706c0,7.224 -5.655,10.52 -12.247,10.52l-39.643,-0.002z" id="path38"/>
     </g>
     <g id="g40">
      <path fill="#231f20" fill-rule="nonzero" d="m191.020032,440.061907l-18.016,-78.171l-0.762,-6.478l-0.737,6.668l-14.486,67.074c-1.253,6.594 -4.779,11.389 -12.16,11.389l-0.05,0c-7.382,0 -10.907,-4.795 -12.16,-11.389l-14.502,-67.143l-0.776,-6.599l-0.724,6.546l-13.473,58.435c-2.761,13.085 -11.613,19.672 -24.953,19.672l-17.338,0.041l0,-14.842l16.916,0.007c5.162,0 9.478,-3.597 10.584,-8.419l16.209,-70.474c1.411,-5.964 5.759,-11.148 12.356,-11.148c6.593,0 11.69,4.094 12.943,10.217l14.402,66.831l0.56,4.75l0.524,-4.764l14.4,-66.817c1.253,-6.123 6.349,-10.217 12.943,-10.217c6.597,0 10.945,5.184 12.356,11.148l21.554,93.683l-15.61,0z" id="path42"/>
     </g>
    </g>
   </g>
  </g>
 </g>
</svg>
