<?xml version="1.0" standalone="no"?>
<!DOCTYPE svg PUBLIC "-//W3C//DTD SVG 20010904//EN"
 "http://www.w3.org/TR/2001/REC-SVG-20010904/DTD/svg10.dtd">
<svg version="1.0" xmlns="http://www.w3.org/2000/svg"
 width="520.000000pt" height="520.000000pt" viewBox="0 0 520.000000 520.000000"
 preserveAspectRatio="xMidYMid meet">
<metadata>
Created by potrace 1.11, written by Peter Selinger 2001-2013
</metadata>
<g transform="translate(0.000000,520.000000) scale(0.100000,-0.100000)"
fill="#000000" stroke="none">
<path d="M3715 4931 c-92 -26 -163 -69 -241 -146 -296 -294 -159 -801 247
-909 86 -23 238 -15 322 17 222 85 365 304 352 539 -19 346 -351 589 -680 499z"/>
<path d="M1478 4098 c-116 -15 -211 -85 -265 -195 -23 -48 -27 -70 -27 -137 0
-45 4 -90 8 -101 5 -11 10 -26 12 -33 4 -20 47 -82 83 -119 17 -17 56 -44 88
-60 50 -24 70 -28 143 -28 103 0 172 28 240 96 69 70 95 136 95 244 0 83 -3
95 -34 153 -34 61 -91 121 -143 148 -50 26 -140 40 -200 32z"/>
<path d="M2698 3445 c-2 -2 -25 -5 -53 -8 -181 -18 -357 -102 -490 -234 -103
-102 -146 -166 -205 -308 -22 -54 -30 -84 -45 -166 -22 -120 -9 -283 32 -409
83 -255 291 -463 545 -545 101 -33 149 -39 278 -38 397 3 727 281 816 688 3
17 8 84 10 150 4 179 -37 326 -131 475 -133 209 -357 354 -595 385 -54 7 -159
13 -162 10z"/>
<path d="M4504 3131 c-142 -37 -250 -169 -258 -315 -7 -131 69 -262 184 -321
160 -80 356 -23 446 131 14 23 31 71 38 107 42 201 -103 392 -307 402 -40 3
-86 1 -103 -4z"/>
<path d="M655 2679 c-147 -29 -298 -148 -367 -289 -178 -362 81 -781 482 -780
361 1 621 361 506 703 -34 101 -78 169 -154 238 -127 114 -296 161 -467 128z"/>
<path d="M3063 1107 c-180 -54 -298 -186 -326 -368 -34 -224 126 -449 349
-490 269 -50 518 158 517 431 -2 204 -135 375 -331 425 -62 16 -159 17 -209 2z"/>
</g>
</svg>
